<?xml version="1.0" encoding="utf-8" standalone="no"?>
<!DOCTYPE svg PUBLIC "-//W3C//DTD SVG 1.1//EN"
  "http://www.w3.org/Graphics/SVG/1.1/DTD/svg11.dtd">
<svg xmlns:xlink="http://www.w3.org/1999/xlink" width="424.46125pt" height="423.034375pt" viewBox="0 0 424.46125 423.034375" xmlns="http://www.w3.org/2000/svg" version="1.1">
 <metadata>
  <rdf:RDF xmlns:dc="http://purl.org/dc/elements/1.1/" xmlns:cc="http://creativecommons.org/ns#" xmlns:rdf="http://www.w3.org/1999/02/22-rdf-syntax-ns#">
   <cc:Work>
    <dc:type rdf:resource="http://purl.org/dc/dcmitype/StillImage"/>
    <dc:date>2026-06-21T21:27:19.464214</dc:date>
    <dc:format>image/svg+xml</dc:format>
    <dc:creator>
     <cc:Agent>
      <dc:title>Matplotlib v3.10.0, https://matplotlib.org/</dc:title>
     </cc:Agent>
    </dc:creator>
   </cc:Work>
  </rdf:RDF>
 </metadata>
 <defs>
  <style type="text/css">*{stroke-linejoin: round; stroke-linecap: butt}</style>
 </defs>
 <g id="figure_1">
  <g id="patch_1">
   <path d="M 0 423.034375 
L 424.46125 423.034375 
L 424.46125 0 
L 0 0 
z
" style="fill: #ffffff"/>
  </g>
  <g id="axes_1">
   <g id="patch_2">
    <path d="M 43.78125 385.478125 
L 417.26125 385.478125 
L 417.26125 22.318125 
L 43.78125 22.318125 
z
" style="fill: #ffffff"/>
   </g>
   <g id="matplotlib.axis_1">
    <g id="xtick_1">
     <g id="line2d_1">
      <path d="M 60.757614 385.478125 
L 60.757614 22.318125 
" clip-path="url(#p372fff510b)" style="fill: none; stroke: #b0b0b0; stroke-opacity: 0.3; stroke-width: 0.8; stroke-linecap: square"/>
     </g>
     <g id="line2d_2">
      <defs>
       <path id="ma4db9f231c" d="M 0 0 
L 0 3.5 
" style="stroke: #000000; stroke-width: 0.8"/>
      </defs>
      <g>
       <use xlink:href="#ma4db9f231c" x="60.757614" y="385.478125" style="stroke: #000000; stroke-width: 0.8"/>
      </g>
     </g>
     <g id="text_1">
      <!-- 0.0 -->
      <g transform="translate(52.806051 400.076562) scale(0.1 -0.1)">
       <defs>
        <path id="DejaVuSans-30" d="M 2034 4250 
Q 1547 4250 1301 3770 
Q 1056 3291 1056 2328 
Q 1056 1369 1301 889 
Q 1547 409 2034 409 
Q 2525 409 2770 889 
Q 3016 1369 3016 2328 
Q 3016 3291 2770 3770 
Q 2525 4250 2034 4250 
z
M 2034 4750 
Q 2819 4750 3233 4129 
Q 3647 3509 3647 2328 
Q 3647 1150 3233 529 
Q 2819 -91 2034 -91 
Q 1250 -91 836 529 
Q 422 1150 422 2328 
Q 422 3509 836 4129 
Q 1250 4750 2034 4750 
z
" transform="scale(0.015625)"/>
        <path id="DejaVuSans-2e" d="M 684 794 
L 1344 794 
L 1344 0 
L 684 0 
L 684 794 
z
" transform="scale(0.015625)"/>
       </defs>
       <use xlink:href="#DejaVuSans-30"/>
       <use xlink:href="#DejaVuSans-2e" transform="translate(63.623047 0)"/>
       <use xlink:href="#DejaVuSans-30" transform="translate(95.410156 0)"/>
      </g>
     </g>
    </g>
    <g id="xtick_2">
     <g id="line2d_3">
      <path d="M 128.663068 385.478125 
L 128.663068 22.318125 
" clip-path="url(#p372fff510b)" style="fill: none; stroke: #b0b0b0; stroke-opacity: 0.3; stroke-width: 0.8; stroke-linecap: square"/>
     </g>
     <g id="line2d_4">
      <g>
       <use xlink:href="#ma4db9f231c" x="128.663068" y="385.478125" style="stroke: #000000; stroke-width: 0.8"/>
      </g>
     </g>
     <g id="text_2">
      <!-- 0.2 -->
      <g transform="translate(120.711506 400.076562) scale(0.1 -0.1)">
       <defs>
        <path id="DejaVuSans-32" d="M 1228 531 
L 3431 531 
L 3431 0 
L 469 0 
L 469 531 
Q 828 903 1448 1529 
Q 2069 2156 2228 2338 
Q 2531 2678 2651 2914 
Q 2772 3150 2772 3378 
Q 2772 3750 2511 3984 
Q 2250 4219 1831 4219 
Q 1534 4219 1204 4116 
Q 875 4013 500 3803 
L 500 4441 
Q 881 4594 1212 4672 
Q 1544 4750 1819 4750 
Q 2544 4750 2975 4387 
Q 3406 4025 3406 3419 
Q 3406 3131 3298 2873 
Q 3191 2616 2906 2266 
Q 2828 2175 2409 1742 
Q 1991 1309 1228 531 
z
" transform="scale(0.015625)"/>
       </defs>
       <use xlink:href="#DejaVuSans-30"/>
       <use xlink:href="#DejaVuSans-2e" transform="translate(63.623047 0)"/>
       <use xlink:href="#DejaVuSans-32" transform="translate(95.410156 0)"/>
      </g>
     </g>
    </g>
    <g id="xtick_3">
     <g id="line2d_5">
      <path d="M 196.568523 385.478125 
L 196.568523 22.318125 
" clip-path="url(#p372fff510b)" style="fill: none; stroke: #b0b0b0; stroke-opacity: 0.3; stroke-width: 0.8; stroke-linecap: square"/>
     </g>
     <g id="line2d_6">
      <g>
       <use xlink:href="#ma4db9f231c" x="196.568523" y="385.478125" style="stroke: #000000; stroke-width: 0.8"/>
      </g>
     </g>
     <g id="text_3">
      <!-- 0.4 -->
      <g transform="translate(188.61696 400.076562) scale(0.1 -0.1)">
       <defs>
        <path id="DejaVuSans-34" d="M 2419 4116 
L 825 1625 
L 2419 1625 
L 2419 4116 
z
M 2253 4666 
L 3047 4666 
L 3047 1625 
L 3713 1625 
L 3713 1100 
L 3047 1100 
L 3047 0 
L 2419 0 
L 2419 1100 
L 313 1100 
L 313 1709 
L 2253 4666 
z
" transform="scale(0.015625)"/>
       </defs>
       <use xlink:href="#DejaVuSans-30"/>
       <use xlink:href="#DejaVuSans-2e" transform="translate(63.623047 0)"/>
       <use xlink:href="#DejaVuSans-34" transform="translate(95.410156 0)"/>
      </g>
     </g>
    </g>
    <g id="xtick_4">
     <g id="line2d_7">
      <path d="M 264.473977 385.478125 
L 264.473977 22.318125 
" clip-path="url(#p372fff510b)" style="fill: none; stroke: #b0b0b0; stroke-opacity: 0.3; stroke-width: 0.8; stroke-linecap: square"/>
     </g>
     <g id="line2d_8">
      <g>
       <use xlink:href="#ma4db9f231c" x="264.473977" y="385.478125" style="stroke: #000000; stroke-width: 0.8"/>
      </g>
     </g>
     <g id="text_4">
      <!-- 0.6 -->
      <g transform="translate(256.522415 400.076562) scale(0.1 -0.1)">
       <defs>
        <path id="DejaVuSans-36" d="M 2113 2584 
Q 1688 2584 1439 2293 
Q 1191 2003 1191 1497 
Q 1191 994 1439 701 
Q 1688 409 2113 409 
Q 2538 409 2786 701 
Q 3034 994 3034 1497 
Q 3034 2003 2786 2293 
Q 2538 2584 2113 2584 
z
M 3366 4563 
L 3366 3988 
Q 3128 4100 2886 4159 
Q 2644 4219 2406 4219 
Q 1781 4219 1451 3797 
Q 1122 3375 1075 2522 
Q 1259 2794 1537 2939 
Q 1816 3084 2150 3084 
Q 2853 3084 3261 2657 
Q 3669 2231 3669 1497 
Q 3669 778 3244 343 
Q 2819 -91 2113 -91 
Q 1303 -91 875 529 
Q 447 1150 447 2328 
Q 447 3434 972 4092 
Q 1497 4750 2381 4750 
Q 2619 4750 2861 4703 
Q 3103 4656 3366 4563 
z
" transform="scale(0.015625)"/>
       </defs>
       <use xlink:href="#DejaVuSans-30"/>
       <use xlink:href="#DejaVuSans-2e" transform="translate(63.623047 0)"/>
       <use xlink:href="#DejaVuSans-36" transform="translate(95.410156 0)"/>
      </g>
     </g>
    </g>
    <g id="xtick_5">
     <g id="line2d_9">
      <path d="M 332.379432 385.478125 
L 332.379432 22.318125 
" clip-path="url(#p372fff510b)" style="fill: none; stroke: #b0b0b0; stroke-opacity: 0.3; stroke-width: 0.8; stroke-linecap: square"/>
     </g>
     <g id="line2d_10">
      <g>
       <use xlink:href="#ma4db9f231c" x="332.379432" y="385.478125" style="stroke: #000000; stroke-width: 0.8"/>
      </g>
     </g>
     <g id="text_5">
      <!-- 0.8 -->
      <g transform="translate(324.427869 400.076562) scale(0.1 -0.1)">
       <defs>
        <path id="DejaVuSans-38" d="M 2034 2216 
Q 1584 2216 1326 1975 
Q 1069 1734 1069 1313 
Q 1069 891 1326 650 
Q 1584 409 2034 409 
Q 2484 409 2743 651 
Q 3003 894 3003 1313 
Q 3003 1734 2745 1975 
Q 2488 2216 2034 2216 
z
M 1403 2484 
Q 997 2584 770 2862 
Q 544 3141 544 3541 
Q 544 4100 942 4425 
Q 1341 4750 2034 4750 
Q 2731 4750 3128 4425 
Q 3525 4100 3525 3541 
Q 3525 3141 3298 2862 
Q 3072 2584 2669 2484 
Q 3125 2378 3379 2068 
Q 3634 1759 3634 1313 
Q 3634 634 3220 271 
Q 2806 -91 2034 -91 
Q 1263 -91 848 271 
Q 434 634 434 1313 
Q 434 1759 690 2068 
Q 947 2378 1403 2484 
z
M 1172 3481 
Q 1172 3119 1398 2916 
Q 1625 2713 2034 2713 
Q 2441 2713 2670 2916 
Q 2900 3119 2900 3481 
Q 2900 3844 2670 4047 
Q 2441 4250 2034 4250 
Q 1625 4250 1398 4047 
Q 1172 3844 1172 3481 
z
" transform="scale(0.015625)"/>
       </defs>
       <use xlink:href="#DejaVuSans-30"/>
       <use xlink:href="#DejaVuSans-2e" transform="translate(63.623047 0)"/>
       <use xlink:href="#DejaVuSans-38" transform="translate(95.410156 0)"/>
      </g>
     </g>
    </g>
    <g id="xtick_6">
     <g id="line2d_11">
      <path d="M 400.284886 385.478125 
L 400.284886 22.318125 
" clip-path="url(#p372fff510b)" style="fill: none; stroke: #b0b0b0; stroke-opacity: 0.3; stroke-width: 0.8; stroke-linecap: square"/>
     </g>
     <g id="line2d_12">
      <g>
       <use xlink:href="#ma4db9f231c" x="400.284886" y="385.478125" style="stroke: #000000; stroke-width: 0.8"/>
      </g>
     </g>
     <g id="text_6">
      <!-- 1.0 -->
      <g transform="translate(392.333324 400.076562) scale(0.1 -0.1)">
       <defs>
        <path id="DejaVuSans-31" d="M 794 531 
L 1825 531 
L 1825 4091 
L 703 3866 
L 703 4441 
L 1819 4666 
L 2450 4666 
L 2450 531 
L 3481 531 
L 3481 0 
L 794 0 
L 794 531 
z
" transform="scale(0.015625)"/>
       </defs>
       <use xlink:href="#DejaVuSans-31"/>
       <use xlink:href="#DejaVuSans-2e" transform="translate(63.623047 0)"/>
       <use xlink:href="#DejaVuSans-30" transform="translate(95.410156 0)"/>
      </g>
     </g>
    </g>
    <g id="text_7">
     <!-- 1 − Specificity (FPR) -->
     <g transform="translate(179.34625 413.754687) scale(0.1 -0.1)">
      <defs>
       <path id="DejaVuSans-20" transform="scale(0.015625)"/>
       <path id="DejaVuSans-2212" d="M 678 2272 
L 4684 2272 
L 4684 1741 
L 678 1741 
L 678 2272 
z
" transform="scale(0.015625)"/>
       <path id="DejaVuSans-53" d="M 3425 4513 
L 3425 3897 
Q 3066 4069 2747 4153 
Q 2428 4238 2131 4238 
Q 1616 4238 1336 4038 
Q 1056 3838 1056 3469 
Q 1056 3159 1242 3001 
Q 1428 2844 1947 2747 
L 2328 2669 
Q 3034 2534 3370 2195 
Q 3706 1856 3706 1288 
Q 3706 609 3251 259 
Q 2797 -91 1919 -91 
Q 1588 -91 1214 -16 
Q 841 59 441 206 
L 441 856 
Q 825 641 1194 531 
Q 1563 422 1919 422 
Q 2459 422 2753 634 
Q 3047 847 3047 1241 
Q 3047 1584 2836 1778 
Q 2625 1972 2144 2069 
L 1759 2144 
Q 1053 2284 737 2584 
Q 422 2884 422 3419 
Q 422 4038 858 4394 
Q 1294 4750 2059 4750 
Q 2388 4750 2728 4690 
Q 3069 4631 3425 4513 
z
" transform="scale(0.015625)"/>
       <path id="DejaVuSans-70" d="M 1159 525 
L 1159 -1331 
L 581 -1331 
L 581 3500 
L 1159 3500 
L 1159 2969 
Q 1341 3281 1617 3432 
Q 1894 3584 2278 3584 
Q 2916 3584 3314 3078 
Q 3713 2572 3713 1747 
Q 3713 922 3314 415 
Q 2916 -91 2278 -91 
Q 1894 -91 1617 61 
Q 1341 213 1159 525 
z
M 3116 1747 
Q 3116 2381 2855 2742 
Q 2594 3103 2138 3103 
Q 1681 3103 1420 2742 
Q 1159 2381 1159 1747 
Q 1159 1113 1420 752 
Q 1681 391 2138 391 
Q 2594 391 2855 752 
Q 3116 1113 3116 1747 
z
" transform="scale(0.015625)"/>
       <path id="DejaVuSans-65" d="M 3597 1894 
L 3597 1613 
L 953 1613 
Q 991 1019 1311 708 
Q 1631 397 2203 397 
Q 2534 397 2845 478 
Q 3156 559 3463 722 
L 3463 178 
Q 3153 47 2828 -22 
Q 2503 -91 2169 -91 
Q 1331 -91 842 396 
Q 353 884 353 1716 
Q 353 2575 817 3079 
Q 1281 3584 2069 3584 
Q 2775 3584 3186 3129 
Q 3597 2675 3597 1894 
z
M 3022 2063 
Q 3016 2534 2758 2815 
Q 2500 3097 2075 3097 
Q 1594 3097 1305 2825 
Q 1016 2553 972 2059 
L 3022 2063 
z
" transform="scale(0.015625)"/>
       <path id="DejaVuSans-63" d="M 3122 3366 
L 3122 2828 
Q 2878 2963 2633 3030 
Q 2388 3097 2138 3097 
Q 1578 3097 1268 2742 
Q 959 2388 959 1747 
Q 959 1106 1268 751 
Q 1578 397 2138 397 
Q 2388 397 2633 464 
Q 2878 531 3122 666 
L 3122 134 
Q 2881 22 2623 -34 
Q 2366 -91 2075 -91 
Q 1284 -91 818 406 
Q 353 903 353 1747 
Q 353 2603 823 3093 
Q 1294 3584 2113 3584 
Q 2378 3584 2631 3529 
Q 2884 3475 3122 3366 
z
" transform="scale(0.015625)"/>
       <path id="DejaVuSans-69" d="M 603 3500 
L 1178 3500 
L 1178 0 
L 603 0 
L 603 3500 
z
M 603 4863 
L 1178 4863 
L 1178 4134 
L 603 4134 
L 603 4863 
z
" transform="scale(0.015625)"/>
       <path id="DejaVuSans-66" d="M 2375 4863 
L 2375 4384 
L 1825 4384 
Q 1516 4384 1395 4259 
Q 1275 4134 1275 3809 
L 1275 3500 
L 2222 3500 
L 2222 3053 
L 1275 3053 
L 1275 0 
L 697 0 
L 697 3053 
L 147 3053 
L 147 3500 
L 697 3500 
L 697 3744 
Q 697 4328 969 4595 
Q 1241 4863 1831 4863 
L 2375 4863 
z
" transform="scale(0.015625)"/>
       <path id="DejaVuSans-74" d="M 1172 4494 
L 1172 3500 
L 2356 3500 
L 2356 3053 
L 1172 3053 
L 1172 1153 
Q 1172 725 1289 603 
Q 1406 481 1766 481 
L 2356 481 
L 2356 0 
L 1766 0 
Q 1100 0 847 248 
Q 594 497 594 1153 
L 594 3053 
L 172 3053 
L 172 3500 
L 594 3500 
L 594 4494 
L 1172 4494 
z
" transform="scale(0.015625)"/>
       <path id="DejaVuSans-79" d="M 2059 -325 
Q 1816 -950 1584 -1140 
Q 1353 -1331 966 -1331 
L 506 -1331 
L 506 -850 
L 844 -850 
Q 1081 -850 1212 -737 
Q 1344 -625 1503 -206 
L 1606 56 
L 191 3500 
L 800 3500 
L 1894 763 
L 2988 3500 
L 3597 3500 
L 2059 -325 
z
" transform="scale(0.015625)"/>
       <path id="DejaVuSans-28" d="M 1984 4856 
Q 1566 4138 1362 3434 
Q 1159 2731 1159 2009 
Q 1159 1288 1364 580 
Q 1569 -128 1984 -844 
L 1484 -844 
Q 1016 -109 783 600 
Q 550 1309 550 2009 
Q 550 2706 781 3412 
Q 1013 4119 1484 4856 
L 1984 4856 
z
" transform="scale(0.015625)"/>
       <path id="DejaVuSans-46" d="M 628 4666 
L 3309 4666 
L 3309 4134 
L 1259 4134 
L 1259 2759 
L 3109 2759 
L 3109 2228 
L 1259 2228 
L 1259 0 
L 628 0 
L 628 4666 
z
" transform="scale(0.015625)"/>
       <path id="DejaVuSans-50" d="M 1259 4147 
L 1259 2394 
L 2053 2394 
Q 2494 2394 2734 2622 
Q 2975 2850 2975 3272 
Q 2975 3691 2734 3919 
Q 2494 4147 2053 4147 
L 1259 4147 
z
M 628 4666 
L 2053 4666 
Q 2838 4666 3239 4311 
Q 3641 3956 3641 3272 
Q 3641 2581 3239 2228 
Q 2838 1875 2053 1875 
L 1259 1875 
L 1259 0 
L 628 0 
L 628 4666 
z
" transform="scale(0.015625)"/>
       <path id="DejaVuSans-52" d="M 2841 2188 
Q 3044 2119 3236 1894 
Q 3428 1669 3622 1275 
L 4263 0 
L 3584 0 
L 2988 1197 
Q 2756 1666 2539 1819 
Q 2322 1972 1947 1972 
L 1259 1972 
L 1259 0 
L 628 0 
L 628 4666 
L 2053 4666 
Q 2853 4666 3247 4331 
Q 3641 3997 3641 3322 
Q 3641 2881 3436 2590 
Q 3231 2300 2841 2188 
z
M 1259 4147 
L 1259 2491 
L 2053 2491 
Q 2509 2491 2742 2702 
Q 2975 2913 2975 3322 
Q 2975 3731 2742 3939 
Q 2509 4147 2053 4147 
L 1259 4147 
z
" transform="scale(0.015625)"/>
       <path id="DejaVuSans-29" d="M 513 4856 
L 1013 4856 
Q 1481 4119 1714 3412 
Q 1947 2706 1947 2009 
Q 1947 1309 1714 600 
Q 1481 -109 1013 -844 
L 513 -844 
Q 928 -128 1133 580 
Q 1338 1288 1338 2009 
Q 1338 2731 1133 3434 
Q 928 4138 513 4856 
z
" transform="scale(0.015625)"/>
      </defs>
      <use xlink:href="#DejaVuSans-31"/>
      <use xlink:href="#DejaVuSans-20" transform="translate(63.623047 0)"/>
      <use xlink:href="#DejaVuSans-2212" transform="translate(95.410156 0)"/>
      <use xlink:href="#DejaVuSans-20" transform="translate(179.199219 0)"/>
      <use xlink:href="#DejaVuSans-53" transform="translate(210.986328 0)"/>
      <use xlink:href="#DejaVuSans-70" transform="translate(274.462891 0)"/>
      <use xlink:href="#DejaVuSans-65" transform="translate(337.939453 0)"/>
      <use xlink:href="#DejaVuSans-63" transform="translate(399.462891 0)"/>
      <use xlink:href="#DejaVuSans-69" transform="translate(454.443359 0)"/>
      <use xlink:href="#DejaVuSans-66" transform="translate(482.226562 0)"/>
      <use xlink:href="#DejaVuSans-69" transform="translate(517.431641 0)"/>
      <use xlink:href="#DejaVuSans-63" transform="translate(545.214844 0)"/>
      <use xlink:href="#DejaVuSans-69" transform="translate(600.195312 0)"/>
      <use xlink:href="#DejaVuSans-74" transform="translate(627.978516 0)"/>
      <use xlink:href="#DejaVuSans-79" transform="translate(667.1875 0)"/>
      <use xlink:href="#DejaVuSans-20" transform="translate(726.367188 0)"/>
      <use xlink:href="#DejaVuSans-28" transform="translate(758.154297 0)"/>
      <use xlink:href="#DejaVuSans-46" transform="translate(797.167969 0)"/>
      <use xlink:href="#DejaVuSans-50" transform="translate(854.6875 0)"/>
      <use xlink:href="#DejaVuSans-52" transform="translate(914.990234 0)"/>
      <use xlink:href="#DejaVuSans-29" transform="translate(984.472656 0)"/>
     </g>
    </g>
   </g>
   <g id="matplotlib.axis_2">
    <g id="ytick_1">
     <g id="line2d_13">
      <path d="M 43.78125 368.970852 
L 417.26125 368.970852 
" clip-path="url(#p372fff510b)" style="fill: none; stroke: #b0b0b0; stroke-opacity: 0.3; stroke-width: 0.8; stroke-linecap: square"/>
     </g>
     <g id="line2d_14">
      <defs>
       <path id="m3f35706605" d="M 0 0 
L -3.5 0 
" style="stroke: #000000; stroke-width: 0.8"/>
      </defs>
      <g>
       <use xlink:href="#m3f35706605" x="43.78125" y="368.970852" style="stroke: #000000; stroke-width: 0.8"/>
      </g>
     </g>
     <g id="text_8">
      <!-- 0.0 -->
      <g transform="translate(20.878125 372.770071) scale(0.1 -0.1)">
       <use xlink:href="#DejaVuSans-30"/>
       <use xlink:href="#DejaVuSans-2e" transform="translate(63.623047 0)"/>
       <use xlink:href="#DejaVuSans-30" transform="translate(95.410156 0)"/>
      </g>
     </g>
    </g>
    <g id="ytick_2">
     <g id="line2d_15">
      <path d="M 43.78125 302.941761 
L 417.26125 302.941761 
" clip-path="url(#p372fff510b)" style="fill: none; stroke: #b0b0b0; stroke-opacity: 0.3; stroke-width: 0.8; stroke-linecap: square"/>
     </g>
     <g id="line2d_16">
      <g>
       <use xlink:href="#m3f35706605" x="43.78125" y="302.941761" style="stroke: #000000; stroke-width: 0.8"/>
      </g>
     </g>
     <g id="text_9">
      <!-- 0.2 -->
      <g transform="translate(20.878125 306.74098) scale(0.1 -0.1)">
       <use xlink:href="#DejaVuSans-30"/>
       <use xlink:href="#DejaVuSans-2e" transform="translate(63.623047 0)"/>
       <use xlink:href="#DejaVuSans-32" transform="translate(95.410156 0)"/>
      </g>
     </g>
    </g>
    <g id="ytick_3">
     <g id="line2d_17">
      <path d="M 43.78125 236.91267 
L 417.26125 236.91267 
" clip-path="url(#p372fff510b)" style="fill: none; stroke: #b0b0b0; stroke-opacity: 0.3; stroke-width: 0.8; stroke-linecap: square"/>
     </g>
     <g id="line2d_18">
      <g>
       <use xlink:href="#m3f35706605" x="43.78125" y="236.91267" style="stroke: #000000; stroke-width: 0.8"/>
      </g>
     </g>
     <g id="text_10">
      <!-- 0.4 -->
      <g transform="translate(20.878125 240.711889) scale(0.1 -0.1)">
       <use xlink:href="#DejaVuSans-30"/>
       <use xlink:href="#DejaVuSans-2e" transform="translate(63.623047 0)"/>
       <use xlink:href="#DejaVuSans-34" transform="translate(95.410156 0)"/>
      </g>
     </g>
    </g>
    <g id="ytick_4">
     <g id="line2d_19">
      <path d="M 43.78125 170.88358 
L 417.26125 170.88358 
" clip-path="url(#p372fff510b)" style="fill: none; stroke: #b0b0b0; stroke-opacity: 0.3; stroke-width: 0.8; stroke-linecap: square"/>
     </g>
     <g id="line2d_20">
      <g>
       <use xlink:href="#m3f35706605" x="43.78125" y="170.88358" style="stroke: #000000; stroke-width: 0.8"/>
      </g>
     </g>
     <g id="text_11">
      <!-- 0.6 -->
      <g transform="translate(20.878125 174.682798) scale(0.1 -0.1)">
       <use xlink:href="#DejaVuSans-30"/>
       <use xlink:href="#DejaVuSans-2e" transform="translate(63.623047 0)"/>
       <use xlink:href="#DejaVuSans-36" transform="translate(95.410156 0)"/>
      </g>
     </g>
    </g>
    <g id="ytick_5">
     <g id="line2d_21">
      <path d="M 43.78125 104.854489 
L 417.26125 104.854489 
" clip-path="url(#p372fff510b)" style="fill: none; stroke: #b0b0b0; stroke-opacity: 0.3; stroke-width: 0.8; stroke-linecap: square"/>
     </g>
     <g id="line2d_22">
      <g>
       <use xlink:href="#m3f35706605" x="43.78125" y="104.854489" style="stroke: #000000; stroke-width: 0.8"/>
      </g>
     </g>
     <g id="text_12">
      <!-- 0.8 -->
      <g transform="translate(20.878125 108.653707) scale(0.1 -0.1)">
       <use xlink:href="#DejaVuSans-30"/>
       <use xlink:href="#DejaVuSans-2e" transform="translate(63.623047 0)"/>
       <use xlink:href="#DejaVuSans-38" transform="translate(95.410156 0)"/>
      </g>
     </g>
    </g>
    <g id="ytick_6">
     <g id="line2d_23">
      <path d="M 43.78125 38.825398 
L 417.26125 38.825398 
" clip-path="url(#p372fff510b)" style="fill: none; stroke: #b0b0b0; stroke-opacity: 0.3; stroke-width: 0.8; stroke-linecap: square"/>
     </g>
     <g id="line2d_24">
      <g>
       <use xlink:href="#m3f35706605" x="43.78125" y="38.825398" style="stroke: #000000; stroke-width: 0.8"/>
      </g>
     </g>
     <g id="text_13">
      <!-- 1.0 -->
      <g transform="translate(20.878125 42.624616) scale(0.1 -0.1)">
       <use xlink:href="#DejaVuSans-31"/>
       <use xlink:href="#DejaVuSans-2e" transform="translate(63.623047 0)"/>
       <use xlink:href="#DejaVuSans-30" transform="translate(95.410156 0)"/>
      </g>
     </g>
    </g>
    <g id="text_14">
     <!-- Sensitivity (TPR) -->
     <g transform="translate(14.798438 244.962187) rotate(-90) scale(0.1 -0.1)">
      <defs>
       <path id="DejaVuSans-6e" d="M 3513 2113 
L 3513 0 
L 2938 0 
L 2938 2094 
Q 2938 2591 2744 2837 
Q 2550 3084 2163 3084 
Q 1697 3084 1428 2787 
Q 1159 2491 1159 1978 
L 1159 0 
L 581 0 
L 581 3500 
L 1159 3500 
L 1159 2956 
Q 1366 3272 1645 3428 
Q 1925 3584 2291 3584 
Q 2894 3584 3203 3211 
Q 3513 2838 3513 2113 
z
" transform="scale(0.015625)"/>
       <path id="DejaVuSans-73" d="M 2834 3397 
L 2834 2853 
Q 2591 2978 2328 3040 
Q 2066 3103 1784 3103 
Q 1356 3103 1142 2972 
Q 928 2841 928 2578 
Q 928 2378 1081 2264 
Q 1234 2150 1697 2047 
L 1894 2003 
Q 2506 1872 2764 1633 
Q 3022 1394 3022 966 
Q 3022 478 2636 193 
Q 2250 -91 1575 -91 
Q 1294 -91 989 -36 
Q 684 19 347 128 
L 347 722 
Q 666 556 975 473 
Q 1284 391 1588 391 
Q 1994 391 2212 530 
Q 2431 669 2431 922 
Q 2431 1156 2273 1281 
Q 2116 1406 1581 1522 
L 1381 1569 
Q 847 1681 609 1914 
Q 372 2147 372 2553 
Q 372 3047 722 3315 
Q 1072 3584 1716 3584 
Q 2034 3584 2315 3537 
Q 2597 3491 2834 3397 
z
" transform="scale(0.015625)"/>
       <path id="DejaVuSans-76" d="M 191 3500 
L 800 3500 
L 1894 563 
L 2988 3500 
L 3597 3500 
L 2284 0 
L 1503 0 
L 191 3500 
z
" transform="scale(0.015625)"/>
       <path id="DejaVuSans-54" d="M -19 4666 
L 3928 4666 
L 3928 4134 
L 2272 4134 
L 2272 0 
L 1638 0 
L 1638 4134 
L -19 4134 
L -19 4666 
z
" transform="scale(0.015625)"/>
      </defs>
      <use xlink:href="#DejaVuSans-53"/>
      <use xlink:href="#DejaVuSans-65" transform="translate(63.476562 0)"/>
      <use xlink:href="#DejaVuSans-6e" transform="translate(125 0)"/>
      <use xlink:href="#DejaVuSans-73" transform="translate(188.378906 0)"/>
      <use xlink:href="#DejaVuSans-69" transform="translate(240.478516 0)"/>
      <use xlink:href="#DejaVuSans-74" transform="translate(268.261719 0)"/>
      <use xlink:href="#DejaVuSans-69" transform="translate(307.470703 0)"/>
      <use xlink:href="#DejaVuSans-76" transform="translate(335.253906 0)"/>
      <use xlink:href="#DejaVuSans-69" transform="translate(394.433594 0)"/>
      <use xlink:href="#DejaVuSans-74" transform="translate(422.216797 0)"/>
      <use xlink:href="#DejaVuSans-79" transform="translate(461.425781 0)"/>
      <use xlink:href="#DejaVuSans-20" transform="translate(520.605469 0)"/>
      <use xlink:href="#DejaVuSans-28" transform="translate(552.392578 0)"/>
      <use xlink:href="#DejaVuSans-54" transform="translate(591.40625 0)"/>
      <use xlink:href="#DejaVuSans-50" transform="translate(652.490234 0)"/>
      <use xlink:href="#DejaVuSans-52" transform="translate(712.792969 0)"/>
      <use xlink:href="#DejaVuSans-29" transform="translate(782.275391 0)"/>
     </g>
    </g>
   </g>
   <g id="line2d_25">
    <path d="M 60.757614 368.970852 
L 60.757614 329.906521 
L 61.030326 329.906521 
L 61.030326 317.115545 
L 61.303039 317.115545 
L 61.303039 308.472994 
L 61.575752 308.472994 
L 61.575752 304.670272 
L 61.848464 304.670272 
L 61.848464 302.596059 
L 62.121177 302.596059 
L 62.121177 297.410529 
L 62.39389 297.410529 
L 62.39389 295.336316 
L 62.666602 295.336316 
L 62.666602 285.656659 
L 62.939315 285.656659 
L 62.939315 275.6313 
L 63.212028 275.6313 
L 63.212028 272.174279 
L 63.757453 272.174279 
L 63.757453 267.680153 
L 64.030166 267.680153 
L 64.030166 265.951642 
L 64.302878 265.951642 
L 64.302878 264.223132 
L 64.575591 264.223132 
L 64.575591 263.87743 
L 64.848304 263.87743 
L 64.848304 261.803218 
L 65.121016 261.803218 
L 65.121016 258.346197 
L 65.393729 258.346197 
L 65.393729 258.000495 
L 65.666442 258.000495 
L 65.666442 256.271985 
L 65.939154 256.271985 
L 65.939154 254.197773 
L 66.211867 254.197773 
L 66.211867 252.123561 
L 66.757292 252.123561 
L 66.757292 250.39505 
L 67.030005 250.39505 
L 67.030005 247.629434 
L 67.302718 247.629434 
L 67.302718 245.555222 
L 67.57543 245.555222 
L 67.57543 244.518115 
L 67.848143 244.518115 
L 67.848143 241.406797 
L 68.393568 241.406797 
L 68.393568 241.061095 
L 68.666281 241.061095 
L 68.666281 240.715393 
L 68.938994 240.715393 
L 68.938994 236.91267 
L 69.211706 236.91267 
L 69.211706 236.566968 
L 69.484419 236.566968 
L 69.484419 236.221266 
L 69.757132 236.221266 
L 69.757132 234.838458 
L 70.029844 234.838458 
L 70.029844 231.72714 
L 70.302557 231.72714 
L 70.302557 228.270119 
L 70.57527 228.270119 
L 70.57527 227.233013 
L 70.847982 227.233013 
L 70.847982 226.541609 
L 71.393408 226.541609 
L 71.393408 219.97327 
L 71.66612 219.97327 
L 71.66612 206.836592 
L 72.211546 206.836592 
L 72.211546 206.49089 
L 72.484258 206.49089 
L 72.484258 201.30536 
L 72.756971 201.30536 
L 72.756971 198.194041 
L 73.029684 198.194041 
L 73.029684 197.502637 
L 73.847822 197.502637 
L 73.847822 196.811233 
L 74.120534 196.811233 
L 74.120534 196.119829 
L 74.393247 196.119829 
L 74.393247 195.774127 
L 74.66596 195.774127 
L 74.66596 195.082723 
L 74.938672 195.082723 
L 74.938672 192.317106 
L 75.211385 192.317106 
L 75.211385 190.934298 
L 75.75681 190.934298 
L 75.75681 186.440172 
L 76.029523 186.440172 
L 76.029523 186.09447 
L 76.302236 186.09447 
L 76.302236 185.748768 
L 76.574948 185.748768 
L 76.574948 185.403066 
L 76.847661 185.403066 
L 76.847661 183.674555 
L 77.120374 183.674555 
L 77.120374 182.637449 
L 77.393086 182.637449 
L 77.393086 180.908939 
L 77.665799 180.908939 
L 77.665799 180.563237 
L 77.938512 180.563237 
L 77.938512 176.760514 
L 78.483937 176.760514 
L 78.483937 174.686302 
L 78.75665 174.686302 
L 78.75665 173.303494 
L 79.029362 173.303494 
L 79.029362 168.809367 
L 79.302075 168.809367 
L 79.302075 167.080857 
L 79.574788 167.080857 
L 79.574788 163.278135 
L 79.8475 163.278135 
L 79.8475 162.932432 
L 80.392926 162.932432 
L 80.392926 158.092604 
L 80.938351 158.092604 
L 80.938351 153.944179 
L 81.211064 153.944179 
L 81.211064 149.795755 
L 81.483776 149.795755 
L 81.483776 149.104351 
L 81.756489 149.104351 
L 81.756489 147.721542 
L 82.301914 147.721542 
L 82.301914 147.37584 
L 82.574627 147.37584 
L 82.574627 146.684436 
L 82.84734 146.684436 
L 82.84734 146.338734 
L 83.392765 146.338734 
L 83.392765 144.610224 
L 83.665478 144.610224 
L 83.665478 142.881714 
L 84.210903 142.881714 
L 84.210903 140.116097 
L 84.483616 140.116097 
L 84.483616 138.733289 
L 85.301754 138.733289 
L 85.301754 137.696183 
L 85.574467 137.696183 
L 85.574467 134.584865 
L 85.847179 134.584865 
L 85.847179 131.473546 
L 86.119892 131.473546 
L 86.119892 130.782142 
L 86.392605 130.782142 
L 86.392605 130.43644 
L 86.665317 130.43644 
L 86.665317 129.745036 
L 86.93803 129.745036 
L 86.93803 129.399334 
L 87.210743 129.399334 
L 87.210743 128.362228 
L 87.483455 128.362228 
L 87.483455 126.97942 
L 87.756168 126.97942 
L 87.756168 125.942313 
L 88.028881 125.942313 
L 88.028881 125.596611 
L 88.301593 125.596611 
L 88.301593 124.213803 
L 88.574306 124.213803 
L 88.574306 123.868101 
L 88.847019 123.868101 
L 88.847019 123.522399 
L 89.119731 123.522399 
L 89.119731 123.176697 
L 89.392444 123.176697 
L 89.392444 121.793889 
L 89.937869 121.793889 
L 89.937869 121.102485 
L 90.210582 121.102485 
L 90.210582 120.756783 
L 90.483295 120.756783 
L 90.483295 120.065379 
L 90.756007 120.065379 
L 90.756007 119.028273 
L 91.02872 119.028273 
L 91.02872 117.645464 
L 91.301433 117.645464 
L 91.301433 116.95406 
L 91.574145 116.95406 
L 91.574145 116.608358 
L 91.846858 116.608358 
L 91.846858 116.262656 
L 92.392283 116.262656 
L 92.392283 115.916954 
L 92.664996 115.916954 
L 92.664996 115.571252 
L 92.937709 115.571252 
L 92.937709 112.805636 
L 93.483134 112.805636 
L 93.483134 111.76853 
L 94.028559 111.76853 
L 94.028559 111.422828 
L 94.301272 111.422828 
L 94.301272 111.077125 
L 94.846697 111.077125 
L 94.846697 110.731423 
L 95.392123 110.731423 
L 95.392123 110.385721 
L 95.664835 110.385721 
L 95.664835 110.040019 
L 95.937548 110.040019 
L 95.937548 109.348615 
L 96.210261 109.348615 
L 96.210261 107.620105 
L 96.482973 107.620105 
L 96.482973 105.891595 
L 97.301111 105.891595 
L 97.301111 105.545893 
L 98.119249 105.545893 
L 98.119249 105.200191 
L 98.391962 105.200191 
L 98.391962 104.508787 
L 98.664675 104.508787 
L 98.664675 103.817382 
L 98.937387 103.817382 
L 98.937387 102.434574 
L 99.482813 102.434574 
L 99.482813 102.088872 
L 99.755525 102.088872 
L 99.755525 101.051766 
L 100.028238 101.051766 
L 100.028238 100.01466 
L 100.300951 100.01466 
L 100.300951 99.668958 
L 101.119089 99.668958 
L 101.119089 99.323256 
L 101.937227 99.323256 
L 101.937227 97.249044 
L 102.482652 97.249044 
L 102.482652 96.903342 
L 102.755365 96.903342 
L 102.755365 96.55764 
L 103.30079 96.55764 
L 103.30079 95.866235 
L 103.846215 95.866235 
L 103.846215 94.829129 
L 104.118928 94.829129 
L 104.118928 92.754917 
L 104.664353 92.754917 
L 104.664353 92.063513 
L 104.937066 92.063513 
L 104.937066 90.680705 
L 105.209779 90.680705 
L 105.209779 88.952194 
L 105.482491 88.952194 
L 105.482491 88.606492 
L 105.755204 88.606492 
L 105.755204 88.26079 
L 106.027917 88.26079 
L 106.027917 87.915088 
L 106.300629 87.915088 
L 106.300629 87.569386 
L 106.573342 87.569386 
L 106.573342 87.223684 
L 106.846055 87.223684 
L 106.846055 85.840876 
L 107.118767 85.840876 
L 107.118767 85.495174 
L 107.39148 85.495174 
L 107.39148 84.80377 
L 108.209618 84.80377 
L 108.209618 83.766664 
L 108.482331 83.766664 
L 108.482331 82.383856 
L 109.573181 82.383856 
L 109.573181 81.692452 
L 109.845894 81.692452 
L 109.845894 80.309643 
L 110.118607 80.309643 
L 110.118607 79.963941 
L 110.391319 79.963941 
L 110.391319 79.272537 
L 110.664032 79.272537 
L 110.664032 78.581133 
L 110.936745 78.581133 
L 110.936745 77.544027 
L 111.48217 77.544027 
L 111.48217 77.198325 
L 111.754883 77.198325 
L 111.754883 76.852623 
L 112.027595 76.852623 
L 112.027595 76.506921 
L 112.300308 76.506921 
L 112.300308 76.161219 
L 113.118446 76.161219 
L 113.118446 74.778411 
L 114.209297 74.778411 
L 114.209297 74.087006 
L 114.482009 74.087006 
L 114.482009 73.741304 
L 115.027435 73.741304 
L 115.027435 73.395602 
L 115.300147 73.395602 
L 115.300147 72.704198 
L 115.845573 72.704198 
L 115.845573 72.358496 
L 116.118285 72.358496 
L 116.118285 70.975688 
L 116.663711 70.975688 
L 116.663711 70.629986 
L 116.936423 70.629986 
L 116.936423 70.284284 
L 117.754561 70.284284 
L 117.754561 69.59288 
L 118.027274 69.59288 
L 118.027274 69.247178 
L 120.208975 69.247178 
L 120.208975 68.210072 
L 120.481688 68.210072 
L 120.481688 67.86437 
L 121.299826 67.86437 
L 121.299826 67.518668 
L 121.572539 67.518668 
L 121.572539 67.172966 
L 121.845251 67.172966 
L 121.845251 66.827264 
L 122.117964 66.827264 
L 122.117964 66.481561 
L 122.390677 66.481561 
L 122.390677 65.790157 
L 123.208815 65.790157 
L 123.208815 65.098753 
L 123.75424 65.098753 
L 123.75424 64.753051 
L 125.663229 64.753051 
L 125.663229 64.407349 
L 125.935941 64.407349 
L 125.935941 63.715945 
L 126.481367 63.715945 
L 126.481367 63.024541 
L 129.208494 63.024541 
L 129.208494 62.678839 
L 129.481206 62.678839 
L 129.481206 61.987435 
L 130.026632 61.987435 
L 130.026632 61.296031 
L 130.84477 61.296031 
L 130.84477 60.258925 
L 131.390195 60.258925 
L 131.390195 59.221818 
L 131.662908 59.221818 
L 131.662908 58.530414 
L 132.208333 58.530414 
L 132.208333 58.184712 
L 132.481046 58.184712 
L 132.481046 57.83901 
L 135.208172 57.83901 
L 135.208172 57.493308 
L 137.117161 57.493308 
L 137.117161 57.147606 
L 137.935299 57.147606 
L 137.935299 56.801904 
L 138.480724 56.801904 
L 138.480724 56.456202 
L 138.753437 56.456202 
L 138.753437 56.1105 
L 140.117 56.1105 
L 140.117 55.073394 
L 143.11684 55.073394 
L 143.11684 54.727692 
L 145.843966 54.727692 
L 145.843966 54.38199 
L 146.662104 54.38199 
L 146.662104 53.690586 
L 147.20753 53.690586 
L 147.20753 53.344884 
L 147.752955 53.344884 
L 147.752955 52.65348 
L 152.38907 52.65348 
L 152.38907 52.307778 
L 153.207208 52.307778 
L 153.207208 51.616373 
L 153.752634 51.616373 
L 153.752634 51.270671 
L 154.025346 51.270671 
L 154.025346 50.924969 
L 154.570772 50.924969 
L 154.570772 50.579267 
L 155.38891 50.579267 
L 155.38891 50.233565 
L 156.207048 50.233565 
L 156.207048 49.887863 
L 156.47976 49.887863 
L 156.47976 49.542161 
L 156.752473 49.542161 
L 156.752473 49.196459 
L 157.297898 49.196459 
L 157.297898 48.850757 
L 158.116036 48.850757 
L 158.116036 48.505055 
L 159.206887 48.505055 
L 159.206887 47.813651 
L 159.4796 47.813651 
L 159.4796 47.467949 
L 163.024864 47.467949 
L 163.024864 47.122247 
L 166.024704 47.122247 
L 166.024704 46.085141 
L 166.570129 46.085141 
L 166.570129 45.739439 
L 170.933532 45.739439 
L 170.933532 45.393737 
L 172.842521 45.393737 
L 172.842521 44.702333 
L 173.387946 44.702333 
L 173.387946 44.35663 
L 174.478797 44.35663 
L 174.478797 44.010928 
L 175.024222 44.010928 
L 175.024222 43.665226 
L 181.023901 43.665226 
L 181.023901 43.319524 
L 182.932889 43.319524 
L 182.932889 42.973822 
L 186.750867 42.973822 
L 186.750867 42.62812 
L 187.841717 42.62812 
L 187.841717 42.282418 
L 196.841235 42.282418 
L 196.841235 41.936716 
L 201.750063 41.936716 
L 201.750063 41.591014 
L 205.840753 41.591014 
L 205.840753 41.245312 
L 206.386179 41.245312 
L 206.386179 40.89961 
L 209.931444 40.89961 
L 209.931444 40.553908 
L 215.112984 40.553908 
L 215.112984 40.208206 
L 223.294364 40.208206 
L 223.294364 39.862504 
L 228.203192 39.862504 
L 228.203192 39.516802 
L 246.202228 39.516802 
L 246.202228 39.1711 
L 250.838344 39.1711 
L 250.838344 38.825398 
L 400.284886 38.825398 
L 400.284886 38.825398 
" clip-path="url(#p372fff510b)" style="fill: none; stroke: #1f77b4; stroke-width: 1.6; stroke-linecap: square"/>
   </g>
   <g id="line2d_26">
    <path d="M 60.757614 368.970852 
L 60.757614 345.219381 
L 60.948038 345.219381 
L 60.948038 328.593351 
L 61.138463 328.593351 
L 61.138463 323.051341 
L 61.519313 323.051341 
L 61.519313 312.759036 
L 61.709737 312.759036 
L 61.709737 309.592173 
L 61.900162 309.592173 
L 61.900162 308.008742 
L 62.090587 307.217026 
L 62.090587 306.425311 
L 62.281011 306.425311 
L 62.281011 292.966143 
L 62.471436 292.966143 
L 62.471436 289.79928 
L 62.661861 289.79928 
L 62.661861 289.007565 
L 62.852286 289.007565 
L 62.852286 284.25727 
L 63.04271 284.25727 
L 63.04271 278.71526 
L 63.233135 278.71526 
L 63.233135 277.131829 
L 63.42356 277.131829 
L 63.42356 270.798103 
L 64.185259 270.798103 
L 64.185259 263.672662 
L 64.756533 263.672662 
L 64.756533 251.796926 
L 64.946957 251.796926 
L 64.946957 248.630063 
L 65.518232 248.630063 
L 65.518232 245.4632 
L 65.899081 245.4632 
L 65.899081 244.671484 
L 66.089506 244.671484 
L 66.089506 242.296337 
L 66.27993 242.296337 
L 66.27993 239.92119 
L 66.470355 239.92119 
L 66.470355 237.546043 
L 66.851205 237.546043 
L 66.851205 235.962612 
L 67.041629 235.962612 
L 67.041629 233.587464 
L 67.232054 233.587464 
L 67.232054 228.83717 
L 67.612903 228.83717 
L 67.612903 228.045454 
L 67.803328 228.045454 
L 67.803328 227.253739 
L 67.993753 227.253739 
L 67.993753 225.670307 
L 68.374602 225.670307 
L 68.374602 224.878592 
L 68.565027 224.878592 
L 68.565027 223.29516 
L 68.945877 223.29516 
L 68.945877 221.711729 
L 69.136301 221.711729 
L 69.136301 217.75315 
L 69.517151 217.75315 
L 69.517151 216.961434 
L 70.27885 216.961434 
L 70.27885 216.169719 
L 70.469274 216.169719 
L 70.469274 213.794571 
L 70.659699 213.794571 
L 70.659699 210.627709 
L 70.850124 210.627709 
L 70.850124 206.66913 
L 71.421398 206.66913 
L 71.421398 205.085699 
L 71.611823 205.085699 
L 71.611823 202.710551 
L 71.802247 202.710551 
L 71.802247 200.335404 
L 72.183097 200.335404 
L 72.183097 199.543689 
L 73.325645 199.543689 
L 73.325645 198.751973 
L 73.706494 198.751973 
L 73.706494 194.793394 
L 73.896919 194.793394 
L 73.896919 194.001679 
L 74.087344 194.001679 
L 74.087344 193.209963 
L 74.277769 193.209963 
L 74.277769 190.834816 
L 74.468193 190.834816 
L 74.468193 190.0431 
L 75.039468 190.0431 
L 75.039468 189.251384 
L 75.229892 189.251384 
L 75.229892 187.667953 
L 75.610742 187.667953 
L 75.610742 186.876237 
L 76.372441 186.876237 
L 76.372441 185.292806 
L 77.134139 185.292806 
L 77.134139 183.709374 
L 77.324564 183.709374 
L 77.324564 182.125943 
L 77.514989 182.125943 
L 77.514989 181.334227 
L 78.086263 181.334227 
L 78.086263 177.375648 
L 78.847962 177.375648 
L 78.847962 176.583933 
L 79.038387 176.583933 
L 79.038387 175.000501 
L 79.419236 175.000501 
L 79.419236 173.41707 
L 79.99051 173.41707 
L 79.99051 172.625354 
L 80.180935 172.625354 
L 80.180935 169.458491 
L 81.323483 169.458491 
L 81.323483 167.87506 
L 82.656456 167.87506 
L 82.656456 167.083344 
L 83.22773 167.083344 
L 83.22773 166.291628 
L 83.60858 166.291628 
L 83.60858 164.708197 
L 83.989429 164.708197 
L 83.989429 163.916481 
L 84.179854 163.916481 
L 84.179854 162.33305 
L 84.560703 162.33305 
L 84.560703 161.541334 
L 84.751128 161.541334 
L 84.751128 160.749618 
L 85.131978 160.749618 
L 85.131978 158.374471 
L 85.703252 158.374471 
L 85.703252 157.582755 
L 85.893676 157.582755 
L 85.893676 155.999324 
L 86.084101 155.999324 
L 86.084101 154.415893 
L 86.655375 154.415893 
L 86.655375 153.624177 
L 86.8458 153.624177 
L 86.8458 152.040745 
L 87.417074 152.040745 
L 87.417074 151.24903 
L 87.988348 151.24903 
L 87.988348 150.457314 
L 88.178773 150.457314 
L 88.178773 149.665598 
L 88.369198 149.665598 
L 88.369198 148.082167 
L 88.559623 148.082167 
L 88.559623 147.290451 
L 88.940472 147.290451 
L 88.940472 146.498735 
L 89.892596 146.498735 
L 89.892596 144.915304 
L 90.08302 144.915304 
L 90.08302 144.123588 
L 91.796843 144.123588 
L 91.796843 143.331873 
L 92.558542 143.331873 
L 92.558542 142.540157 
L 93.129816 142.540157 
L 93.129816 141.748441 
L 93.32024 141.748441 
L 93.32024 140.956725 
L 94.272364 140.956725 
L 94.272364 140.16501 
L 94.462789 140.16501 
L 94.462789 138.581578 
L 94.843638 138.581578 
L 94.843638 136.206431 
L 95.034063 136.206431 
L 95.034063 135.414715 
L 95.414912 135.414715 
L 95.414912 132.247852 
L 95.605337 132.247852 
L 95.605337 131.456137 
L 95.986187 131.456137 
L 95.986187 130.664421 
L 98.461708 130.664421 
L 98.461708 129.872705 
L 98.842557 129.872705 
L 98.842557 129.08099 
L 99.032982 129.08099 
L 99.032982 128.289274 
L 99.794681 128.289274 
L 99.794681 127.497558 
L 101.318079 127.497558 
L 101.318079 126.705842 
L 101.698928 126.705842 
L 101.698928 125.914127 
L 101.889353 125.914127 
L 101.889353 124.330695 
L 102.460627 124.330695 
L 102.460627 121.163832 
L 102.841476 121.163832 
L 102.841476 120.372117 
L 104.174449 120.372117 
L 104.174449 119.580401 
L 104.364874 119.580401 
L 104.364874 118.788685 
L 105.697847 118.788685 
L 105.697847 117.205254 
L 105.888272 117.205254 
L 105.888272 116.413538 
L 106.459546 116.413538 
L 106.459546 115.621822 
L 106.840395 115.621822 
L 106.840395 113.246675 
L 107.41167 113.246675 
L 107.41167 112.45496 
L 107.792519 112.45496 
L 107.792519 111.663244 
L 108.363793 111.663244 
L 108.363793 110.871528 
L 108.554218 110.871528 
L 108.554218 108.496381 
L 108.744643 108.496381 
L 108.744643 106.91295 
L 108.935067 106.91295 
L 108.935067 106.121234 
L 109.506342 106.121234 
L 109.506342 105.329518 
L 109.696766 105.329518 
L 109.696766 104.537802 
L 111.791438 104.537802 
L 111.791438 103.746087 
L 113.505261 103.746087 
L 113.505261 102.954371 
L 113.695685 102.954371 
L 113.695685 102.162655 
L 114.076535 102.162655 
L 114.076535 101.370939 
L 114.457384 101.370939 
L 114.457384 99.787508 
L 114.838234 99.787508 
L 114.838234 98.204077 
L 116.171207 98.204077 
L 116.171207 97.412361 
L 116.932906 97.412361 
L 116.932906 96.620645 
L 118.456303 96.620645 
L 118.456303 95.828929 
L 118.646728 95.828929 
L 118.646728 95.037214 
L 118.837153 95.037214 
L 118.837153 94.245498 
L 119.408427 94.245498 
L 119.408427 93.453782 
L 119.789276 93.453782 
L 119.789276 92.662067 
L 120.36055 92.662067 
L 120.36055 91.870351 
L 120.7414 91.870351 
L 120.7414 91.078635 
L 124.169045 91.078635 
L 124.169045 90.286919 
L 124.35947 90.286919 
L 124.35947 89.495204 
L 124.549894 89.495204 
L 124.549894 88.703488 
L 124.740319 88.703488 
L 124.740319 87.911772 
L 127.406265 87.911772 
L 127.406265 86.328341 
L 127.59669 86.328341 
L 127.59669 85.536625 
L 128.929663 85.536625 
L 128.929663 84.744909 
L 131.405184 84.744909 
L 131.405184 83.953194 
L 131.786034 83.953194 
L 131.786034 83.161478 
L 132.928582 83.161478 
L 132.928582 82.369762 
L 133.690281 82.369762 
L 133.690281 81.578047 
L 135.404103 81.578047 
L 135.404103 80.786331 
L 138.070049 80.786331 
L 138.070049 79.994615 
L 139.593447 79.994615 
L 139.593447 79.202899 
L 139.974296 79.202899 
L 139.974296 78.411184 
L 140.355146 78.411184 
L 140.355146 76.827752 
L 143.021092 76.827752 
L 143.021092 76.036036 
L 146.448737 76.036036 
L 146.448737 75.244321 
L 148.162559 75.244321 
L 148.162559 74.452605 
L 149.876382 74.452605 
L 149.876382 73.660889 
L 150.447656 73.660889 
L 150.447656 72.869174 
L 152.351903 72.869174 
L 152.351903 72.077458 
L 152.542328 72.077458 
L 152.542328 71.285742 
L 154.637 71.285742 
L 154.637 70.494026 
L 156.350822 70.494026 
L 156.350822 69.702311 
L 157.112521 69.702311 
L 157.112521 68.910595 
L 157.493371 68.910595 
L 157.493371 68.118879 
L 158.064645 68.118879 
L 158.064645 67.327164 
L 158.826344 67.327164 
L 158.826344 66.535448 
L 159.207193 66.535448 
L 159.207193 65.743732 
L 160.349741 65.743732 
L 160.349741 64.952016 
L 161.49229 64.952016 
L 161.49229 64.160301 
L 164.919935 64.160301 
L 164.919935 63.368585 
L 165.491209 63.368585 
L 165.491209 61.785154 
L 165.872058 61.785154 
L 165.872058 60.993438 
L 166.252908 60.993438 
L 166.252908 60.201722 
L 167.014606 60.201722 
L 167.014606 59.410006 
L 167.205031 59.410006 
L 167.205031 58.618291 
L 168.157155 58.618291 
L 168.157155 57.826575 
L 170.823101 57.826575 
L 170.823101 57.034859 
L 174.060321 57.034859 
L 174.060321 56.243144 
L 180.725186 56.243144 
L 180.725186 54.659712 
L 181.486885 54.659712 
L 181.486885 53.867996 
L 184.91453 53.867996 
L 184.91453 53.076281 
L 186.437928 53.076281 
L 186.437928 52.284565 
L 189.675148 52.284565 
L 189.675148 51.492849 
L 194.626191 51.492849 
L 194.626191 50.701134 
L 195.578314 50.701134 
L 195.578314 49.909418 
L 205.09955 49.909418 
L 205.09955 49.117702 
L 205.4804 49.117702 
L 205.4804 47.534271 
L 222.809049 47.534271 
L 222.809049 46.742555 
L 226.617543 46.742555 
L 226.617543 45.950839 
L 227.760092 45.950839 
L 227.760092 45.159123 
L 241.089822 45.159123 
L 241.089822 43.575692 
L 245.85044 43.575692 
L 245.85044 42.783976 
L 248.135536 42.783976 
L 248.135536 41.992261 
L 250.420633 41.992261 
L 250.420633 41.200545 
L 258.037622 41.200545 
L 258.037622 40.408829 
L 269.463105 40.408829 
L 269.463105 39.617113 
L 289.4577 39.617113 
L 289.4577 38.825398 
L 400.284886 38.825398 
L 400.284886 38.825398 
" clip-path="url(#p372fff510b)" style="fill: none; stroke: #ff7f0e; stroke-width: 1.6; stroke-linecap: square"/>
   </g>
   <g id="line2d_27">
    <path d="M 60.757614 368.970852 
L 60.757614 363.761457 
L 60.958161 363.761457 
L 60.958161 359.85441 
L 61.158709 359.85441 
L 61.158709 359.203235 
L 61.359257 359.203235 
L 61.359257 347.482095 
L 61.559804 347.482095 
L 61.559804 344.877397 
L 61.760352 344.877397 
L 61.760352 339.016827 
L 61.9609 339.016827 
L 61.9609 327.946861 
L 62.161448 327.946861 
L 62.161448 320.132767 
L 62.361995 320.132767 
L 62.361995 318.179244 
L 62.562543 318.179244 
L 62.562543 315.574546 
L 62.763091 315.574546 
L 62.763091 307.760452 
L 62.963638 307.760452 
L 62.963638 298.64401 
L 63.164186 298.64401 
L 63.164186 290.178742 
L 63.364734 290.178742 
L 63.364734 286.922869 
L 63.565282 286.922869 
L 63.565282 282.364648 
L 63.966377 282.364648 
L 63.966377 281.713474 
L 64.166925 281.713474 
L 64.166925 278.457601 
L 64.367472 278.457601 
L 64.367472 268.03881 
L 64.56802 268.03881 
L 64.56802 267.387635 
L 64.768568 267.387635 
L 64.768568 260.875891 
L 64.969116 260.875891 
L 64.969116 259.573542 
L 65.169663 259.573542 
L 65.169663 249.805925 
L 65.370211 249.805925 
L 65.370211 248.503576 
L 65.771306 248.503576 
L 65.771306 245.247704 
L 65.971854 245.247704 
L 65.971854 244.596529 
L 66.172402 244.596529 
L 66.172402 241.991831 
L 66.37295 241.991831 
L 66.37295 239.387133 
L 66.573497 239.387133 
L 66.573497 236.782436 
L 66.774045 236.782436 
L 66.774045 234.177738 
L 66.974593 234.177738 
L 66.974593 230.270691 
L 67.375688 230.270691 
L 67.375688 226.363644 
L 67.576236 226.363644 
L 67.576236 223.758946 
L 67.776783 223.758946 
L 67.776783 220.503074 
L 67.977331 220.503074 
L 67.977331 215.944853 
L 68.177879 215.944853 
L 68.177879 213.991329 
L 68.378427 213.991329 
L 68.378427 207.479585 
L 68.578974 207.479585 
L 68.578974 206.82841 
L 68.779522 206.82841 
L 68.779522 204.874887 
L 68.98007 204.874887 
L 68.98007 204.223712 
L 69.180617 204.223712 
L 69.180617 203.572538 
L 69.381165 203.572538 
L 69.381165 202.921363 
L 69.581713 202.921363 
L 69.581713 200.96784 
L 69.982808 200.96784 
L 69.982808 197.711968 
L 70.183356 197.711968 
L 70.183356 195.758444 
L 70.784999 195.758444 
L 70.784999 191.200223 
L 70.985547 191.200223 
L 70.985547 190.549048 
L 71.186095 190.549048 
L 71.186095 189.897874 
L 71.58719 189.897874 
L 71.58719 189.2467 
L 71.787738 189.2467 
L 71.787738 187.293176 
L 71.988285 187.293176 
L 71.988285 186.642002 
L 72.389381 186.642002 
L 72.389381 180.781431 
L 72.589929 180.781431 
L 72.589929 179.479083 
L 73.191572 179.479083 
L 73.191572 177.525559 
L 73.592667 177.525559 
L 73.592667 176.874385 
L 73.793215 176.874385 
L 73.793215 173.618512 
L 74.19431 173.618512 
L 74.19431 172.967338 
L 74.595406 172.967338 
L 74.595406 169.060291 
L 74.795953 169.060291 
L 74.795953 167.757942 
L 74.996501 167.757942 
L 74.996501 167.106768 
L 75.197049 167.106768 
L 75.197049 166.455593 
L 75.397596 166.455593 
L 75.397596 154.734453 
L 75.798692 154.734453 
L 75.798692 152.129755 
L 75.99924 152.129755 
L 75.99924 150.827406 
L 76.400335 150.827406 
L 76.400335 150.176232 
L 76.80143 150.176232 
L 76.80143 147.571534 
L 77.202526 147.571534 
L 77.202526 144.315661 
L 77.403074 144.315661 
L 77.403074 143.664487 
L 78.405812 143.664487 
L 78.405812 141.710963 
L 78.60636 141.710963 
L 78.60636 141.059789 
L 78.806908 141.059789 
L 78.806908 140.408615 
L 79.007455 140.408615 
L 79.007455 139.75744 
L 79.208003 139.75744 
L 79.208003 138.455091 
L 79.408551 138.455091 
L 79.408551 137.803917 
L 79.609098 137.803917 
L 79.609098 137.152742 
L 80.010194 137.152742 
L 80.010194 136.501568 
L 80.411289 136.501568 
L 80.411289 130.640998 
L 81.012932 130.640998 
L 81.012932 128.0363 
L 81.21348 128.0363 
L 81.21348 127.385125 
L 81.414028 127.385125 
L 81.414028 126.082776 
L 81.815123 126.082776 
L 81.815123 124.780427 
L 82.015671 124.780427 
L 82.015671 124.129253 
L 82.416766 124.129253 
L 82.416766 123.478078 
L 82.617314 123.478078 
L 82.617314 122.826904 
L 83.218957 122.826904 
L 83.218957 122.175729 
L 83.419505 122.175729 
L 83.419505 120.873381 
L 83.620053 120.873381 
L 83.620053 118.268683 
L 84.221696 118.268683 
L 84.221696 117.617508 
L 85.023887 117.617508 
L 85.023887 115.663985 
L 85.224434 115.663985 
L 85.224434 114.361636 
L 85.424982 114.361636 
L 85.424982 113.710461 
L 85.826077 113.710461 
L 85.826077 112.408112 
L 86.026625 112.408112 
L 86.026625 111.105764 
L 86.227173 111.105764 
L 86.227173 109.803415 
L 87.631007 109.803415 
L 87.631007 107.849891 
L 88.23265 107.849891 
L 88.23265 106.547542 
L 88.834293 106.547542 
L 88.834293 105.896368 
L 89.435936 105.896368 
L 89.435936 105.245193 
L 89.837032 105.245193 
L 89.837032 103.942844 
L 90.238127 103.942844 
L 90.238127 103.29167 
L 90.438675 103.29167 
L 90.438675 101.989321 
L 90.639222 101.989321 
L 90.639222 101.338147 
L 91.441413 101.338147 
L 91.441413 100.686972 
L 91.842509 100.686972 
L 91.842509 100.035798 
L 92.845247 100.035798 
L 92.845247 98.733449 
L 93.44689 98.733449 
L 93.44689 98.082274 
L 95.051272 98.082274 
L 95.051272 97.4311 
L 96.254558 97.4311 
L 96.254558 96.779925 
L 96.455106 96.779925 
L 96.455106 96.128751 
L 97.056749 96.128751 
L 97.056749 95.477576 
L 97.257297 95.477576 
L 97.257297 94.826402 
L 97.457845 94.826402 
L 97.457845 94.175227 
L 98.861679 94.175227 
L 98.861679 93.524053 
L 99.262774 93.524053 
L 99.262774 92.872878 
L 99.463322 92.872878 
L 99.463322 92.221704 
L 99.663869 92.221704 
L 99.663869 91.57053 
L 101.268251 91.57053 
L 101.268251 90.919355 
L 101.669346 90.919355 
L 101.669346 90.268181 
L 101.869894 90.268181 
L 101.869894 89.617006 
L 102.070442 89.617006 
L 102.070442 88.965832 
L 102.27099 88.965832 
L 102.27099 88.314657 
L 102.672085 88.314657 
L 102.672085 87.663483 
L 102.872633 87.663483 
L 102.872633 86.361134 
L 103.07318 86.361134 
L 103.07318 85.709959 
L 104.477014 85.709959 
L 104.477014 85.058785 
L 106.482491 85.058785 
L 106.482491 84.40761 
L 107.084135 84.40761 
L 107.084135 83.756436 
L 107.886325 83.756436 
L 107.886325 83.105261 
L 110.693993 83.105261 
L 110.693993 82.454087 
L 112.298375 82.454087 
L 112.298375 81.802913 
L 113.702209 81.802913 
L 113.702209 81.151738 
L 114.103304 81.151738 
L 114.103304 80.500564 
L 114.905495 80.500564 
L 114.905495 79.849389 
L 116.309329 79.849389 
L 116.309329 79.198215 
L 119.317545 79.198215 
L 119.317545 78.54704 
L 121.122474 78.54704 
L 121.122474 77.895866 
L 121.924665 77.895866 
L 121.924665 77.244691 
L 122.526308 77.244691 
L 122.526308 76.593517 
L 123.328499 76.593517 
L 123.328499 75.942342 
L 123.529047 75.942342 
L 123.529047 75.291168 
L 125.735072 75.291168 
L 125.735072 74.639993 
L 126.73781 74.639993 
L 126.73781 73.988819 
L 128.54274 73.988819 
L 128.54274 73.337644 
L 129.144383 73.337644 
L 129.144383 71.384121 
L 129.545478 71.384121 
L 129.545478 70.732947 
L 131.751503 70.732947 
L 131.751503 70.081772 
L 131.952051 70.081772 
L 131.952051 69.430598 
L 134.158075 69.430598 
L 134.158075 68.779423 
L 135.762457 68.779423 
L 135.762457 68.128249 
L 136.163553 68.128249 
L 136.163553 67.477074 
L 138.570125 67.477074 
L 138.570125 66.8259 
L 139.171768 66.8259 
L 139.171768 65.523551 
L 140.77615 65.523551 
L 140.77615 64.872376 
L 142.179984 64.872376 
L 142.179984 64.221202 
L 144.185461 64.221202 
L 144.185461 63.570027 
L 144.787104 63.570027 
L 144.787104 62.918853 
L 149.199154 62.918853 
L 149.199154 62.267679 
L 150.803535 62.267679 
L 150.803535 61.616504 
L 151.004083 61.616504 
L 151.004083 60.96533 
L 153.00956 60.96533 
L 153.00956 60.314155 
L 155.416133 60.314155 
L 155.416133 59.662981 
L 158.424348 59.662981 
L 158.424348 59.011806 
L 160.830921 59.011806 
L 160.830921 57.709457 
L 161.232016 57.709457 
L 161.232016 57.058283 
L 168.050638 57.058283 
L 168.050638 56.407108 
L 170.657759 56.407108 
L 170.657759 55.755934 
L 170.858306 55.755934 
L 170.858306 55.104759 
L 176.67419 55.104759 
L 176.67419 54.453585 
L 180.284049 54.453585 
L 180.284049 53.80241 
L 181.08624 53.80241 
L 181.08624 53.151236 
L 183.492812 53.151236 
L 183.492812 52.500062 
L 189.308696 52.500062 
L 189.308696 51.848887 
L 193.520198 51.848887 
L 193.520198 51.197713 
L 195.726222 51.197713 
L 195.726222 50.546538 
L 197.932247 50.546538 
L 197.932247 49.895364 
L 199.336081 49.895364 
L 199.336081 49.244189 
L 206.555799 49.244189 
L 206.555799 48.593015 
L 212.772778 48.593015 
L 212.772778 47.94184 
L 217.385375 47.94184 
L 217.385375 47.290666 
L 222.399068 47.290666 
L 222.399068 46.639491 
L 227.613308 46.639491 
L 227.613308 45.988317 
L 230.822072 45.988317 
L 230.822072 45.337142 
L 239.245075 45.337142 
L 239.245075 44.685968 
L 241.050005 44.685968 
L 241.050005 44.034793 
L 243.456577 44.034793 
L 243.456577 43.383619 
L 244.860411 43.383619 
L 244.860411 42.732445 
L 252.280677 42.732445 
L 252.280677 42.08127 
L 266.720112 42.08127 
L 266.720112 41.430096 
L 269.52778 41.430096 
L 269.52778 40.778921 
L 270.129423 40.778921 
L 270.129423 40.127747 
L 278.552427 40.127747 
L 278.552427 39.476572 
L 287.376526 39.476572 
L 287.376526 38.825398 
L 400.284886 38.825398 
L 400.284886 38.825398 
" clip-path="url(#p372fff510b)" style="fill: none; stroke: #2ca02c; stroke-width: 1.6; stroke-linecap: square"/>
   </g>
   <g id="line2d_28">
    <path d="M 60.757614 368.970852 
L 60.757614 359.006704 
L 60.956984 359.006704 
L 60.956984 349.042555 
L 61.156354 349.042555 
L 61.156354 332.435641 
L 61.355724 332.435641 
L 61.355724 327.121428 
L 61.555094 327.121428 
L 61.555094 326.457152 
L 61.754464 326.457152 
L 61.754464 303.871749 
L 61.953834 303.871749 
L 61.953834 295.90043 
L 62.153204 295.90043 
L 62.153204 290.586217 
L 62.352574 290.586217 
L 62.352574 281.286345 
L 62.551944 281.286345 
L 62.551944 276.636409 
L 62.751315 276.636409 
L 62.751315 260.693772 
L 62.950685 260.693772 
L 62.950685 255.379559 
L 63.150055 255.379559 
L 63.150055 254.051006 
L 63.548795 254.051006 
L 63.548795 252.058176 
L 63.748165 252.058176 
L 63.748165 234.122709 
L 63.947535 234.122709 
L 63.947535 233.458432 
L 64.146905 233.458432 
L 64.146905 232.794156 
L 64.346275 232.794156 
L 64.346275 232.129879 
L 64.745016 232.129879 
L 64.745016 229.472773 
L 64.944386 228.808496 
L 64.944386 227.479943 
L 65.143756 227.479943 
L 65.143756 226.815667 
L 65.343126 226.815667 
L 65.343126 223.494284 
L 65.542496 223.494284 
L 65.542496 222.165731 
L 65.741866 222.165731 
L 65.741866 220.172901 
L 66.140606 220.172901 
L 66.140606 212.201582 
L 66.339976 212.201582 
L 66.339976 209.544476 
L 67.137457 209.544476 
L 67.137457 208.880199 
L 67.336827 208.880199 
L 67.336827 204.230263 
L 67.536197 204.230263 
L 67.536197 202.90171 
L 67.735567 202.90171 
L 67.735567 201.573157 
L 68.333677 201.573157 
L 68.333677 199.580327 
L 68.533047 199.580327 
L 68.533047 196.258944 
L 69.330528 196.258944 
L 69.330528 194.266115 
L 69.529898 194.266115 
L 69.529898 191.609008 
L 69.729268 191.609008 
L 69.729268 189.616179 
L 69.928638 189.616179 
L 69.928638 185.630519 
L 70.128008 185.630519 
L 70.128008 183.63769 
L 70.327378 183.63769 
L 70.327378 179.65203 
L 70.726118 179.65203 
L 70.726118 177.659201 
L 71.124859 177.659201 
L 71.124859 176.330647 
L 71.324229 176.330647 
L 71.324229 174.337818 
L 71.523599 174.337818 
L 71.523599 173.673541 
L 71.722969 173.673541 
L 71.722969 171.680711 
L 71.922339 171.680711 
L 71.922339 170.352158 
L 72.121709 170.352158 
L 72.121709 169.687882 
L 72.719819 169.687882 
L 72.719819 164.373669 
L 73.11856 164.373669 
L 73.11856 162.380839 
L 74.11541 162.380839 
L 74.11541 161.052286 
L 74.71352 161.052286 
L 74.71352 160.38801 
L 75.311631 160.38801 
L 75.311631 159.723733 
L 75.511001 159.723733 
L 75.511001 159.059457 
L 75.710371 159.059457 
L 75.710371 158.39518 
L 75.909741 158.39518 
L 75.909741 157.066627 
L 76.109111 157.066627 
L 76.109111 155.738074 
L 76.507851 155.738074 
L 76.507851 153.080968 
L 76.906591 153.080968 
L 76.906591 151.088138 
L 77.105961 151.088138 
L 77.105961 149.095308 
L 77.903442 149.095308 
L 77.903442 147.102478 
L 78.102812 147.102478 
L 78.102812 144.445372 
L 78.501552 144.445372 
L 78.501552 143.781096 
L 78.700922 143.781096 
L 78.700922 142.452542 
L 79.299033 142.452542 
L 79.299033 140.459713 
L 80.495253 140.459713 
L 80.495253 139.795436 
L 80.893993 139.795436 
L 80.893993 139.13116 
L 81.292733 139.13116 
L 81.292733 136.474053 
L 81.492104 136.474053 
L 81.492104 135.809777 
L 81.691474 135.809777 
L 81.691474 134.481224 
L 81.890844 134.481224 
L 81.890844 133.816947 
L 82.887694 133.816947 
L 82.887694 133.15267 
L 83.087064 133.15267 
L 83.087064 132.488394 
L 83.286434 132.488394 
L 83.286434 129.831288 
L 83.884545 129.831288 
L 83.884545 129.167011 
L 84.083915 129.167011 
L 84.083915 128.502734 
L 84.283285 128.502734 
L 84.283285 126.509905 
L 84.881395 126.509905 
L 84.881395 125.181352 
L 85.678876 125.181352 
L 85.678876 124.517075 
L 85.878246 124.517075 
L 85.878246 123.188522 
L 86.875096 123.188522 
L 86.875096 122.524245 
L 87.273836 122.524245 
L 87.273836 121.859969 
L 88.669427 121.859969 
L 88.669427 121.195692 
L 88.868797 121.195692 
L 88.868797 119.867139 
L 90.264388 119.867139 
L 90.264388 119.202863 
L 90.463758 119.202863 
L 90.463758 118.538586 
L 90.663128 118.538586 
L 90.663128 117.874309 
L 90.862498 117.874309 
L 90.862498 116.545756 
L 91.460608 116.545756 
L 91.460608 115.88148 
L 91.659978 115.88148 
L 91.659978 115.217203 
L 92.058719 115.217203 
L 92.058719 114.552927 
L 93.653679 114.552927 
L 93.653679 113.88865 
L 94.45116 113.88865 
L 94.45116 113.224373 
L 95.84675 113.224373 
L 95.84675 109.902991 
L 96.046121 109.902991 
L 96.046121 109.238714 
L 96.644231 109.238714 
L 96.644231 108.574437 
L 97.242341 108.574437 
L 97.242341 107.910161 
L 97.441711 107.910161 
L 97.441711 107.245884 
L 99.435412 107.245884 
L 99.435412 106.581608 
L 101.229743 106.581608 
L 101.229743 104.588778 
L 103.024074 104.588778 
L 103.024074 103.260225 
L 103.821554 103.260225 
L 103.821554 102.595948 
L 104.220294 102.595948 
L 104.220294 101.931672 
L 105.416515 101.931672 
L 105.416515 101.267395 
L 105.615885 101.267395 
L 105.615885 100.603119 
L 106.014625 100.603119 
L 106.014625 99.938842 
L 106.612736 99.938842 
L 106.612736 97.946012 
L 109.204547 97.946012 
L 109.204547 97.281736 
L 110.600138 97.281736 
L 110.600138 96.617459 
L 112.593838 96.617459 
L 112.593838 95.953183 
L 113.391319 95.953183 
L 113.391319 95.288906 
L 114.78691 95.288906 
L 114.78691 94.624629 
L 116.1825 94.624629 
L 116.1825 93.960353 
L 116.38187 93.960353 
L 116.38187 93.296076 
L 116.979981 93.296076 
L 116.979981 92.6318 
L 117.378721 92.6318 
L 117.378721 91.967523 
L 117.578091 91.967523 
L 117.578091 91.303247 
L 117.777461 91.303247 
L 117.777461 90.63897 
L 119.571792 90.63897 
L 119.571792 89.974694 
L 120.768012 89.974694 
L 120.768012 89.310417 
L 122.362973 89.310417 
L 122.362973 87.981864 
L 122.562343 87.981864 
L 122.562343 87.317587 
L 124.356674 87.317587 
L 124.356674 85.989034 
L 125.552895 85.989034 
L 125.552895 85.324758 
L 126.151005 85.324758 
L 126.151005 84.660481 
L 128.344076 84.660481 
L 128.344076 83.996204 
L 130.736517 83.996204 
L 130.736517 83.331928 
L 131.533998 83.331928 
L 131.533998 82.667651 
L 132.132108 82.667651 
L 132.132108 82.003375 
L 136.91699 82.003375 
L 136.91699 81.339098 
L 137.31573 81.339098 
L 137.31573 80.674822 
L 138.113211 80.674822 
L 138.113211 80.010545 
L 140.505652 80.010545 
L 140.505652 79.346268 
L 141.701872 79.346268 
L 141.701872 78.681992 
L 144.293684 78.681992 
L 144.293684 78.017715 
L 144.692424 78.017715 
L 144.692424 76.689162 
L 145.489904 76.689162 
L 145.489904 76.024886 
L 146.686125 76.024886 
L 146.686125 75.360609 
L 147.682975 75.360609 
L 147.682975 74.696332 
L 148.081715 74.696332 
L 148.081715 74.032056 
L 148.679826 74.032056 
L 148.679826 73.367779 
L 150.872897 73.367779 
L 150.872897 72.703503 
L 151.869747 72.703503 
L 151.869747 72.039226 
L 152.268487 72.039226 
L 152.268487 71.37495 
L 155.857149 71.37495 
L 155.857149 70.710673 
L 156.056519 70.710673 
L 156.056519 69.38212 
L 158.05022 69.38212 
L 158.05022 68.717843 
L 160.043921 68.717843 
L 160.043921 68.053567 
L 162.236992 68.053567 
L 162.236992 67.38929 
L 162.436362 67.38929 
L 162.436362 66.725014 
L 163.831953 66.725014 
L 163.831953 66.060737 
L 167.619985 66.060737 
L 167.619985 65.39646 
L 168.018725 65.39646 
L 168.018725 64.732184 
L 169.414316 64.732184 
L 169.414316 64.067907 
L 170.809906 64.067907 
L 170.809906 63.403631 
L 172.404867 63.403631 
L 172.404867 62.739354 
L 183.968333 62.739354 
L 183.968333 62.075078 
L 187.158254 62.075078 
L 187.158254 61.410801 
L 190.746916 61.410801 
L 190.746916 60.746524 
L 193.936837 60.746524 
L 193.936837 60.082248 
L 198.32298 60.082248 
L 198.32298 59.417971 
L 198.52235 59.417971 
L 198.52235 58.753695 
L 203.705972 58.753695 
L 203.705972 58.089418 
L 211.481406 58.089418 
L 211.481406 57.425142 
L 214.671327 57.425142 
L 214.671327 56.760865 
L 215.269438 56.760865 
L 215.269438 56.096589 
L 221.250541 56.096589 
L 221.250541 55.432312 
L 225.636683 55.432312 
L 225.636683 54.768035 
L 226.035423 54.768035 
L 226.035423 54.103759 
L 233.013376 54.103759 
L 233.013376 53.439482 
L 236.003928 53.439482 
L 236.003928 52.775206 
L 236.203298 52.775206 
L 236.203298 52.110929 
L 246.171803 52.110929 
L 246.171803 51.446653 
L 253.149756 51.446653 
L 253.149756 50.782376 
L 255.342827 50.782376 
L 255.342827 50.118099 
L 258.333378 50.118099 
L 258.333378 49.453823 
L 260.127709 49.453823 
L 260.127709 48.789546 
L 260.725819 48.789546 
L 260.725819 48.12527 
L 263.915741 48.12527 
L 263.915741 47.460993 
L 270.295584 47.460993 
L 270.295584 46.796717 
L 277.273537 46.796717 
L 277.273537 46.13244 
L 295.615586 46.13244 
L 295.615586 45.468163 
L 313.359525 45.468163 
L 313.359525 44.803887 
L 316.350076 44.803887 
L 316.350076 43.475334 
L 316.549446 43.475334 
L 316.549446 42.811057 
L 324.32488 42.811057 
L 324.32488 42.146781 
L 331.900944 42.146781 
L 331.900944 41.482504 
L 338.081417 41.482504 
L 338.081417 40.818227 
L 347.451811 40.818227 
L 347.451811 40.153951 
L 379.949137 40.153951 
L 379.949137 39.489674 
L 390.515752 39.489674 
L 390.515752 38.825398 
L 400.284886 38.825398 
L 400.284886 38.825398 
" clip-path="url(#p372fff510b)" style="fill: none; stroke: #d62728; stroke-width: 1.6; stroke-linecap: square"/>
   </g>
   <g id="line2d_29">
    <path d="M 60.757614 368.970852 
L 60.757614 328.998084 
L 60.929352 328.998084 
L 60.929352 324.556666 
L 61.101091 324.556666 
L 61.101091 320.115247 
L 61.27283 320.115247 
L 61.27283 315.673828 
L 61.444568 315.673828 
L 61.444568 311.23241 
L 61.959784 311.23241 
L 61.959784 306.790991 
L 62.131523 306.790991 
L 62.131523 305.310518 
L 62.303261 305.310518 
L 62.303261 303.830045 
L 62.475 303.830045 
L 62.475 302.349572 
L 62.646739 302.349572 
L 62.646739 300.869099 
L 63.333693 300.869099 
L 63.333693 299.388626 
L 63.505432 299.388626 
L 63.505432 296.427681 
L 63.67717 296.427681 
L 63.67717 293.466735 
L 63.848909 293.466735 
L 63.848909 291.986262 
L 64.020648 291.986262 
L 64.020648 290.505789 
L 64.364125 290.505789 
L 64.364125 283.103425 
L 64.707602 283.103425 
L 64.707602 281.622952 
L 65.051079 281.622952 
L 65.051079 278.662006 
L 65.222818 278.662006 
L 65.222818 275.70106 
L 65.566295 275.70106 
L 65.566295 268.298696 
L 65.909773 268.298696 
L 65.909773 266.818223 
L 66.081511 266.818223 
L 66.081511 263.857277 
L 66.424988 263.857277 
L 66.424988 257.935385 
L 66.596727 257.935385 
L 66.596727 256.454913 
L 66.768466 256.454913 
L 66.768466 252.013494 
L 66.940204 252.013494 
L 66.940204 250.533021 
L 67.111943 250.533021 
L 67.111943 249.052548 
L 67.283682 249.052548 
L 67.283682 244.611129 
L 67.45542 244.611129 
L 67.45542 243.130657 
L 67.798897 243.130657 
L 67.798897 241.650184 
L 67.970636 241.650184 
L 67.970636 238.689238 
L 68.142375 238.689238 
L 68.142375 234.247819 
L 68.485852 234.247819 
L 68.485852 232.767346 
L 68.657591 232.767346 
L 68.657591 226.845455 
L 69.001068 226.845455 
L 69.001068 223.884509 
L 69.172807 223.884509 
L 69.172807 219.44309 
L 69.516284 219.44309 
L 69.516284 215.001672 
L 70.203238 215.001672 
L 70.203238 212.040726 
L 70.374977 212.040726 
L 70.374977 210.560253 
L 70.546716 210.560253 
L 70.546716 207.599307 
L 71.061931 207.599307 
L 71.061931 200.196943 
L 73.122795 200.196943 
L 73.122795 197.235997 
L 73.294534 197.235997 
L 73.294534 195.755524 
L 73.80975 195.755524 
L 73.80975 194.275051 
L 74.153227 194.275051 
L 74.153227 185.392214 
L 74.496704 185.392214 
L 74.496704 183.911741 
L 74.668443 183.911741 
L 74.668443 179.470322 
L 75.183659 179.470322 
L 75.183659 177.989849 
L 75.870613 177.989849 
L 75.870613 176.509377 
L 76.901045 176.509377 
L 76.901045 172.067958 
L 77.072784 172.067958 
L 77.072784 169.107012 
L 77.931477 169.107012 
L 77.931477 167.626539 
L 81.194511 167.626539 
L 81.194511 166.146066 
L 81.366249 166.146066 
L 81.366249 161.704648 
L 81.709727 161.704648 
L 81.709727 160.224175 
L 82.224942 160.224175 
L 82.224942 158.743702 
L 82.56842 158.743702 
L 82.56842 157.263229 
L 82.911897 157.263229 
L 82.911897 155.782756 
L 85.144499 155.782756 
L 85.144499 151.341337 
L 85.487976 151.341337 
L 85.487976 148.380392 
L 86.174931 148.380392 
L 86.174931 145.419446 
L 86.518408 145.419446 
L 86.518408 143.938973 
L 86.690147 143.938973 
L 86.690147 142.4585 
L 86.861885 142.4585 
L 86.861885 140.978027 
L 87.033624 140.978027 
L 87.033624 139.497554 
L 88.064056 139.497554 
L 88.064056 138.017081 
L 88.407533 138.017081 
L 88.407533 133.575663 
L 92.014044 133.575663 
L 92.014044 130.614717 
L 92.52926 130.614717 
L 92.52926 129.134244 
L 93.044476 129.134244 
L 93.044476 127.653771 
L 93.731431 127.653771 
L 93.731431 126.173298 
L 94.418385 126.173298 
L 94.418385 124.692825 
L 95.792294 124.692825 
L 95.792294 123.212352 
L 96.30751 123.212352 
L 96.30751 121.73188 
L 97.681419 121.73188 
L 97.681419 120.251407 
L 98.196635 120.251407 
L 98.196635 118.770934 
L 99.398806 118.770934 
L 99.398806 115.809988 
L 101.116192 115.809988 
L 101.116192 112.849042 
L 102.318362 112.849042 
L 102.318362 111.368569 
L 105.409658 111.368569 
L 105.409658 109.888096 
L 105.581396 109.888096 
L 105.581396 108.407624 
L 106.096612 108.407624 
L 106.096612 106.927151 
L 106.955305 106.927151 
L 106.955305 105.446678 
L 107.470521 105.446678 
L 107.470521 103.966205 
L 109.359646 103.966205 
L 109.359646 102.485732 
L 109.531385 102.485732 
L 109.531385 101.005259 
L 113.137896 101.005259 
L 113.137896 99.524786 
L 113.309635 99.524786 
L 113.309635 96.56384 
L 116.744407 96.56384 
L 116.744407 95.083368 
L 117.6031 95.083368 
L 117.6031 93.602895 
L 117.946578 93.602895 
L 117.946578 92.122422 
L 120.866134 92.122422 
L 120.866134 90.641949 
L 122.068305 90.641949 
L 122.068305 89.161476 
L 122.240043 89.161476 
L 122.240043 87.681003 
L 123.613952 87.681003 
L 123.613952 86.20053 
L 125.846555 86.20053 
L 125.846555 84.720057 
L 126.190032 84.720057 
L 126.190032 83.239584 
L 126.533509 83.239584 
L 126.533509 81.759112 
L 129.109589 81.759112 
L 129.109589 80.278639 
L 141.646509 80.278639 
L 141.646509 78.798166 
L 141.818247 78.798166 
L 141.818247 77.317693 
L 150.23344 77.317693 
L 150.23344 75.83722 
L 157.102985 75.83722 
L 157.102985 74.356747 
L 165.002962 74.356747 
L 165.002962 72.876274 
L 167.063826 72.876274 
L 167.063826 71.395801 
L 167.235565 71.395801 
L 167.235565 69.915328 
L 168.952951 69.915328 
L 168.952951 68.434856 
L 172.387724 68.434856 
L 172.387724 66.954383 
L 173.074678 66.954383 
L 173.074678 65.47391 
L 182.520303 65.47391 
L 182.520303 63.993437 
L 183.378996 63.993437 
L 183.378996 62.512964 
L 191.965927 62.512964 
L 191.965927 61.032491 
L 198.663734 61.032491 
L 198.663734 59.552018 
L 202.098507 59.552018 
L 202.098507 58.071545 
L 202.441984 58.071545 
L 202.441984 56.591072 
L 207.765881 56.591072 
L 207.765881 55.1106 
L 211.372393 55.1106 
L 211.372393 53.630127 
L 213.089779 53.630127 
L 213.089779 52.149654 
L 217.039767 52.149654 
L 217.039767 50.669181 
L 222.020188 50.669181 
L 222.020188 49.188708 
L 246.750551 49.188708 
L 246.750551 47.708235 
L 250.700539 47.708235 
L 250.700539 46.227762 
L 298.27214 46.227762 
L 298.27214 44.747289 
L 300.333003 44.747289 
L 300.333003 43.266816 
L 302.737344 43.266816 
L 302.737344 41.786344 
L 319.911207 41.786344 
L 319.911207 40.305871 
L 344.126354 40.305871 
L 344.126354 38.825398 
L 400.284886 38.825398 
L 400.284886 38.825398 
" clip-path="url(#p372fff510b)" style="fill: none; stroke: #9467bd; stroke-width: 1.6; stroke-linecap: square"/>
   </g>
   <g id="line2d_30">
    <path d="M 60.757614 368.970852 
L 400.284886 38.825398 
" clip-path="url(#p372fff510b)" style="fill: none; stroke-dasharray: 3.7,1.6; stroke-dashoffset: 0; stroke: #808080"/>
   </g>
   <g id="patch_3">
    <path d="M 43.78125 385.478125 
L 43.78125 22.318125 
" style="fill: none; stroke: #000000; stroke-width: 0.8; stroke-linejoin: miter; stroke-linecap: square"/>
   </g>
   <g id="patch_4">
    <path d="M 417.26125 385.478125 
L 417.26125 22.318125 
" style="fill: none; stroke: #000000; stroke-width: 0.8; stroke-linejoin: miter; stroke-linecap: square"/>
   </g>
   <g id="patch_5">
    <path d="M 43.78125 385.478125 
L 417.26125 385.478125 
" style="fill: none; stroke: #000000; stroke-width: 0.8; stroke-linejoin: miter; stroke-linecap: square"/>
   </g>
   <g id="patch_6">
    <path d="M 43.78125 22.318125 
L 417.26125 22.318125 
" style="fill: none; stroke: #000000; stroke-width: 0.8; stroke-linejoin: miter; stroke-linecap: square"/>
   </g>
   <g id="text_15">
    <!-- ROC — baseline -->
    <g transform="translate(182.494062 16.318125) scale(0.12 -0.12)">
     <defs>
      <path id="DejaVuSans-4f" d="M 2522 4238 
Q 1834 4238 1429 3725 
Q 1025 3213 1025 2328 
Q 1025 1447 1429 934 
Q 1834 422 2522 422 
Q 3209 422 3611 934 
Q 4013 1447 4013 2328 
Q 4013 3213 3611 3725 
Q 3209 4238 2522 4238 
z
M 2522 4750 
Q 3503 4750 4090 4092 
Q 4678 3434 4678 2328 
Q 4678 1225 4090 567 
Q 3503 -91 2522 -91 
Q 1538 -91 948 565 
Q 359 1222 359 2328 
Q 359 3434 948 4092 
Q 1538 4750 2522 4750 
z
" transform="scale(0.015625)"/>
      <path id="DejaVuSans-43" d="M 4122 4306 
L 4122 3641 
Q 3803 3938 3442 4084 
Q 3081 4231 2675 4231 
Q 1875 4231 1450 3742 
Q 1025 3253 1025 2328 
Q 1025 1406 1450 917 
Q 1875 428 2675 428 
Q 3081 428 3442 575 
Q 3803 722 4122 1019 
L 4122 359 
Q 3791 134 3420 21 
Q 3050 -91 2638 -91 
Q 1578 -91 968 557 
Q 359 1206 359 2328 
Q 359 3453 968 4101 
Q 1578 4750 2638 4750 
Q 3056 4750 3426 4639 
Q 3797 4528 4122 4306 
z
" transform="scale(0.015625)"/>
      <path id="DejaVuSans-2014" d="M 313 1978 
L 6088 1978 
L 6088 1528 
L 313 1528 
L 313 1978 
z
" transform="scale(0.015625)"/>
      <path id="DejaVuSans-62" d="M 3116 1747 
Q 3116 2381 2855 2742 
Q 2594 3103 2138 3103 
Q 1681 3103 1420 2742 
Q 1159 2381 1159 1747 
Q 1159 1113 1420 752 
Q 1681 391 2138 391 
Q 2594 391 2855 752 
Q 3116 1113 3116 1747 
z
M 1159 2969 
Q 1341 3281 1617 3432 
Q 1894 3584 2278 3584 
Q 2916 3584 3314 3078 
Q 3713 2572 3713 1747 
Q 3713 922 3314 415 
Q 2916 -91 2278 -91 
Q 1894 -91 1617 61 
Q 1341 213 1159 525 
L 1159 0 
L 581 0 
L 581 4863 
L 1159 4863 
L 1159 2969 
z
" transform="scale(0.015625)"/>
      <path id="DejaVuSans-61" d="M 2194 1759 
Q 1497 1759 1228 1600 
Q 959 1441 959 1056 
Q 959 750 1161 570 
Q 1363 391 1709 391 
Q 2188 391 2477 730 
Q 2766 1069 2766 1631 
L 2766 1759 
L 2194 1759 
z
M 3341 1997 
L 3341 0 
L 2766 0 
L 2766 531 
Q 2569 213 2275 61 
Q 1981 -91 1556 -91 
Q 1019 -91 701 211 
Q 384 513 384 1019 
Q 384 1609 779 1909 
Q 1175 2209 1959 2209 
L 2766 2209 
L 2766 2266 
Q 2766 2663 2505 2880 
Q 2244 3097 1772 3097 
Q 1472 3097 1187 3025 
Q 903 2953 641 2809 
L 641 3341 
Q 956 3463 1253 3523 
Q 1550 3584 1831 3584 
Q 2591 3584 2966 3190 
Q 3341 2797 3341 1997 
z
" transform="scale(0.015625)"/>
      <path id="DejaVuSans-6c" d="M 603 4863 
L 1178 4863 
L 1178 0 
L 603 0 
L 603 4863 
z
" transform="scale(0.015625)"/>
     </defs>
     <use xlink:href="#DejaVuSans-52"/>
     <use xlink:href="#DejaVuSans-4f" transform="translate(69.482422 0)"/>
     <use xlink:href="#DejaVuSans-43" transform="translate(148.193359 0)"/>
     <use xlink:href="#DejaVuSans-20" transform="translate(218.017578 0)"/>
     <use xlink:href="#DejaVuSans-2014" transform="translate(249.804688 0)"/>
     <use xlink:href="#DejaVuSans-20" transform="translate(349.804688 0)"/>
     <use xlink:href="#DejaVuSans-62" transform="translate(381.591797 0)"/>
     <use xlink:href="#DejaVuSans-61" transform="translate(445.068359 0)"/>
     <use xlink:href="#DejaVuSans-73" transform="translate(506.347656 0)"/>
     <use xlink:href="#DejaVuSans-65" transform="translate(558.447266 0)"/>
     <use xlink:href="#DejaVuSans-6c" transform="translate(619.970703 0)"/>
     <use xlink:href="#DejaVuSans-69" transform="translate(647.753906 0)"/>
     <use xlink:href="#DejaVuSans-6e" transform="translate(675.537109 0)"/>
     <use xlink:href="#DejaVuSans-65" transform="translate(738.916016 0)"/>
    </g>
   </g>
   <g id="legend_1">
    <g id="patch_7">
     <path d="M 310.17375 381.478125 
L 411.66125 381.478125 
Q 413.26125 381.478125 413.26125 379.878125 
L 413.26125 321.965625 
Q 413.26125 320.365625 411.66125 320.365625 
L 310.17375 320.365625 
Q 308.57375 320.365625 308.57375 321.965625 
L 308.57375 379.878125 
Q 308.57375 381.478125 310.17375 381.478125 
z
" style="fill: #ffffff; opacity: 0.8; stroke: #cccccc; stroke-linejoin: miter"/>
    </g>
    <g id="line2d_31">
     <path d="M 311.77375 326.844375 
L 319.77375 326.844375 
L 327.77375 326.844375 
" style="fill: none; stroke: #1f77b4; stroke-width: 1.6; stroke-linecap: square"/>
    </g>
    <g id="text_16">
     <!-- NORM (AUC 0.936) -->
     <g transform="translate(334.17375 329.644375) scale(0.08 -0.08)">
      <defs>
       <path id="DejaVuSans-4e" d="M 628 4666 
L 1478 4666 
L 3547 763 
L 3547 4666 
L 4159 4666 
L 4159 0 
L 3309 0 
L 1241 3903 
L 1241 0 
L 628 0 
L 628 4666 
z
" transform="scale(0.015625)"/>
       <path id="DejaVuSans-4d" d="M 628 4666 
L 1569 4666 
L 2759 1491 
L 3956 4666 
L 4897 4666 
L 4897 0 
L 4281 0 
L 4281 4097 
L 3078 897 
L 2444 897 
L 1241 4097 
L 1241 0 
L 628 0 
L 628 4666 
z
" transform="scale(0.015625)"/>
       <path id="DejaVuSans-41" d="M 2188 4044 
L 1331 1722 
L 3047 1722 
L 2188 4044 
z
M 1831 4666 
L 2547 4666 
L 4325 0 
L 3669 0 
L 3244 1197 
L 1141 1197 
L 716 0 
L 50 0 
L 1831 4666 
z
" transform="scale(0.015625)"/>
       <path id="DejaVuSans-55" d="M 556 4666 
L 1191 4666 
L 1191 1831 
Q 1191 1081 1462 751 
Q 1734 422 2344 422 
Q 2950 422 3222 751 
Q 3494 1081 3494 1831 
L 3494 4666 
L 4128 4666 
L 4128 1753 
Q 4128 841 3676 375 
Q 3225 -91 2344 -91 
Q 1459 -91 1007 375 
Q 556 841 556 1753 
L 556 4666 
z
" transform="scale(0.015625)"/>
       <path id="DejaVuSans-39" d="M 703 97 
L 703 672 
Q 941 559 1184 500 
Q 1428 441 1663 441 
Q 2288 441 2617 861 
Q 2947 1281 2994 2138 
Q 2813 1869 2534 1725 
Q 2256 1581 1919 1581 
Q 1219 1581 811 2004 
Q 403 2428 403 3163 
Q 403 3881 828 4315 
Q 1253 4750 1959 4750 
Q 2769 4750 3195 4129 
Q 3622 3509 3622 2328 
Q 3622 1225 3098 567 
Q 2575 -91 1691 -91 
Q 1453 -91 1209 -44 
Q 966 3 703 97 
z
M 1959 2075 
Q 2384 2075 2632 2365 
Q 2881 2656 2881 3163 
Q 2881 3666 2632 3958 
Q 2384 4250 1959 4250 
Q 1534 4250 1286 3958 
Q 1038 3666 1038 3163 
Q 1038 2656 1286 2365 
Q 1534 2075 1959 2075 
z
" transform="scale(0.015625)"/>
       <path id="DejaVuSans-33" d="M 2597 2516 
Q 3050 2419 3304 2112 
Q 3559 1806 3559 1356 
Q 3559 666 3084 287 
Q 2609 -91 1734 -91 
Q 1441 -91 1130 -33 
Q 819 25 488 141 
L 488 750 
Q 750 597 1062 519 
Q 1375 441 1716 441 
Q 2309 441 2620 675 
Q 2931 909 2931 1356 
Q 2931 1769 2642 2001 
Q 2353 2234 1838 2234 
L 1294 2234 
L 1294 2753 
L 1863 2753 
Q 2328 2753 2575 2939 
Q 2822 3125 2822 3475 
Q 2822 3834 2567 4026 
Q 2313 4219 1838 4219 
Q 1578 4219 1281 4162 
Q 984 4106 628 3988 
L 628 4550 
Q 988 4650 1302 4700 
Q 1616 4750 1894 4750 
Q 2613 4750 3031 4423 
Q 3450 4097 3450 3541 
Q 3450 3153 3228 2886 
Q 3006 2619 2597 2516 
z
" transform="scale(0.015625)"/>
      </defs>
      <use xlink:href="#DejaVuSans-4e"/>
      <use xlink:href="#DejaVuSans-4f" transform="translate(74.804688 0)"/>
      <use xlink:href="#DejaVuSans-52" transform="translate(153.515625 0)"/>
      <use xlink:href="#DejaVuSans-4d" transform="translate(222.998047 0)"/>
      <use xlink:href="#DejaVuSans-20" transform="translate(309.277344 0)"/>
      <use xlink:href="#DejaVuSans-28" transform="translate(341.064453 0)"/>
      <use xlink:href="#DejaVuSans-41" transform="translate(380.078125 0)"/>
      <use xlink:href="#DejaVuSans-55" transform="translate(448.486328 0)"/>
      <use xlink:href="#DejaVuSans-43" transform="translate(521.679688 0)"/>
      <use xlink:href="#DejaVuSans-20" transform="translate(591.503906 0)"/>
      <use xlink:href="#DejaVuSans-30" transform="translate(623.291016 0)"/>
      <use xlink:href="#DejaVuSans-2e" transform="translate(686.914062 0)"/>
      <use xlink:href="#DejaVuSans-39" transform="translate(718.701172 0)"/>
      <use xlink:href="#DejaVuSans-33" transform="translate(782.324219 0)"/>
      <use xlink:href="#DejaVuSans-36" transform="translate(845.947266 0)"/>
      <use xlink:href="#DejaVuSans-29" transform="translate(909.570312 0)"/>
     </g>
    </g>
    <g id="line2d_32">
     <path d="M 311.77375 338.586875 
L 319.77375 338.586875 
L 327.77375 338.586875 
" style="fill: none; stroke: #ff7f0e; stroke-width: 1.6; stroke-linecap: square"/>
    </g>
    <g id="text_17">
     <!-- MI (AUC 0.912) -->
     <g transform="translate(334.17375 341.386875) scale(0.08 -0.08)">
      <defs>
       <path id="DejaVuSans-49" d="M 628 4666 
L 1259 4666 
L 1259 0 
L 628 0 
L 628 4666 
z
" transform="scale(0.015625)"/>
      </defs>
      <use xlink:href="#DejaVuSans-4d"/>
      <use xlink:href="#DejaVuSans-49" transform="translate(86.279297 0)"/>
      <use xlink:href="#DejaVuSans-20" transform="translate(115.771484 0)"/>
      <use xlink:href="#DejaVuSans-28" transform="translate(147.558594 0)"/>
      <use xlink:href="#DejaVuSans-41" transform="translate(186.572266 0)"/>
      <use xlink:href="#DejaVuSans-55" transform="translate(254.980469 0)"/>
      <use xlink:href="#DejaVuSans-43" transform="translate(328.173828 0)"/>
      <use xlink:href="#DejaVuSans-20" transform="translate(397.998047 0)"/>
      <use xlink:href="#DejaVuSans-30" transform="translate(429.785156 0)"/>
      <use xlink:href="#DejaVuSans-2e" transform="translate(493.408203 0)"/>
      <use xlink:href="#DejaVuSans-39" transform="translate(525.195312 0)"/>
      <use xlink:href="#DejaVuSans-31" transform="translate(588.818359 0)"/>
      <use xlink:href="#DejaVuSans-32" transform="translate(652.441406 0)"/>
      <use xlink:href="#DejaVuSans-29" transform="translate(716.064453 0)"/>
     </g>
    </g>
    <g id="line2d_33">
     <path d="M 311.77375 350.329375 
L 319.77375 350.329375 
L 327.77375 350.329375 
" style="fill: none; stroke: #2ca02c; stroke-width: 1.6; stroke-linecap: square"/>
    </g>
    <g id="text_18">
     <!-- STTC (AUC 0.931) -->
     <g transform="translate(334.17375 353.129375) scale(0.08 -0.08)">
      <use xlink:href="#DejaVuSans-53"/>
      <use xlink:href="#DejaVuSans-54" transform="translate(63.476562 0)"/>
      <use xlink:href="#DejaVuSans-54" transform="translate(122.810547 0)"/>
      <use xlink:href="#DejaVuSans-43" transform="translate(178.019531 0)"/>
      <use xlink:href="#DejaVuSans-20" transform="translate(247.84375 0)"/>
      <use xlink:href="#DejaVuSans-28" transform="translate(279.630859 0)"/>
      <use xlink:href="#DejaVuSans-41" transform="translate(318.644531 0)"/>
      <use xlink:href="#DejaVuSans-55" transform="translate(387.052734 0)"/>
      <use xlink:href="#DejaVuSans-43" transform="translate(460.246094 0)"/>
      <use xlink:href="#DejaVuSans-20" transform="translate(530.070312 0)"/>
      <use xlink:href="#DejaVuSans-30" transform="translate(561.857422 0)"/>
      <use xlink:href="#DejaVuSans-2e" transform="translate(625.480469 0)"/>
      <use xlink:href="#DejaVuSans-39" transform="translate(657.267578 0)"/>
      <use xlink:href="#DejaVuSans-33" transform="translate(720.890625 0)"/>
      <use xlink:href="#DejaVuSans-31" transform="translate(784.513672 0)"/>
      <use xlink:href="#DejaVuSans-29" transform="translate(848.136719 0)"/>
     </g>
    </g>
    <g id="line2d_34">
     <path d="M 311.77375 362.071875 
L 319.77375 362.071875 
L 327.77375 362.071875 
" style="fill: none; stroke: #d62728; stroke-width: 1.6; stroke-linecap: square"/>
    </g>
    <g id="text_19">
     <!-- CD (AUC 0.912) -->
     <g transform="translate(334.17375 364.871875) scale(0.08 -0.08)">
      <defs>
       <path id="DejaVuSans-44" d="M 1259 4147 
L 1259 519 
L 2022 519 
Q 2988 519 3436 956 
Q 3884 1394 3884 2338 
Q 3884 3275 3436 3711 
Q 2988 4147 2022 4147 
L 1259 4147 
z
M 628 4666 
L 1925 4666 
Q 3281 4666 3915 4102 
Q 4550 3538 4550 2338 
Q 4550 1131 3912 565 
Q 3275 0 1925 0 
L 628 0 
L 628 4666 
z
" transform="scale(0.015625)"/>
      </defs>
      <use xlink:href="#DejaVuSans-43"/>
      <use xlink:href="#DejaVuSans-44" transform="translate(69.824219 0)"/>
      <use xlink:href="#DejaVuSans-20" transform="translate(146.826172 0)"/>
      <use xlink:href="#DejaVuSans-28" transform="translate(178.613281 0)"/>
      <use xlink:href="#DejaVuSans-41" transform="translate(217.626953 0)"/>
      <use xlink:href="#DejaVuSans-55" transform="translate(286.035156 0)"/>
      <use xlink:href="#DejaVuSans-43" transform="translate(359.228516 0)"/>
      <use xlink:href="#DejaVuSans-20" transform="translate(429.052734 0)"/>
      <use xlink:href="#DejaVuSans-30" transform="translate(460.839844 0)"/>
      <use xlink:href="#DejaVuSans-2e" transform="translate(524.462891 0)"/>
      <use xlink:href="#DejaVuSans-39" transform="translate(556.25 0)"/>
      <use xlink:href="#DejaVuSans-31" transform="translate(619.873047 0)"/>
      <use xlink:href="#DejaVuSans-32" transform="translate(683.496094 0)"/>
      <use xlink:href="#DejaVuSans-29" transform="translate(747.119141 0)"/>
     </g>
    </g>
    <g id="line2d_35">
     <path d="M 311.77375 373.814375 
L 319.77375 373.814375 
L 327.77375 373.814375 
" style="fill: none; stroke: #9467bd; stroke-width: 1.6; stroke-linecap: square"/>
    </g>
    <g id="text_20">
     <!-- HYP (AUC 0.905) -->
     <g transform="translate(334.17375 376.614375) scale(0.08 -0.08)">
      <defs>
       <path id="DejaVuSans-48" d="M 628 4666 
L 1259 4666 
L 1259 2753 
L 3553 2753 
L 3553 4666 
L 4184 4666 
L 4184 0 
L 3553 0 
L 3553 2222 
L 1259 2222 
L 1259 0 
L 628 0 
L 628 4666 
z
" transform="scale(0.015625)"/>
       <path id="DejaVuSans-59" d="M -13 4666 
L 666 4666 
L 1959 2747 
L 3244 4666 
L 3922 4666 
L 2272 2222 
L 2272 0 
L 1638 0 
L 1638 2222 
L -13 4666 
z
" transform="scale(0.015625)"/>
       <path id="DejaVuSans-35" d="M 691 4666 
L 3169 4666 
L 3169 4134 
L 1269 4134 
L 1269 2991 
Q 1406 3038 1543 3061 
Q 1681 3084 1819 3084 
Q 2600 3084 3056 2656 
Q 3513 2228 3513 1497 
Q 3513 744 3044 326 
Q 2575 -91 1722 -91 
Q 1428 -91 1123 -41 
Q 819 9 494 109 
L 494 744 
Q 775 591 1075 516 
Q 1375 441 1709 441 
Q 2250 441 2565 725 
Q 2881 1009 2881 1497 
Q 2881 1984 2565 2268 
Q 2250 2553 1709 2553 
Q 1456 2553 1204 2497 
Q 953 2441 691 2322 
L 691 4666 
z
" transform="scale(0.015625)"/>
      </defs>
      <use xlink:href="#DejaVuSans-48"/>
      <use xlink:href="#DejaVuSans-59" transform="translate(75.195312 0)"/>
      <use xlink:href="#DejaVuSans-50" transform="translate(136.279297 0)"/>
      <use xlink:href="#DejaVuSans-20" transform="translate(196.582031 0)"/>
      <use xlink:href="#DejaVuSans-28" transform="translate(228.369141 0)"/>
      <use xlink:href="#DejaVuSans-41" transform="translate(267.382812 0)"/>
      <use xlink:href="#DejaVuSans-55" transform="translate(335.791016 0)"/>
      <use xlink:href="#DejaVuSans-43" transform="translate(408.984375 0)"/>
      <use xlink:href="#DejaVuSans-20" transform="translate(478.808594 0)"/>
      <use xlink:href="#DejaVuSans-30" transform="translate(510.595703 0)"/>
      <use xlink:href="#DejaVuSans-2e" transform="translate(574.21875 0)"/>
      <use xlink:href="#DejaVuSans-39" transform="translate(606.005859 0)"/>
      <use xlink:href="#DejaVuSans-30" transform="translate(669.628906 0)"/>
      <use xlink:href="#DejaVuSans-35" transform="translate(733.251953 0)"/>
      <use xlink:href="#DejaVuSans-29" transform="translate(796.875 0)"/>
     </g>
    </g>
   </g>
  </g>
 </g>
 <defs>
  <clipPath id="p372fff510b">
   <rect x="43.78125" y="22.318125" width="373.48" height="363.16"/>
  </clipPath>
 </defs>
</svg>
