<?xml version="1.0" encoding="utf-8" standalone="no"?>
<!DOCTYPE svg PUBLIC "-//W3C//DTD SVG 1.1//EN"
  "http://www.w3.org/Graphics/SVG/1.1/DTD/svg11.dtd">
<svg xmlns:xlink="http://www.w3.org/1999/xlink" width="424.46125pt" height="423.034375pt" viewBox="0 0 424.46125 423.034375" xmlns="http://www.w3.org/2000/svg" version="1.1">
 <metadata>
  <rdf:RDF xmlns:dc="http://purl.org/dc/elements/1.1/" xmlns:cc="http://creativecommons.org/ns#" xmlns:rdf="http://www.w3.org/1999/02/22-rdf-syntax-ns#">
   <cc:Work>
    <dc:type rdf:resource="http://purl.org/dc/dcmitype/StillImage"/>
    <dc:date>2026-06-21T21:27:22.537153</dc:date>
    <dc:format>image/svg+xml</dc:format>
    <dc:creator>
     <cc:Agent>
      <dc:title>Matplotlib v3.10.0, https://matplotlib.org/</dc:title>
     </cc:Agent>
    </dc:creator>
   </cc:Work>
  </rdf:RDF>
 </metadata>
 <defs>
  <style type="text/css">*{stroke-linejoin: round; stroke-linecap: butt}</style>
 </defs>
 <g id="figure_1">
  <g id="patch_1">
   <path d="M 0 423.034375 
L 424.46125 423.034375 
L 424.46125 0 
L 0 0 
z
" style="fill: #ffffff"/>
  </g>
  <g id="axes_1">
   <g id="patch_2">
    <path d="M 43.78125 385.478125 
L 417.26125 385.478125 
L 417.26125 22.318125 
L 43.78125 22.318125 
z
" style="fill: #ffffff"/>
   </g>
   <g id="matplotlib.axis_1">
    <g id="xtick_1">
     <g id="line2d_1">
      <path d="M 60.757614 385.478125 
L 60.757614 22.318125 
" clip-path="url(#pd590dee99a)" style="fill: none; stroke: #b0b0b0; stroke-opacity: 0.3; stroke-width: 0.8; stroke-linecap: square"/>
     </g>
     <g id="line2d_2">
      <defs>
       <path id="m1cba49bfd8" d="M 0 0 
L 0 3.5 
" style="stroke: #000000; stroke-width: 0.8"/>
      </defs>
      <g>
       <use xlink:href="#m1cba49bfd8" x="60.757614" y="385.478125" style="stroke: #000000; stroke-width: 0.8"/>
      </g>
     </g>
     <g id="text_1">
      <!-- 0.0 -->
      <g transform="translate(52.806051 400.076562) scale(0.1 -0.1)">
       <defs>
        <path id="DejaVuSans-30" d="M 2034 4250 
Q 1547 4250 1301 3770 
Q 1056 3291 1056 2328 
Q 1056 1369 1301 889 
Q 1547 409 2034 409 
Q 2525 409 2770 889 
Q 3016 1369 3016 2328 
Q 3016 3291 2770 3770 
Q 2525 4250 2034 4250 
z
M 2034 4750 
Q 2819 4750 3233 4129 
Q 3647 3509 3647 2328 
Q 3647 1150 3233 529 
Q 2819 -91 2034 -91 
Q 1250 -91 836 529 
Q 422 1150 422 2328 
Q 422 3509 836 4129 
Q 1250 4750 2034 4750 
z
" transform="scale(0.015625)"/>
        <path id="DejaVuSans-2e" d="M 684 794 
L 1344 794 
L 1344 0 
L 684 0 
L 684 794 
z
" transform="scale(0.015625)"/>
       </defs>
       <use xlink:href="#DejaVuSans-30"/>
       <use xlink:href="#DejaVuSans-2e" transform="translate(63.623047 0)"/>
       <use xlink:href="#DejaVuSans-30" transform="translate(95.410156 0)"/>
      </g>
     </g>
    </g>
    <g id="xtick_2">
     <g id="line2d_3">
      <path d="M 128.663068 385.478125 
L 128.663068 22.318125 
" clip-path="url(#pd590dee99a)" style="fill: none; stroke: #b0b0b0; stroke-opacity: 0.3; stroke-width: 0.8; stroke-linecap: square"/>
     </g>
     <g id="line2d_4">
      <g>
       <use xlink:href="#m1cba49bfd8" x="128.663068" y="385.478125" style="stroke: #000000; stroke-width: 0.8"/>
      </g>
     </g>
     <g id="text_2">
      <!-- 0.2 -->
      <g transform="translate(120.711506 400.076562) scale(0.1 -0.1)">
       <defs>
        <path id="DejaVuSans-32" d="M 1228 531 
L 3431 531 
L 3431 0 
L 469 0 
L 469 531 
Q 828 903 1448 1529 
Q 2069 2156 2228 2338 
Q 2531 2678 2651 2914 
Q 2772 3150 2772 3378 
Q 2772 3750 2511 3984 
Q 2250 4219 1831 4219 
Q 1534 4219 1204 4116 
Q 875 4013 500 3803 
L 500 4441 
Q 881 4594 1212 4672 
Q 1544 4750 1819 4750 
Q 2544 4750 2975 4387 
Q 3406 4025 3406 3419 
Q 3406 3131 3298 2873 
Q 3191 2616 2906 2266 
Q 2828 2175 2409 1742 
Q 1991 1309 1228 531 
z
" transform="scale(0.015625)"/>
       </defs>
       <use xlink:href="#DejaVuSans-30"/>
       <use xlink:href="#DejaVuSans-2e" transform="translate(63.623047 0)"/>
       <use xlink:href="#DejaVuSans-32" transform="translate(95.410156 0)"/>
      </g>
     </g>
    </g>
    <g id="xtick_3">
     <g id="line2d_5">
      <path d="M 196.568523 385.478125 
L 196.568523 22.318125 
" clip-path="url(#pd590dee99a)" style="fill: none; stroke: #b0b0b0; stroke-opacity: 0.3; stroke-width: 0.8; stroke-linecap: square"/>
     </g>
     <g id="line2d_6">
      <g>
       <use xlink:href="#m1cba49bfd8" x="196.568523" y="385.478125" style="stroke: #000000; stroke-width: 0.8"/>
      </g>
     </g>
     <g id="text_3">
      <!-- 0.4 -->
      <g transform="translate(188.61696 400.076562) scale(0.1 -0.1)">
       <defs>
        <path id="DejaVuSans-34" d="M 2419 4116 
L 825 1625 
L 2419 1625 
L 2419 4116 
z
M 2253 4666 
L 3047 4666 
L 3047 1625 
L 3713 1625 
L 3713 1100 
L 3047 1100 
L 3047 0 
L 2419 0 
L 2419 1100 
L 313 1100 
L 313 1709 
L 2253 4666 
z
" transform="scale(0.015625)"/>
       </defs>
       <use xlink:href="#DejaVuSans-30"/>
       <use xlink:href="#DejaVuSans-2e" transform="translate(63.623047 0)"/>
       <use xlink:href="#DejaVuSans-34" transform="translate(95.410156 0)"/>
      </g>
     </g>
    </g>
    <g id="xtick_4">
     <g id="line2d_7">
      <path d="M 264.473977 385.478125 
L 264.473977 22.318125 
" clip-path="url(#pd590dee99a)" style="fill: none; stroke: #b0b0b0; stroke-opacity: 0.3; stroke-width: 0.8; stroke-linecap: square"/>
     </g>
     <g id="line2d_8">
      <g>
       <use xlink:href="#m1cba49bfd8" x="264.473977" y="385.478125" style="stroke: #000000; stroke-width: 0.8"/>
      </g>
     </g>
     <g id="text_4">
      <!-- 0.6 -->
      <g transform="translate(256.522415 400.076562) scale(0.1 -0.1)">
       <defs>
        <path id="DejaVuSans-36" d="M 2113 2584 
Q 1688 2584 1439 2293 
Q 1191 2003 1191 1497 
Q 1191 994 1439 701 
Q 1688 409 2113 409 
Q 2538 409 2786 701 
Q 3034 994 3034 1497 
Q 3034 2003 2786 2293 
Q 2538 2584 2113 2584 
z
M 3366 4563 
L 3366 3988 
Q 3128 4100 2886 4159 
Q 2644 4219 2406 4219 
Q 1781 4219 1451 3797 
Q 1122 3375 1075 2522 
Q 1259 2794 1537 2939 
Q 1816 3084 2150 3084 
Q 2853 3084 3261 2657 
Q 3669 2231 3669 1497 
Q 3669 778 3244 343 
Q 2819 -91 2113 -91 
Q 1303 -91 875 529 
Q 447 1150 447 2328 
Q 447 3434 972 4092 
Q 1497 4750 2381 4750 
Q 2619 4750 2861 4703 
Q 3103 4656 3366 4563 
z
" transform="scale(0.015625)"/>
       </defs>
       <use xlink:href="#DejaVuSans-30"/>
       <use xlink:href="#DejaVuSans-2e" transform="translate(63.623047 0)"/>
       <use xlink:href="#DejaVuSans-36" transform="translate(95.410156 0)"/>
      </g>
     </g>
    </g>
    <g id="xtick_5">
     <g id="line2d_9">
      <path d="M 332.379432 385.478125 
L 332.379432 22.318125 
" clip-path="url(#pd590dee99a)" style="fill: none; stroke: #b0b0b0; stroke-opacity: 0.3; stroke-width: 0.8; stroke-linecap: square"/>
     </g>
     <g id="line2d_10">
      <g>
       <use xlink:href="#m1cba49bfd8" x="332.379432" y="385.478125" style="stroke: #000000; stroke-width: 0.8"/>
      </g>
     </g>
     <g id="text_5">
      <!-- 0.8 -->
      <g transform="translate(324.427869 400.076562) scale(0.1 -0.1)">
       <defs>
        <path id="DejaVuSans-38" d="M 2034 2216 
Q 1584 2216 1326 1975 
Q 1069 1734 1069 1313 
Q 1069 891 1326 650 
Q 1584 409 2034 409 
Q 2484 409 2743 651 
Q 3003 894 3003 1313 
Q 3003 1734 2745 1975 
Q 2488 2216 2034 2216 
z
M 1403 2484 
Q 997 2584 770 2862 
Q 544 3141 544 3541 
Q 544 4100 942 4425 
Q 1341 4750 2034 4750 
Q 2731 4750 3128 4425 
Q 3525 4100 3525 3541 
Q 3525 3141 3298 2862 
Q 3072 2584 2669 2484 
Q 3125 2378 3379 2068 
Q 3634 1759 3634 1313 
Q 3634 634 3220 271 
Q 2806 -91 2034 -91 
Q 1263 -91 848 271 
Q 434 634 434 1313 
Q 434 1759 690 2068 
Q 947 2378 1403 2484 
z
M 1172 3481 
Q 1172 3119 1398 2916 
Q 1625 2713 2034 2713 
Q 2441 2713 2670 2916 
Q 2900 3119 2900 3481 
Q 2900 3844 2670 4047 
Q 2441 4250 2034 4250 
Q 1625 4250 1398 4047 
Q 1172 3844 1172 3481 
z
" transform="scale(0.015625)"/>
       </defs>
       <use xlink:href="#DejaVuSans-30"/>
       <use xlink:href="#DejaVuSans-2e" transform="translate(63.623047 0)"/>
       <use xlink:href="#DejaVuSans-38" transform="translate(95.410156 0)"/>
      </g>
     </g>
    </g>
    <g id="xtick_6">
     <g id="line2d_11">
      <path d="M 400.284886 385.478125 
L 400.284886 22.318125 
" clip-path="url(#pd590dee99a)" style="fill: none; stroke: #b0b0b0; stroke-opacity: 0.3; stroke-width: 0.8; stroke-linecap: square"/>
     </g>
     <g id="line2d_12">
      <g>
       <use xlink:href="#m1cba49bfd8" x="400.284886" y="385.478125" style="stroke: #000000; stroke-width: 0.8"/>
      </g>
     </g>
     <g id="text_6">
      <!-- 1.0 -->
      <g transform="translate(392.333324 400.076562) scale(0.1 -0.1)">
       <defs>
        <path id="DejaVuSans-31" d="M 794 531 
L 1825 531 
L 1825 4091 
L 703 3866 
L 703 4441 
L 1819 4666 
L 2450 4666 
L 2450 531 
L 3481 531 
L 3481 0 
L 794 0 
L 794 531 
z
" transform="scale(0.015625)"/>
       </defs>
       <use xlink:href="#DejaVuSans-31"/>
       <use xlink:href="#DejaVuSans-2e" transform="translate(63.623047 0)"/>
       <use xlink:href="#DejaVuSans-30" transform="translate(95.410156 0)"/>
      </g>
     </g>
    </g>
    <g id="text_7">
     <!-- 1 − Specificity (FPR) -->
     <g transform="translate(179.34625 413.754687) scale(0.1 -0.1)">
      <defs>
       <path id="DejaVuSans-20" transform="scale(0.015625)"/>
       <path id="DejaVuSans-2212" d="M 678 2272 
L 4684 2272 
L 4684 1741 
L 678 1741 
L 678 2272 
z
" transform="scale(0.015625)"/>
       <path id="DejaVuSans-53" d="M 3425 4513 
L 3425 3897 
Q 3066 4069 2747 4153 
Q 2428 4238 2131 4238 
Q 1616 4238 1336 4038 
Q 1056 3838 1056 3469 
Q 1056 3159 1242 3001 
Q 1428 2844 1947 2747 
L 2328 2669 
Q 3034 2534 3370 2195 
Q 3706 1856 3706 1288 
Q 3706 609 3251 259 
Q 2797 -91 1919 -91 
Q 1588 -91 1214 -16 
Q 841 59 441 206 
L 441 856 
Q 825 641 1194 531 
Q 1563 422 1919 422 
Q 2459 422 2753 634 
Q 3047 847 3047 1241 
Q 3047 1584 2836 1778 
Q 2625 1972 2144 2069 
L 1759 2144 
Q 1053 2284 737 2584 
Q 422 2884 422 3419 
Q 422 4038 858 4394 
Q 1294 4750 2059 4750 
Q 2388 4750 2728 4690 
Q 3069 4631 3425 4513 
z
" transform="scale(0.015625)"/>
       <path id="DejaVuSans-70" d="M 1159 525 
L 1159 -1331 
L 581 -1331 
L 581 3500 
L 1159 3500 
L 1159 2969 
Q 1341 3281 1617 3432 
Q 1894 3584 2278 3584 
Q 2916 3584 3314 3078 
Q 3713 2572 3713 1747 
Q 3713 922 3314 415 
Q 2916 -91 2278 -91 
Q 1894 -91 1617 61 
Q 1341 213 1159 525 
z
M 3116 1747 
Q 3116 2381 2855 2742 
Q 2594 3103 2138 3103 
Q 1681 3103 1420 2742 
Q 1159 2381 1159 1747 
Q 1159 1113 1420 752 
Q 1681 391 2138 391 
Q 2594 391 2855 752 
Q 3116 1113 3116 1747 
z
" transform="scale(0.015625)"/>
       <path id="DejaVuSans-65" d="M 3597 1894 
L 3597 1613 
L 953 1613 
Q 991 1019 1311 708 
Q 1631 397 2203 397 
Q 2534 397 2845 478 
Q 3156 559 3463 722 
L 3463 178 
Q 3153 47 2828 -22 
Q 2503 -91 2169 -91 
Q 1331 -91 842 396 
Q 353 884 353 1716 
Q 353 2575 817 3079 
Q 1281 3584 2069 3584 
Q 2775 3584 3186 3129 
Q 3597 2675 3597 1894 
z
M 3022 2063 
Q 3016 2534 2758 2815 
Q 2500 3097 2075 3097 
Q 1594 3097 1305 2825 
Q 1016 2553 972 2059 
L 3022 2063 
z
" transform="scale(0.015625)"/>
       <path id="DejaVuSans-63" d="M 3122 3366 
L 3122 2828 
Q 2878 2963 2633 3030 
Q 2388 3097 2138 3097 
Q 1578 3097 1268 2742 
Q 959 2388 959 1747 
Q 959 1106 1268 751 
Q 1578 397 2138 397 
Q 2388 397 2633 464 
Q 2878 531 3122 666 
L 3122 134 
Q 2881 22 2623 -34 
Q 2366 -91 2075 -91 
Q 1284 -91 818 406 
Q 353 903 353 1747 
Q 353 2603 823 3093 
Q 1294 3584 2113 3584 
Q 2378 3584 2631 3529 
Q 2884 3475 3122 3366 
z
" transform="scale(0.015625)"/>
       <path id="DejaVuSans-69" d="M 603 3500 
L 1178 3500 
L 1178 0 
L 603 0 
L 603 3500 
z
M 603 4863 
L 1178 4863 
L 1178 4134 
L 603 4134 
L 603 4863 
z
" transform="scale(0.015625)"/>
       <path id="DejaVuSans-66" d="M 2375 4863 
L 2375 4384 
L 1825 4384 
Q 1516 4384 1395 4259 
Q 1275 4134 1275 3809 
L 1275 3500 
L 2222 3500 
L 2222 3053 
L 1275 3053 
L 1275 0 
L 697 0 
L 697 3053 
L 147 3053 
L 147 3500 
L 697 3500 
L 697 3744 
Q 697 4328 969 4595 
Q 1241 4863 1831 4863 
L 2375 4863 
z
" transform="scale(0.015625)"/>
       <path id="DejaVuSans-74" d="M 1172 4494 
L 1172 3500 
L 2356 3500 
L 2356 3053 
L 1172 3053 
L 1172 1153 
Q 1172 725 1289 603 
Q 1406 481 1766 481 
L 2356 481 
L 2356 0 
L 1766 0 
Q 1100 0 847 248 
Q 594 497 594 1153 
L 594 3053 
L 172 3053 
L 172 3500 
L 594 3500 
L 594 4494 
L 1172 4494 
z
" transform="scale(0.015625)"/>
       <path id="DejaVuSans-79" d="M 2059 -325 
Q 1816 -950 1584 -1140 
Q 1353 -1331 966 -1331 
L 506 -1331 
L 506 -850 
L 844 -850 
Q 1081 -850 1212 -737 
Q 1344 -625 1503 -206 
L 1606 56 
L 191 3500 
L 800 3500 
L 1894 763 
L 2988 3500 
L 3597 3500 
L 2059 -325 
z
" transform="scale(0.015625)"/>
       <path id="DejaVuSans-28" d="M 1984 4856 
Q 1566 4138 1362 3434 
Q 1159 2731 1159 2009 
Q 1159 1288 1364 580 
Q 1569 -128 1984 -844 
L 1484 -844 
Q 1016 -109 783 600 
Q 550 1309 550 2009 
Q 550 2706 781 3412 
Q 1013 4119 1484 4856 
L 1984 4856 
z
" transform="scale(0.015625)"/>
       <path id="DejaVuSans-46" d="M 628 4666 
L 3309 4666 
L 3309 4134 
L 1259 4134 
L 1259 2759 
L 3109 2759 
L 3109 2228 
L 1259 2228 
L 1259 0 
L 628 0 
L 628 4666 
z
" transform="scale(0.015625)"/>
       <path id="DejaVuSans-50" d="M 1259 4147 
L 1259 2394 
L 2053 2394 
Q 2494 2394 2734 2622 
Q 2975 2850 2975 3272 
Q 2975 3691 2734 3919 
Q 2494 4147 2053 4147 
L 1259 4147 
z
M 628 4666 
L 2053 4666 
Q 2838 4666 3239 4311 
Q 3641 3956 3641 3272 
Q 3641 2581 3239 2228 
Q 2838 1875 2053 1875 
L 1259 1875 
L 1259 0 
L 628 0 
L 628 4666 
z
" transform="scale(0.015625)"/>
       <path id="DejaVuSans-52" d="M 2841 2188 
Q 3044 2119 3236 1894 
Q 3428 1669 3622 1275 
L 4263 0 
L 3584 0 
L 2988 1197 
Q 2756 1666 2539 1819 
Q 2322 1972 1947 1972 
L 1259 1972 
L 1259 0 
L 628 0 
L 628 4666 
L 2053 4666 
Q 2853 4666 3247 4331 
Q 3641 3997 3641 3322 
Q 3641 2881 3436 2590 
Q 3231 2300 2841 2188 
z
M 1259 4147 
L 1259 2491 
L 2053 2491 
Q 2509 2491 2742 2702 
Q 2975 2913 2975 3322 
Q 2975 3731 2742 3939 
Q 2509 4147 2053 4147 
L 1259 4147 
z
" transform="scale(0.015625)"/>
       <path id="DejaVuSans-29" d="M 513 4856 
L 1013 4856 
Q 1481 4119 1714 3412 
Q 1947 2706 1947 2009 
Q 1947 1309 1714 600 
Q 1481 -109 1013 -844 
L 513 -844 
Q 928 -128 1133 580 
Q 1338 1288 1338 2009 
Q 1338 2731 1133 3434 
Q 928 4138 513 4856 
z
" transform="scale(0.015625)"/>
      </defs>
      <use xlink:href="#DejaVuSans-31"/>
      <use xlink:href="#DejaVuSans-20" transform="translate(63.623047 0)"/>
      <use xlink:href="#DejaVuSans-2212" transform="translate(95.410156 0)"/>
      <use xlink:href="#DejaVuSans-20" transform="translate(179.199219 0)"/>
      <use xlink:href="#DejaVuSans-53" transform="translate(210.986328 0)"/>
      <use xlink:href="#DejaVuSans-70" transform="translate(274.462891 0)"/>
      <use xlink:href="#DejaVuSans-65" transform="translate(337.939453 0)"/>
      <use xlink:href="#DejaVuSans-63" transform="translate(399.462891 0)"/>
      <use xlink:href="#DejaVuSans-69" transform="translate(454.443359 0)"/>
      <use xlink:href="#DejaVuSans-66" transform="translate(482.226562 0)"/>
      <use xlink:href="#DejaVuSans-69" transform="translate(517.431641 0)"/>
      <use xlink:href="#DejaVuSans-63" transform="translate(545.214844 0)"/>
      <use xlink:href="#DejaVuSans-69" transform="translate(600.195312 0)"/>
      <use xlink:href="#DejaVuSans-74" transform="translate(627.978516 0)"/>
      <use xlink:href="#DejaVuSans-79" transform="translate(667.1875 0)"/>
      <use xlink:href="#DejaVuSans-20" transform="translate(726.367188 0)"/>
      <use xlink:href="#DejaVuSans-28" transform="translate(758.154297 0)"/>
      <use xlink:href="#DejaVuSans-46" transform="translate(797.167969 0)"/>
      <use xlink:href="#DejaVuSans-50" transform="translate(854.6875 0)"/>
      <use xlink:href="#DejaVuSans-52" transform="translate(914.990234 0)"/>
      <use xlink:href="#DejaVuSans-29" transform="translate(984.472656 0)"/>
     </g>
    </g>
   </g>
   <g id="matplotlib.axis_2">
    <g id="ytick_1">
     <g id="line2d_13">
      <path d="M 43.78125 368.970852 
L 417.26125 368.970852 
" clip-path="url(#pd590dee99a)" style="fill: none; stroke: #b0b0b0; stroke-opacity: 0.3; stroke-width: 0.8; stroke-linecap: square"/>
     </g>
     <g id="line2d_14">
      <defs>
       <path id="mb95f35ff44" d="M 0 0 
L -3.5 0 
" style="stroke: #000000; stroke-width: 0.8"/>
      </defs>
      <g>
       <use xlink:href="#mb95f35ff44" x="43.78125" y="368.970852" style="stroke: #000000; stroke-width: 0.8"/>
      </g>
     </g>
     <g id="text_8">
      <!-- 0.0 -->
      <g transform="translate(20.878125 372.770071) scale(0.1 -0.1)">
       <use xlink:href="#DejaVuSans-30"/>
       <use xlink:href="#DejaVuSans-2e" transform="translate(63.623047 0)"/>
       <use xlink:href="#DejaVuSans-30" transform="translate(95.410156 0)"/>
      </g>
     </g>
    </g>
    <g id="ytick_2">
     <g id="line2d_15">
      <path d="M 43.78125 302.941761 
L 417.26125 302.941761 
" clip-path="url(#pd590dee99a)" style="fill: none; stroke: #b0b0b0; stroke-opacity: 0.3; stroke-width: 0.8; stroke-linecap: square"/>
     </g>
     <g id="line2d_16">
      <g>
       <use xlink:href="#mb95f35ff44" x="43.78125" y="302.941761" style="stroke: #000000; stroke-width: 0.8"/>
      </g>
     </g>
     <g id="text_9">
      <!-- 0.2 -->
      <g transform="translate(20.878125 306.74098) scale(0.1 -0.1)">
       <use xlink:href="#DejaVuSans-30"/>
       <use xlink:href="#DejaVuSans-2e" transform="translate(63.623047 0)"/>
       <use xlink:href="#DejaVuSans-32" transform="translate(95.410156 0)"/>
      </g>
     </g>
    </g>
    <g id="ytick_3">
     <g id="line2d_17">
      <path d="M 43.78125 236.91267 
L 417.26125 236.91267 
" clip-path="url(#pd590dee99a)" style="fill: none; stroke: #b0b0b0; stroke-opacity: 0.3; stroke-width: 0.8; stroke-linecap: square"/>
     </g>
     <g id="line2d_18">
      <g>
       <use xlink:href="#mb95f35ff44" x="43.78125" y="236.91267" style="stroke: #000000; stroke-width: 0.8"/>
      </g>
     </g>
     <g id="text_10">
      <!-- 0.4 -->
      <g transform="translate(20.878125 240.711889) scale(0.1 -0.1)">
       <use xlink:href="#DejaVuSans-30"/>
       <use xlink:href="#DejaVuSans-2e" transform="translate(63.623047 0)"/>
       <use xlink:href="#DejaVuSans-34" transform="translate(95.410156 0)"/>
      </g>
     </g>
    </g>
    <g id="ytick_4">
     <g id="line2d_19">
      <path d="M 43.78125 170.88358 
L 417.26125 170.88358 
" clip-path="url(#pd590dee99a)" style="fill: none; stroke: #b0b0b0; stroke-opacity: 0.3; stroke-width: 0.8; stroke-linecap: square"/>
     </g>
     <g id="line2d_20">
      <g>
       <use xlink:href="#mb95f35ff44" x="43.78125" y="170.88358" style="stroke: #000000; stroke-width: 0.8"/>
      </g>
     </g>
     <g id="text_11">
      <!-- 0.6 -->
      <g transform="translate(20.878125 174.682798) scale(0.1 -0.1)">
       <use xlink:href="#DejaVuSans-30"/>
       <use xlink:href="#DejaVuSans-2e" transform="translate(63.623047 0)"/>
       <use xlink:href="#DejaVuSans-36" transform="translate(95.410156 0)"/>
      </g>
     </g>
    </g>
    <g id="ytick_5">
     <g id="line2d_21">
      <path d="M 43.78125 104.854489 
L 417.26125 104.854489 
" clip-path="url(#pd590dee99a)" style="fill: none; stroke: #b0b0b0; stroke-opacity: 0.3; stroke-width: 0.8; stroke-linecap: square"/>
     </g>
     <g id="line2d_22">
      <g>
       <use xlink:href="#mb95f35ff44" x="43.78125" y="104.854489" style="stroke: #000000; stroke-width: 0.8"/>
      </g>
     </g>
     <g id="text_12">
      <!-- 0.8 -->
      <g transform="translate(20.878125 108.653707) scale(0.1 -0.1)">
       <use xlink:href="#DejaVuSans-30"/>
       <use xlink:href="#DejaVuSans-2e" transform="translate(63.623047 0)"/>
       <use xlink:href="#DejaVuSans-38" transform="translate(95.410156 0)"/>
      </g>
     </g>
    </g>
    <g id="ytick_6">
     <g id="line2d_23">
      <path d="M 43.78125 38.825398 
L 417.26125 38.825398 
" clip-path="url(#pd590dee99a)" style="fill: none; stroke: #b0b0b0; stroke-opacity: 0.3; stroke-width: 0.8; stroke-linecap: square"/>
     </g>
     <g id="line2d_24">
      <g>
       <use xlink:href="#mb95f35ff44" x="43.78125" y="38.825398" style="stroke: #000000; stroke-width: 0.8"/>
      </g>
     </g>
     <g id="text_13">
      <!-- 1.0 -->
      <g transform="translate(20.878125 42.624616) scale(0.1 -0.1)">
       <use xlink:href="#DejaVuSans-31"/>
       <use xlink:href="#DejaVuSans-2e" transform="translate(63.623047 0)"/>
       <use xlink:href="#DejaVuSans-30" transform="translate(95.410156 0)"/>
      </g>
     </g>
    </g>
    <g id="text_14">
     <!-- Sensitivity (TPR) -->
     <g transform="translate(14.798438 244.962187) rotate(-90) scale(0.1 -0.1)">
      <defs>
       <path id="DejaVuSans-6e" d="M 3513 2113 
L 3513 0 
L 2938 0 
L 2938 2094 
Q 2938 2591 2744 2837 
Q 2550 3084 2163 3084 
Q 1697 3084 1428 2787 
Q 1159 2491 1159 1978 
L 1159 0 
L 581 0 
L 581 3500 
L 1159 3500 
L 1159 2956 
Q 1366 3272 1645 3428 
Q 1925 3584 2291 3584 
Q 2894 3584 3203 3211 
Q 3513 2838 3513 2113 
z
" transform="scale(0.015625)"/>
       <path id="DejaVuSans-73" d="M 2834 3397 
L 2834 2853 
Q 2591 2978 2328 3040 
Q 2066 3103 1784 3103 
Q 1356 3103 1142 2972 
Q 928 2841 928 2578 
Q 928 2378 1081 2264 
Q 1234 2150 1697 2047 
L 1894 2003 
Q 2506 1872 2764 1633 
Q 3022 1394 3022 966 
Q 3022 478 2636 193 
Q 2250 -91 1575 -91 
Q 1294 -91 989 -36 
Q 684 19 347 128 
L 347 722 
Q 666 556 975 473 
Q 1284 391 1588 391 
Q 1994 391 2212 530 
Q 2431 669 2431 922 
Q 2431 1156 2273 1281 
Q 2116 1406 1581 1522 
L 1381 1569 
Q 847 1681 609 1914 
Q 372 2147 372 2553 
Q 372 3047 722 3315 
Q 1072 3584 1716 3584 
Q 2034 3584 2315 3537 
Q 2597 3491 2834 3397 
z
" transform="scale(0.015625)"/>
       <path id="DejaVuSans-76" d="M 191 3500 
L 800 3500 
L 1894 563 
L 2988 3500 
L 3597 3500 
L 2284 0 
L 1503 0 
L 191 3500 
z
" transform="scale(0.015625)"/>
       <path id="DejaVuSans-54" d="M -19 4666 
L 3928 4666 
L 3928 4134 
L 2272 4134 
L 2272 0 
L 1638 0 
L 1638 4134 
L -19 4134 
L -19 4666 
z
" transform="scale(0.015625)"/>
      </defs>
      <use xlink:href="#DejaVuSans-53"/>
      <use xlink:href="#DejaVuSans-65" transform="translate(63.476562 0)"/>
      <use xlink:href="#DejaVuSans-6e" transform="translate(125 0)"/>
      <use xlink:href="#DejaVuSans-73" transform="translate(188.378906 0)"/>
      <use xlink:href="#DejaVuSans-69" transform="translate(240.478516 0)"/>
      <use xlink:href="#DejaVuSans-74" transform="translate(268.261719 0)"/>
      <use xlink:href="#DejaVuSans-69" transform="translate(307.470703 0)"/>
      <use xlink:href="#DejaVuSans-76" transform="translate(335.253906 0)"/>
      <use xlink:href="#DejaVuSans-69" transform="translate(394.433594 0)"/>
      <use xlink:href="#DejaVuSans-74" transform="translate(422.216797 0)"/>
      <use xlink:href="#DejaVuSans-79" transform="translate(461.425781 0)"/>
      <use xlink:href="#DejaVuSans-20" transform="translate(520.605469 0)"/>
      <use xlink:href="#DejaVuSans-28" transform="translate(552.392578 0)"/>
      <use xlink:href="#DejaVuSans-54" transform="translate(591.40625 0)"/>
      <use xlink:href="#DejaVuSans-50" transform="translate(652.490234 0)"/>
      <use xlink:href="#DejaVuSans-52" transform="translate(712.792969 0)"/>
      <use xlink:href="#DejaVuSans-29" transform="translate(782.275391 0)"/>
     </g>
    </g>
   </g>
   <g id="line2d_25">
    <path d="M 60.757614 368.970852 
L 60.757614 353.759962 
L 61.030326 353.759962 
L 61.030326 313.312823 
L 61.575752 313.312823 
L 61.575752 311.23861 
L 61.848464 311.23861 
L 61.848464 289.459382 
L 62.121177 289.459382 
L 62.121177 287.385169 
L 62.39389 287.385169 
L 62.39389 285.656659 
L 62.666602 285.656659 
L 62.666602 281.853937 
L 62.939315 281.853937 
L 62.939315 281.508234 
L 63.212028 281.508234 
L 63.212028 277.014108 
L 63.48474 277.014108 
L 63.48474 274.939896 
L 63.757453 274.939896 
L 63.757453 274.594194 
L 64.030166 274.594194 
L 64.030166 269.062961 
L 64.302878 269.062961 
L 64.302878 260.766112 
L 64.575591 260.766112 
L 64.575591 260.074708 
L 64.848304 260.074708 
L 64.848304 259.729006 
L 65.121016 259.729006 
L 65.121016 259.037601 
L 65.393729 259.037601 
L 65.393729 258.691899 
L 65.939154 258.691899 
L 65.939154 255.926283 
L 66.211867 255.926283 
L 66.211867 254.197773 
L 66.48458 254.197773 
L 66.48458 251.432156 
L 67.030005 251.432156 
L 67.030005 249.703646 
L 67.302718 249.703646 
L 67.302718 248.320838 
L 67.57543 248.320838 
L 67.57543 246.93803 
L 67.848143 246.93803 
L 67.848143 244.518115 
L 68.393568 244.518115 
L 68.393568 244.172413 
L 68.666281 244.172413 
L 68.666281 238.986883 
L 68.938994 238.986883 
L 68.938994 237.258373 
L 69.484419 237.258373 
L 69.484419 236.221266 
L 69.757132 236.221266 
L 69.757132 233.45565 
L 70.029844 233.45565 
L 70.029844 231.72714 
L 70.302557 231.72714 
L 70.302557 230.690034 
L 70.57527 230.690034 
L 70.57527 229.307225 
L 70.847982 229.307225 
L 70.847982 228.270119 
L 71.393408 228.270119 
L 71.393408 227.233013 
L 71.66612 227.233013 
L 71.66612 222.738887 
L 71.938833 222.738887 
L 71.938833 216.861952 
L 72.211546 216.861952 
L 72.211546 215.133442 
L 72.484258 215.133442 
L 72.484258 214.442037 
L 72.756971 214.442037 
L 72.756971 212.022123 
L 73.029684 212.022123 
L 73.029684 210.293613 
L 73.302396 210.293613 
L 73.302396 209.947911 
L 73.575109 209.947911 
L 73.575109 209.602209 
L 73.847822 209.602209 
L 73.847822 208.910805 
L 74.393247 208.910805 
L 74.393247 204.070976 
L 74.66596 204.070976 
L 74.66596 203.379572 
L 74.938672 203.379572 
L 74.938672 196.811233 
L 75.484098 196.811233 
L 75.484098 195.774127 
L 75.75681 195.774127 
L 75.75681 195.428425 
L 76.029523 195.428425 
L 76.029523 194.045617 
L 76.302236 194.045617 
L 76.302236 190.242894 
L 76.574948 190.242894 
L 76.574948 189.897192 
L 76.847661 189.897192 
L 76.847661 189.55149 
L 77.120374 189.55149 
L 77.120374 189.205788 
L 77.393086 189.205788 
L 77.393086 186.09447 
L 77.665799 186.09447 
L 77.665799 183.674555 
L 78.211224 183.674555 
L 78.211224 183.328853 
L 78.483937 183.328853 
L 78.483937 180.908939 
L 78.75665 180.908939 
L 78.75665 173.649196 
L 79.029362 173.649196 
L 79.029362 172.957792 
L 79.302075 172.957792 
L 79.302075 172.266388 
L 79.574788 172.266388 
L 79.574788 171.920686 
L 79.8475 171.920686 
L 79.8475 166.043751 
L 80.120213 166.043751 
L 80.120213 163.623837 
L 80.665638 163.623837 
L 80.665638 162.932432 
L 80.938351 162.932432 
L 80.938351 162.58673 
L 81.211064 162.58673 
L 81.211064 162.241028 
L 81.483776 162.241028 
L 81.483776 159.12971 
L 81.756489 159.12971 
L 81.756489 155.672689 
L 82.029202 155.672689 
L 82.029202 155.326987 
L 82.301914 155.326987 
L 82.301914 150.141457 
L 82.574627 150.141457 
L 82.574627 144.610224 
L 82.84734 144.610224 
L 82.84734 143.91882 
L 83.392765 143.91882 
L 83.392765 142.536012 
L 84.483616 142.536012 
L 84.483616 141.844608 
L 85.029041 141.844608 
L 85.029041 140.807501 
L 85.301754 140.807501 
L 85.301754 139.770395 
L 85.574467 139.770395 
L 85.574467 139.424693 
L 85.847179 139.424693 
L 85.847179 139.078991 
L 86.119892 139.078991 
L 86.119892 138.041885 
L 86.392605 138.041885 
L 86.392605 137.350481 
L 86.665317 137.350481 
L 86.665317 135.276269 
L 87.210743 135.276269 
L 87.210743 132.856354 
L 87.483455 132.856354 
L 87.483455 132.16495 
L 87.756168 132.16495 
L 87.756168 130.43644 
L 88.028881 130.43644 
L 88.028881 130.090738 
L 88.301593 130.090738 
L 88.301593 129.053632 
L 88.574306 129.053632 
L 88.574306 128.362228 
L 89.392444 128.362228 
L 89.392444 127.325122 
L 89.665157 127.325122 
L 89.665157 125.942313 
L 89.937869 125.942313 
L 89.937869 125.596611 
L 90.210582 125.596611 
L 90.210582 124.905207 
L 90.483295 124.905207 
L 90.483295 122.485293 
L 90.756007 122.485293 
L 90.756007 122.139591 
L 91.02872 122.139591 
L 91.02872 119.373975 
L 91.301433 119.373975 
L 91.301433 117.991166 
L 91.846858 117.991166 
L 91.846858 116.95406 
L 92.119571 116.95406 
L 92.119571 115.916954 
L 92.392283 115.916954 
L 92.392283 115.571252 
L 92.664996 115.571252 
L 92.664996 115.22555 
L 93.210421 115.22555 
L 93.210421 112.805636 
L 93.483134 112.805636 
L 93.483134 112.459934 
L 93.755847 112.459934 
L 93.755847 107.620105 
L 94.028559 107.620105 
L 94.028559 106.582999 
L 94.301272 106.582999 
L 94.301272 105.891595 
L 94.573985 105.891595 
L 94.573985 105.545893 
L 95.11941 105.545893 
L 95.11941 104.854489 
L 95.392123 104.854489 
L 95.392123 104.508787 
L 95.937548 104.508787 
L 95.937548 102.780276 
L 96.210261 102.780276 
L 96.210261 102.434574 
L 96.482973 102.434574 
L 96.482973 101.397468 
L 97.301111 101.397468 
L 97.301111 100.360362 
L 97.573824 100.360362 
L 97.573824 100.01466 
L 97.846537 100.01466 
L 97.846537 99.323256 
L 98.391962 99.323256 
L 98.391962 97.594746 
L 98.664675 97.594746 
L 98.664675 95.174831 
L 99.2101 95.174831 
L 99.2101 94.829129 
L 99.482813 94.829129 
L 99.482813 94.483427 
L 99.755525 94.483427 
L 99.755525 93.446321 
L 101.391801 93.446321 
L 101.391801 93.100619 
L 101.664514 93.100619 
L 101.664514 92.409215 
L 102.209939 92.409215 
L 102.209939 92.063513 
L 102.482652 92.063513 
L 102.482652 91.717811 
L 102.755365 91.717811 
L 102.755365 89.989301 
L 103.028077 89.989301 
L 103.028077 87.569386 
L 103.30079 87.569386 
L 103.30079 87.223684 
L 103.846215 87.223684 
L 103.846215 85.149472 
L 104.118928 85.149472 
L 104.118928 84.80377 
L 104.664353 84.80377 
L 104.664353 84.458068 
L 104.937066 84.458068 
L 104.937066 83.420962 
L 105.755204 83.420962 
L 105.755204 82.729558 
L 106.027917 82.729558 
L 106.027917 82.038154 
L 106.846055 82.038154 
L 106.846055 81.692452 
L 107.39148 81.692452 
L 107.39148 81.346749 
L 107.664193 81.346749 
L 107.664193 81.001047 
L 108.209618 81.001047 
L 108.209618 78.235431 
L 108.482331 78.235431 
L 108.482331 77.889729 
L 108.755043 77.889729 
L 108.755043 77.544027 
L 109.027756 77.544027 
L 109.027756 76.506921 
L 109.300469 76.506921 
L 109.300469 75.469815 
L 109.573181 75.469815 
L 109.573181 75.124113 
L 110.118607 75.124113 
L 110.118607 74.087006 
L 110.391319 74.087006 
L 110.391319 72.704198 
L 110.664032 72.704198 
L 110.664032 72.358496 
L 110.936745 72.358496 
L 110.936745 70.975688 
L 111.754883 70.975688 
L 111.754883 70.629986 
L 112.300308 70.629986 
L 112.300308 69.938582 
L 112.573021 69.938582 
L 112.573021 68.901476 
L 112.845733 68.901476 
L 112.845733 68.555774 
L 114.209297 68.555774 
L 114.209297 68.210072 
L 115.57286 68.210072 
L 115.57286 67.518668 
L 115.845573 67.518668 
L 115.845573 67.172966 
L 116.390998 67.172966 
L 116.390998 66.827264 
L 116.663711 66.827264 
L 116.663711 66.481561 
L 116.936423 66.481561 
L 116.936423 65.444455 
L 117.209136 65.444455 
L 117.209136 65.098753 
L 117.481849 65.098753 
L 117.481849 64.407349 
L 118.027274 64.407349 
L 118.027274 64.061647 
L 118.299987 64.061647 
L 118.299987 63.370243 
L 118.845412 63.370243 
L 118.845412 63.024541 
L 120.208975 63.024541 
L 120.208975 62.678839 
L 120.481688 62.678839 
L 120.481688 62.333137 
L 120.754401 62.333137 
L 120.754401 60.950329 
L 121.027113 60.950329 
L 121.027113 60.604627 
L 121.299826 60.604627 
L 121.299826 60.258925 
L 122.117964 60.258925 
L 122.117964 59.567521 
L 124.299665 59.567521 
L 124.299665 58.876116 
L 125.663229 58.876116 
L 125.663229 58.530414 
L 125.935941 58.530414 
L 125.935941 58.184712 
L 126.754079 58.184712 
L 126.754079 57.493308 
L 127.299505 57.493308 
L 127.299505 57.147606 
L 129.753919 57.147606 
L 129.753919 56.801904 
L 130.026632 56.801904 
L 130.026632 56.1105 
L 130.299344 56.1105 
L 130.299344 55.764798 
L 130.84477 55.764798 
L 130.84477 55.419096 
L 131.117482 55.419096 
L 131.117482 55.073394 
L 131.93562 55.073394 
L 131.93562 54.727692 
L 132.753758 54.727692 
L 132.753758 54.38199 
L 133.299184 54.38199 
L 133.299184 54.036288 
L 134.93546 54.036288 
L 134.93546 53.344884 
L 135.208172 53.344884 
L 135.208172 52.999182 
L 135.753598 52.999182 
L 135.753598 52.65348 
L 136.02631 52.65348 
L 136.02631 52.307778 
L 136.571736 52.307778 
L 136.571736 51.962075 
L 139.571575 51.962075 
L 139.571575 51.616373 
L 140.389713 51.616373 
L 140.389713 51.270671 
L 140.662426 51.270671 
L 140.662426 50.924969 
L 140.935138 50.924969 
L 140.935138 50.579267 
L 141.480564 50.579267 
L 141.480564 50.233565 
L 142.025989 50.233565 
L 142.025989 49.196459 
L 143.389552 49.196459 
L 143.389552 48.850757 
L 143.934978 48.850757 
L 143.934978 48.505055 
L 146.389392 48.505055 
L 146.389392 48.159353 
L 148.29838 48.159353 
L 148.29838 47.813651 
L 150.752794 47.813651 
L 150.752794 47.467949 
L 151.29822 47.467949 
L 151.29822 47.122247 
L 154.298059 47.122247 
L 154.298059 46.430843 
L 155.116197 46.430843 
L 155.116197 46.085141 
L 156.752473 46.085141 
L 156.752473 45.739439 
L 159.206887 45.739439 
L 159.206887 45.393737 
L 161.388588 45.393737 
L 161.388588 45.048035 
L 162.206726 45.048035 
L 162.206726 44.702333 
L 169.297256 44.702333 
L 169.297256 44.010928 
L 170.115394 44.010928 
L 170.115394 43.665226 
L 171.75167 43.665226 
L 171.75167 43.319524 
L 176.115073 43.319524 
L 176.115073 42.973822 
L 185.387303 42.973822 
L 185.387303 42.62812 
L 186.478154 42.62812 
L 186.478154 42.282418 
L 187.296292 42.282418 
L 187.296292 41.591014 
L 188.659855 41.591014 
L 188.659855 40.89961 
L 192.477833 40.89961 
L 192.477833 40.553908 
L 200.113787 40.553908 
L 200.113787 40.208206 
L 204.47719 40.208206 
L 204.47719 39.862504 
L 222.748939 39.862504 
L 222.748939 39.516802 
L 227.385054 39.516802 
L 227.385054 39.1711 
L 238.838986 39.1711 
L 238.838986 38.825398 
L 400.284886 38.825398 
L 400.284886 38.825398 
" clip-path="url(#pd590dee99a)" style="fill: none; stroke: #1f77b4; stroke-width: 1.6; stroke-linecap: square"/>
   </g>
   <g id="line2d_26">
    <path d="M 60.757614 368.970852 
L 60.757614 343.635949 
L 60.948038 342.844234 
L 60.948038 339.677371 
L 61.138463 339.677371 
L 61.138463 338.093939 
L 61.519313 338.093939 
L 61.519313 307.217026 
L 61.709737 307.217026 
L 61.709737 296.133006 
L 61.900162 296.133006 
L 61.900162 292.966143 
L 62.090587 292.966143 
L 62.090587 288.215849 
L 62.281011 288.215849 
L 62.281011 279.506976 
L 62.852286 279.506976 
L 62.852286 275.548398 
L 63.04271 275.548398 
L 63.04271 273.964966 
L 63.233135 273.964966 
L 63.233135 271.589819 
L 63.42356 271.589819 
L 63.42356 270.006387 
L 63.613984 270.006387 
L 63.613984 262.880946 
L 63.804409 262.880946 
L 63.804409 257.338936 
L 63.994834 257.338936 
L 63.994834 251.796926 
L 64.185259 251.796926 
L 64.185259 249.421779 
L 64.375683 249.421779 
L 64.375683 242.296337 
L 64.566108 242.296337 
L 64.566108 241.504622 
L 64.946957 241.504622 
L 64.946957 240.712906 
L 65.137382 240.712906 
L 65.137382 239.129474 
L 65.518232 239.129474 
L 65.518232 238.337759 
L 65.708656 238.337759 
L 65.708656 237.546043 
L 65.899081 237.546043 
L 65.899081 235.962612 
L 66.089506 235.962612 
L 66.089506 230.420602 
L 66.27993 230.420602 
L 66.27993 218.544866 
L 66.470355 218.544866 
L 66.470355 216.961434 
L 66.66078 216.961434 
L 66.66078 214.586287 
L 67.232054 214.586287 
L 67.232054 213.002856 
L 67.422479 213.002856 
L 67.422479 212.21114 
L 67.612903 212.21114 
L 67.612903 209.835993 
L 67.993753 209.835993 
L 67.993753 207.460846 
L 68.184178 207.460846 
L 68.184178 204.293983 
L 68.374602 204.293983 
L 68.374602 203.502267 
L 68.565027 203.502267 
L 68.565027 202.710551 
L 68.755452 202.710551 
L 68.755452 199.543689 
L 68.945877 199.543689 
L 68.945877 196.376826 
L 69.136301 196.376826 
L 69.136301 194.001679 
L 70.088425 194.001679 
L 70.088425 193.209963 
L 70.469274 193.209963 
L 70.469274 188.459668 
L 70.659699 188.459668 
L 70.659699 186.876237 
L 71.230973 186.876237 
L 71.230973 183.709374 
L 71.611823 183.709374 
L 71.611823 182.917658 
L 71.802247 182.917658 
L 71.802247 179.750796 
L 71.992672 179.750796 
L 71.992672 178.95908 
L 72.183097 178.95908 
L 72.183097 177.375648 
L 72.944796 177.375648 
L 72.944796 176.583933 
L 73.13522 176.583933 
L 73.13522 174.208786 
L 73.325645 174.208786 
L 73.325645 173.41707 
L 74.468193 173.41707 
L 74.468193 172.625354 
L 74.658618 172.625354 
L 74.658618 171.833638 
L 74.849043 171.833638 
L 74.849043 167.87506 
L 75.420317 167.87506 
L 75.420317 166.291628 
L 75.610742 166.291628 
L 75.610742 165.499913 
L 75.801166 165.499913 
L 75.801166 163.916481 
L 76.372441 163.916481 
L 76.372441 163.124766 
L 76.562865 163.124766 
L 76.562865 162.33305 
L 77.134139 162.33305 
L 77.134139 159.957903 
L 77.514989 159.957903 
L 77.514989 158.374471 
L 78.086263 158.374471 
L 78.086263 156.79104 
L 78.276688 156.79104 
L 78.276688 154.415893 
L 78.467112 154.415893 
L 78.467112 153.624177 
L 79.419236 153.624177 
L 79.419236 152.832461 
L 79.609661 152.832461 
L 79.609661 151.24903 
L 79.800085 151.24903 
L 79.800085 149.665598 
L 80.37136 149.665598 
L 80.37136 147.290451 
L 80.752209 147.290451 
L 80.752209 146.498735 
L 80.942634 146.498735 
L 80.942634 144.123588 
L 81.513908 144.123588 
L 81.513908 143.331873 
L 81.704333 143.331873 
L 81.704333 142.540157 
L 82.466032 142.540157 
L 82.466032 141.748441 
L 82.846881 141.748441 
L 82.846881 140.16501 
L 83.037306 140.16501 
L 83.037306 138.581578 
L 83.418155 138.581578 
L 83.418155 137.789863 
L 83.989429 137.789863 
L 83.989429 136.998147 
L 84.179854 136.998147 
L 84.179854 136.206431 
L 84.370279 136.206431 
L 84.370279 134.623 
L 85.131978 134.623 
L 85.131978 133.831284 
L 85.512827 133.831284 
L 85.512827 133.039568 
L 85.893676 133.039568 
L 85.893676 131.456137 
L 87.607499 131.456137 
L 87.607499 130.664421 
L 88.559623 130.664421 
L 88.559623 129.08099 
L 89.511746 129.08099 
L 89.511746 128.289274 
L 89.702171 128.289274 
L 89.702171 124.330695 
L 90.08302 124.330695 
L 90.08302 120.372117 
L 90.654294 120.372117 
L 90.654294 119.580401 
L 91.225569 119.580401 
L 91.225569 118.788685 
L 91.606418 118.788685 
L 91.606418 117.205254 
L 91.796843 117.205254 
L 91.796843 116.413538 
L 93.129816 116.413538 
L 93.129816 115.621822 
L 94.653213 115.621822 
L 94.653213 114.830107 
L 95.224488 114.830107 
L 95.224488 112.45496 
L 95.605337 112.45496 
L 95.605337 110.871528 
L 95.795762 110.871528 
L 95.795762 110.079812 
L 97.128735 110.079812 
L 97.128735 107.704665 
L 97.31916 107.704665 
L 97.31916 106.91295 
L 98.080858 106.91295 
L 98.080858 106.121234 
L 98.652133 106.121234 
L 98.652133 105.329518 
L 99.032982 105.329518 
L 99.032982 104.537802 
L 99.985106 104.537802 
L 99.985106 103.746087 
L 100.937229 103.746087 
L 100.937229 102.954371 
L 102.841476 102.954371 
L 102.841476 102.162655 
L 103.412751 102.162655 
L 103.412751 100.579224 
L 105.888272 100.579224 
L 105.888272 98.995792 
L 106.649971 98.995792 
L 106.649971 97.412361 
L 107.792519 97.412361 
L 107.792519 96.620645 
L 109.315917 96.620645 
L 109.315917 95.828929 
L 110.26804 95.828929 
L 110.26804 95.037214 
L 112.362712 95.037214 
L 112.362712 94.245498 
L 112.933986 94.245498 
L 112.933986 92.662067 
L 113.124411 92.662067 
L 113.124411 91.870351 
L 113.314836 91.870351 
L 113.314836 91.078635 
L 114.266959 91.078635 
L 114.266959 90.286919 
L 115.028658 90.286919 
L 115.028658 89.495204 
L 115.790357 89.495204 
L 115.790357 88.703488 
L 116.171207 88.703488 
L 116.171207 87.120057 
L 116.552056 87.120057 
L 116.552056 86.328341 
L 116.932906 86.328341 
L 116.932906 84.744909 
L 117.313755 84.744909 
L 117.313755 83.953194 
L 118.265879 83.953194 
L 118.265879 83.161478 
L 118.837153 83.161478 
L 118.837153 82.369762 
L 119.218002 82.369762 
L 119.218002 81.578047 
L 125.121168 81.578047 
L 125.121168 80.786331 
L 126.644566 80.786331 
L 126.644566 79.994615 
L 127.025416 79.994615 
L 127.025416 78.411184 
L 127.977539 78.411184 
L 127.977539 77.619468 
L 128.358389 77.619468 
L 128.358389 76.827752 
L 128.929663 76.827752 
L 128.929663 76.036036 
L 131.214759 76.036036 
L 131.214759 75.244321 
L 131.786034 75.244321 
L 131.786034 73.660889 
L 133.309431 73.660889 
L 133.309431 72.869174 
L 135.784953 72.869174 
L 135.784953 72.077458 
L 135.975377 72.077458 
L 135.975377 71.285742 
L 136.737076 71.285742 
L 136.737076 70.494026 
L 139.403022 70.494026 
L 139.403022 69.702311 
L 140.735995 69.702311 
L 140.735995 68.910595 
L 141.497694 68.910595 
L 141.497694 68.118879 
L 142.449818 68.118879 
L 142.449818 67.327164 
L 148.733833 67.327164 
L 148.733833 66.535448 
L 154.446575 66.535448 
L 154.446575 65.743732 
L 154.637 65.743732 
L 154.637 64.952016 
L 157.112521 64.952016 
L 157.112521 64.160301 
L 158.255069 64.160301 
L 158.255069 63.368585 
L 158.826344 63.368585 
L 158.826344 61.785154 
L 162.444413 61.785154 
L 162.444413 60.993438 
L 162.634838 60.993438 
L 162.634838 60.201722 
L 163.015687 60.201722 
L 163.015687 59.410006 
L 167.585881 59.410006 
L 167.585881 58.618291 
L 168.347579 58.618291 
L 168.347579 57.034859 
L 171.5848 57.034859 
L 171.5848 56.243144 
L 172.156074 56.243144 
L 172.156074 55.451428 
L 177.487966 55.451428 
L 177.487966 54.659712 
L 178.05924 54.659712 
L 178.05924 53.867996 
L 178.249665 53.867996 
L 178.249665 53.076281 
L 178.630514 53.076281 
L 178.630514 52.284565 
L 181.67731 52.284565 
L 181.67731 51.492849 
L 184.91453 51.492849 
L 184.91453 50.701134 
L 185.866654 50.701134 
L 185.866654 49.909418 
L 186.437928 49.909418 
L 186.437928 48.325986 
L 187.770901 48.325986 
L 187.770901 47.534271 
L 193.483642 47.534271 
L 193.483642 46.742555 
L 196.149588 46.742555 
L 196.149588 45.950839 
L 211.383566 45.950839 
L 211.383566 45.159123 
L 223.380323 45.159123 
L 223.380323 44.367408 
L 239.566424 44.367408 
L 239.566424 43.575692 
L 268.130132 43.575692 
L 268.130132 42.783976 
L 271.748202 42.783976 
L 271.748202 41.992261 
L 338.206428 41.992261 
L 338.206428 41.200545 
L 348.108514 41.200545 
L 348.108514 40.408829 
L 356.868051 40.408829 
L 356.868051 39.617113 
L 359.724421 39.617113 
L 359.724421 38.825398 
L 400.284886 38.825398 
L 400.284886 38.825398 
" clip-path="url(#pd590dee99a)" style="fill: none; stroke: #ff7f0e; stroke-width: 1.6; stroke-linecap: square"/>
   </g>
   <g id="line2d_27">
    <path d="M 60.757614 368.970852 
L 60.757614 350.737967 
L 60.958161 350.737967 
L 60.958161 343.575048 
L 61.158709 343.575048 
L 61.158709 339.668001 
L 61.359257 339.668001 
L 61.359257 335.760954 
L 61.559804 335.760954 
L 61.559804 335.10978 
L 61.760352 335.10978 
L 61.760352 332.505082 
L 61.9609 332.505082 
L 61.9609 327.946861 
L 62.161448 327.946861 
L 62.161448 321.435116 
L 62.361995 321.435116 
L 62.361995 313.621023 
L 62.562543 313.621023 
L 62.562543 312.318674 
L 62.763091 312.318674 
L 62.763091 302.551057 
L 62.963638 302.551057 
L 62.963638 299.946359 
L 63.164186 299.946359 
L 63.164186 295.388138 
L 63.364734 295.388138 
L 63.364734 288.876393 
L 63.565282 288.876393 
L 63.565282 283.666997 
L 63.765829 283.666997 
L 63.765829 283.015823 
L 63.966377 283.015823 
L 63.966377 269.341159 
L 64.166925 269.341159 
L 64.166925 268.689984 
L 64.367472 268.689984 
L 64.367472 268.03881 
L 64.56802 268.03881 
L 64.56802 264.131763 
L 64.768568 264.131763 
L 64.768568 263.480589 
L 64.969116 263.480589 
L 64.969116 262.829414 
L 65.169663 262.829414 
L 65.169663 258.271193 
L 65.370211 258.271193 
L 65.370211 256.968844 
L 65.570759 256.968844 
L 65.570759 254.364146 
L 65.771306 254.364146 
L 65.771306 251.108274 
L 65.971854 251.108274 
L 65.971854 247.201227 
L 66.172402 247.201227 
L 66.172402 245.898878 
L 66.37295 245.898878 
L 66.37295 241.991831 
L 66.573497 241.991831 
L 66.573497 237.43361 
L 66.774045 237.43361 
L 66.774045 233.526563 
L 66.974593 233.526563 
L 66.974593 232.875389 
L 67.17514 232.875389 
L 67.17514 231.57304 
L 67.375688 231.57304 
L 67.375688 225.061295 
L 67.576236 225.061295 
L 67.576236 221.805423 
L 67.776783 221.805423 
L 67.776783 216.596027 
L 67.977331 216.596027 
L 67.977331 208.781933 
L 68.177879 208.781933 
L 68.177879 205.526061 
L 68.378427 205.526061 
L 68.378427 204.223712 
L 68.578974 204.223712 
L 68.578974 200.96784 
L 68.779522 200.96784 
L 68.779522 197.711968 
L 68.98007 197.711968 
L 68.98007 191.851397 
L 69.180617 191.851397 
L 69.180617 191.200223 
L 69.381165 191.200223 
L 69.381165 189.897874 
L 69.982808 189.897874 
L 69.982808 188.595525 
L 70.383904 188.595525 
L 70.383904 184.688478 
L 70.584451 184.688478 
L 70.584451 182.08378 
L 70.784999 182.08378 
L 70.784999 181.432606 
L 70.985547 181.432606 
L 70.985547 180.130257 
L 71.386642 180.130257 
L 71.386642 177.525559 
L 71.787738 177.525559 
L 71.787738 176.874385 
L 72.188833 176.874385 
L 72.188833 173.618512 
L 72.389381 173.618512 
L 72.389381 172.967338 
L 72.790476 172.967338 
L 72.790476 169.060291 
L 72.991024 169.060291 
L 72.991024 167.106768 
L 73.793215 167.106768 
L 73.793215 166.455593 
L 74.394858 166.455593 
L 74.394858 164.50207 
L 74.595406 164.50207 
L 74.595406 163.850895 
L 74.795953 163.850895 
L 74.795953 162.548546 
L 74.996501 162.548546 
L 74.996501 160.595023 
L 75.197049 160.595023 
L 75.197049 156.687976 
L 75.598144 156.687976 
L 75.598144 153.432104 
L 75.798692 153.432104 
L 75.798692 150.176232 
L 75.99924 150.176232 
L 75.99924 149.525057 
L 76.199787 149.525057 
L 76.199787 148.222708 
L 76.400335 148.222708 
L 76.400335 147.571534 
L 76.600883 147.571534 
L 76.600883 146.920359 
L 77.001978 146.920359 
L 77.001978 145.61801 
L 77.202526 145.61801 
L 77.202526 144.966836 
L 77.403074 144.966836 
L 77.403074 143.664487 
L 77.804169 143.664487 
L 77.804169 142.362138 
L 78.205264 142.362138 
L 78.205264 141.710963 
L 78.405812 141.710963 
L 78.405812 141.059789 
L 79.007455 141.059789 
L 79.007455 140.408615 
L 79.408551 140.408615 
L 79.408551 139.75744 
L 79.809646 139.75744 
L 79.809646 139.106266 
L 80.210741 139.106266 
L 80.210741 138.455091 
L 80.411289 138.455091 
L 80.411289 136.501568 
L 80.611837 136.501568 
L 80.611837 135.199219 
L 80.812385 135.199219 
L 80.812385 133.89687 
L 81.012932 133.89687 
L 81.012932 132.594521 
L 81.414028 132.594521 
L 81.414028 131.943346 
L 81.614575 131.943346 
L 81.614575 131.292172 
L 82.015671 131.292172 
L 82.015671 130.640998 
L 82.416766 130.640998 
L 82.416766 129.989823 
L 82.817862 129.989823 
L 82.817862 129.338649 
L 83.018409 129.338649 
L 83.018409 128.687474 
L 83.8206 128.687474 
L 83.8206 127.385125 
L 84.021148 127.385125 
L 84.021148 126.733951 
L 84.422243 126.733951 
L 84.422243 126.082776 
L 84.622791 126.082776 
L 84.622791 123.478078 
L 84.823339 123.478078 
L 84.823339 122.826904 
L 85.424982 122.826904 
L 85.424982 121.524555 
L 85.826077 121.524555 
L 85.826077 120.873381 
L 87.029364 120.873381 
L 87.029364 120.222206 
L 87.430459 120.222206 
L 87.430459 119.571032 
L 87.831554 119.571032 
L 87.831554 117.617508 
L 88.23265 117.617508 
L 88.23265 116.315159 
L 88.433198 116.315159 
L 88.433198 115.01281 
L 88.633745 115.01281 
L 88.633745 112.408112 
L 89.034841 112.408112 
L 89.034841 111.756938 
L 89.435936 111.756938 
L 89.435936 111.105764 
L 90.037579 111.105764 
L 90.037579 109.803415 
L 90.83977 109.803415 
L 90.83977 109.15224 
L 91.040318 109.15224 
L 91.040318 108.501066 
L 91.441413 108.501066 
L 91.441413 107.198717 
L 92.043056 107.198717 
L 92.043056 106.547542 
L 92.444152 106.547542 
L 92.444152 105.896368 
L 93.045795 105.896368 
L 93.045795 105.245193 
L 93.847986 105.245193 
L 93.847986 104.594019 
L 94.249081 104.594019 
L 94.249081 101.338147 
L 94.650177 101.338147 
L 94.650177 100.686972 
L 96.054011 100.686972 
L 96.054011 99.384623 
L 96.254558 99.384623 
L 96.254558 98.733449 
L 96.455106 98.733449 
L 96.455106 98.082274 
L 97.257297 98.082274 
L 97.257297 97.4311 
L 97.457845 97.4311 
L 97.457845 96.779925 
L 98.260035 96.779925 
L 98.260035 95.477576 
L 98.661131 95.477576 
L 98.661131 94.826402 
L 99.262774 94.826402 
L 99.262774 94.175227 
L 99.463322 94.175227 
L 99.463322 92.872878 
L 99.663869 92.872878 
L 99.663869 92.221704 
L 99.864417 92.221704 
L 99.864417 91.57053 
L 100.46606 91.57053 
L 100.46606 90.919355 
L 101.067703 90.919355 
L 101.067703 90.268181 
L 102.672085 90.268181 
L 102.672085 89.617006 
L 103.07318 89.617006 
L 103.07318 88.965832 
L 104.677562 88.965832 
L 104.677562 88.314657 
L 104.87811 88.314657 
L 104.87811 87.663483 
L 105.479753 87.663483 
L 105.479753 87.012308 
L 105.880848 87.012308 
L 105.880848 85.709959 
L 106.081396 85.709959 
L 106.081396 85.058785 
L 106.281944 85.058785 
L 106.281944 84.40761 
L 107.685778 84.40761 
L 107.685778 83.105261 
L 109.290159 83.105261 
L 109.290159 82.454087 
L 109.490707 82.454087 
L 109.490707 81.802913 
L 109.691255 81.802913 
L 109.691255 81.151738 
L 111.696732 81.151738 
L 111.696732 80.500564 
L 114.103304 80.500564 
L 114.103304 79.198215 
L 114.704948 79.198215 
L 114.704948 78.54704 
L 115.908234 78.54704 
L 115.908234 77.244691 
L 116.309329 77.244691 
L 116.309329 76.593517 
L 118.114259 76.593517 
L 118.114259 75.942342 
L 119.71864 75.942342 
L 119.71864 75.291168 
L 120.721379 75.291168 
L 120.721379 74.639993 
L 120.921927 74.639993 
L 120.921927 73.988819 
L 122.526308 73.988819 
L 122.526308 72.68647 
L 122.726856 72.68647 
L 122.726856 71.384121 
L 123.529047 71.384121 
L 123.529047 70.732947 
L 124.331238 70.732947 
L 124.331238 70.081772 
L 128.342192 70.081772 
L 128.342192 69.430598 
L 129.545478 69.430598 
L 129.545478 68.779423 
L 129.946574 68.779423 
L 129.946574 68.128249 
L 136.564648 68.128249 
L 136.564648 67.477074 
L 138.16903 67.477074 
L 138.16903 66.8259 
L 138.570125 66.8259 
L 138.570125 66.174725 
L 140.77615 66.174725 
L 140.77615 65.523551 
L 141.377793 65.523551 
L 141.377793 64.872376 
L 143.38327 64.872376 
L 143.38327 64.221202 
L 144.586556 64.221202 
L 144.586556 63.570027 
L 146.391486 63.570027 
L 146.391486 62.918853 
L 149.399701 62.918853 
L 149.399701 62.267679 
L 150.001345 62.267679 
L 150.001345 61.616504 
L 150.40244 61.616504 
L 150.40244 60.96533 
L 150.803535 60.96533 
L 150.803535 60.314155 
L 154.212846 60.314155 
L 154.212846 59.662981 
L 154.413394 59.662981 
L 154.413394 59.011806 
L 154.613942 59.011806 
L 154.613942 58.360632 
L 156.619419 58.360632 
L 156.619419 57.709457 
L 158.424348 57.709457 
L 158.424348 57.058283 
L 161.031469 57.058283 
L 161.031469 56.407108 
L 161.232016 56.407108 
L 161.232016 55.755934 
L 161.432564 55.755934 
L 161.432564 55.104759 
L 162.435303 55.104759 
L 162.435303 54.453585 
L 164.841875 54.453585 
L 164.841875 53.80241 
L 165.443518 53.80241 
L 165.443518 53.151236 
L 166.847352 53.151236 
L 166.847352 52.500062 
L 167.0479 52.500062 
L 167.0479 51.848887 
L 167.649543 51.848887 
L 167.649543 51.197713 
L 169.253925 51.197713 
L 169.253925 50.546538 
L 180.685144 50.546538 
L 180.685144 49.895364 
L 184.094455 49.895364 
L 184.094455 49.244189 
L 188.305957 49.244189 
L 188.305957 48.593015 
L 189.509243 48.593015 
L 189.509243 47.94184 
L 195.124579 47.94184 
L 195.124579 47.290666 
L 203.347035 47.290666 
L 203.347035 46.639491 
L 206.756346 46.639491 
L 206.756346 45.988317 
L 208.16018 45.988317 
L 208.16018 45.337142 
L 210.366205 45.337142 
L 210.366205 44.685968 
L 213.173873 44.685968 
L 213.173873 44.034793 
L 219.791948 44.034793 
L 219.791948 43.383619 
L 224.80564 43.383619 
L 224.80564 42.732445 
L 235.835764 42.732445 
L 235.835764 42.08127 
L 239.646171 42.08127 
L 239.646171 41.430096 
L 257.695465 41.430096 
L 257.695465 40.778921 
L 290.986385 40.778921 
L 290.986385 40.127747 
L 326.282781 40.127747 
L 326.282781 39.476572 
L 331.69757 39.476572 
L 331.69757 38.825398 
L 400.284886 38.825398 
L 400.284886 38.825398 
" clip-path="url(#pd590dee99a)" style="fill: none; stroke: #2ca02c; stroke-width: 1.6; stroke-linecap: square"/>
   </g>
   <g id="line2d_28">
    <path d="M 60.757614 368.970852 
L 60.757614 343.064066 
L 60.956984 343.064066 
L 60.956984 306.528855 
L 61.156354 306.528855 
L 61.156354 283.943452 
L 61.355724 283.943452 
L 61.355724 283.279175 
L 61.555094 283.279175 
L 61.555094 281.286345 
L 61.754464 281.286345 
L 61.754464 275.972133 
L 61.953834 275.972133 
L 61.953834 270.65792 
L 62.153204 270.65792 
L 62.153204 266.007984 
L 62.551944 266.007984 
L 62.551944 259.365218 
L 62.751315 259.365218 
L 62.751315 245.415411 
L 62.950685 245.415411 
L 62.950685 244.086857 
L 63.150055 243.422581 
L 63.150055 228.14422 
L 63.349425 228.14422 
L 63.349425 221.501454 
L 63.548795 221.501454 
L 63.548795 218.180071 
L 63.748165 218.180071 
L 63.748165 216.187242 
L 63.947535 216.187242 
L 63.947535 212.201582 
L 64.346275 212.201582 
L 64.346275 208.215923 
L 64.545645 208.215923 
L 64.545645 206.88737 
L 64.745016 206.88737 
L 64.745016 202.237434 
L 65.143756 202.237434 
L 65.143756 201.573157 
L 65.343126 201.573157 
L 65.343126 200.244604 
L 65.542496 200.244604 
L 65.542496 199.580327 
L 65.741866 199.580327 
L 65.741866 196.923221 
L 65.941236 196.923221 
L 65.941236 195.594668 
L 66.140606 195.594668 
L 66.140606 194.930391 
L 66.738717 194.930391 
L 66.738717 194.266115 
L 66.938087 194.266115 
L 66.938087 192.273285 
L 67.137457 192.273285 
L 67.137457 188.951902 
L 67.336827 188.951902 
L 67.336827 183.63769 
L 67.735567 183.63769 
L 67.735567 182.309137 
L 67.934937 182.309137 
L 67.934937 181.64486 
L 68.333677 181.64486 
L 68.333677 180.980583 
L 68.533047 180.980583 
L 68.533047 171.680711 
L 68.732417 171.680711 
L 68.732417 171.016435 
L 69.131158 171.016435 
L 69.131158 169.023605 
L 69.330528 169.023605 
L 69.330528 165.702222 
L 69.529898 165.702222 
L 69.529898 163.709393 
L 69.729268 163.709393 
L 69.729268 163.045116 
L 70.526748 163.045116 
L 70.526748 162.380839 
L 70.726118 162.380839 
L 70.726118 161.716563 
L 70.925489 161.716563 
L 70.925489 161.052286 
L 71.124859 161.052286 
L 71.124859 160.38801 
L 71.722969 160.38801 
L 71.722969 159.723733 
L 71.922339 159.723733 
L 71.922339 157.730903 
L 72.520449 157.730903 
L 72.520449 155.073797 
L 72.719819 155.073797 
L 72.719819 154.409521 
L 72.919189 154.409521 
L 72.919189 153.745244 
L 73.11856 153.745244 
L 73.11856 153.080968 
L 74.11541 153.080968 
L 74.11541 152.416691 
L 74.31478 152.416691 
L 74.31478 150.423861 
L 74.51415 150.423861 
L 74.51415 149.759585 
L 74.91289 149.759585 
L 74.91289 149.095308 
L 75.112261 149.095308 
L 75.112261 148.431032 
L 75.511001 148.431032 
L 75.511001 147.766755 
L 75.909741 147.766755 
L 75.909741 145.773925 
L 76.109111 145.773925 
L 76.109111 143.781096 
L 76.906591 143.781096 
L 76.906591 143.116819 
L 77.105961 143.116819 
L 77.105961 142.452542 
L 77.504702 142.452542 
L 77.504702 141.123989 
L 77.704072 141.123989 
L 77.704072 139.13116 
L 78.302182 139.13116 
L 78.302182 137.802606 
L 78.501552 137.802606 
L 78.501552 137.13833 
L 78.700922 137.13833 
L 78.700922 136.474053 
L 78.900292 136.474053 
L 78.900292 135.809777 
L 79.299033 135.809777 
L 79.299033 135.1455 
L 79.498403 135.1455 
L 79.498403 134.481224 
L 80.295883 134.481224 
L 80.295883 133.816947 
L 81.093363 133.816947 
L 81.093363 131.824117 
L 81.292733 131.824117 
L 81.292733 130.495564 
L 82.289584 130.495564 
L 82.289584 129.831288 
L 82.688324 129.831288 
L 82.688324 129.167011 
L 82.887694 129.167011 
L 82.887694 128.502734 
L 83.485805 128.502734 
L 83.485805 127.174181 
L 83.685175 127.174181 
L 83.685175 126.509905 
L 83.884545 126.509905 
L 83.884545 125.845628 
L 85.479505 125.845628 
L 85.479505 125.181352 
L 85.678876 125.181352 
L 85.678876 123.852798 
L 86.077616 123.852798 
L 86.077616 123.188522 
L 86.276986 123.188522 
L 86.276986 122.524245 
L 86.476356 122.524245 
L 86.476356 121.859969 
L 86.875096 121.859969 
L 86.875096 121.195692 
L 87.672577 121.195692 
L 87.672577 119.867139 
L 87.871947 119.867139 
L 87.871947 118.538586 
L 88.270687 118.538586 
L 88.270687 117.874309 
L 89.068167 117.874309 
L 89.068167 115.88148 
L 89.466907 115.88148 
L 89.466907 114.552927 
L 89.865648 114.552927 
L 89.865648 113.88865 
L 90.862498 113.88865 
L 90.862498 112.560097 
L 92.656829 112.560097 
L 92.656829 111.89582 
L 93.055569 111.89582 
L 93.055569 111.231544 
L 94.65053 111.231544 
L 94.65053 110.567267 
L 95.64738 110.567267 
L 95.64738 109.902991 
L 95.84675 109.902991 
L 95.84675 109.238714 
L 96.843601 109.238714 
L 96.843601 108.574437 
L 97.242341 108.574437 
L 97.242341 107.910161 
L 97.441711 107.910161 
L 97.441711 107.245884 
L 98.637932 107.245884 
L 98.637932 106.581608 
L 99.634782 106.581608 
L 99.634782 105.253055 
L 100.432263 105.253055 
L 100.432263 104.588778 
L 100.631633 104.588778 
L 100.631633 103.260225 
L 101.030373 103.260225 
L 101.030373 101.931672 
L 103.024074 101.931672 
L 103.024074 101.267395 
L 104.020924 101.267395 
L 104.020924 100.603119 
L 104.419665 100.603119 
L 104.419665 99.938842 
L 105.017775 99.938842 
L 105.017775 99.274565 
L 106.213995 99.274565 
L 106.213995 98.610289 
L 108.407066 98.610289 
L 108.407066 97.946012 
L 108.606437 97.946012 
L 108.606437 96.617459 
L 110.201397 96.617459 
L 110.201397 95.953183 
L 110.998878 95.953183 
L 110.998878 94.624629 
L 112.195098 94.624629 
L 112.195098 93.960353 
L 112.992579 93.960353 
L 112.992579 92.6318 
L 115.78376 92.6318 
L 115.78376 91.967523 
L 116.1825 91.967523 
L 116.1825 91.303247 
L 116.78061 91.303247 
L 116.78061 90.63897 
L 118.574941 90.63897 
L 118.574941 89.974694 
L 119.173052 89.974694 
L 119.173052 88.64614 
L 119.571792 88.64614 
L 119.571792 87.981864 
L 120.169902 87.981864 
L 120.169902 87.317587 
L 120.768012 87.317587 
L 120.768012 86.653311 
L 121.964233 86.653311 
L 121.964233 85.324758 
L 125.154155 85.324758 
L 125.154155 83.331928 
L 126.151005 83.331928 
L 126.151005 82.667651 
L 126.948485 82.667651 
L 126.948485 82.003375 
L 128.344076 82.003375 
L 128.344076 81.339098 
L 130.935887 81.339098 
L 130.935887 80.674822 
L 131.135257 80.674822 
L 131.135257 80.010545 
L 131.533998 80.010545 
L 131.533998 79.346268 
L 132.331478 79.346268 
L 132.331478 78.681992 
L 133.926439 78.681992 
L 133.926439 78.017715 
L 134.524549 78.017715 
L 134.524549 77.353439 
L 134.723919 77.353439 
L 134.723919 76.689162 
L 136.11951 76.689162 
L 136.11951 76.024886 
L 140.505652 76.024886 
L 140.505652 75.360609 
L 144.094314 75.360609 
L 144.094314 74.696332 
L 144.293684 74.696332 
L 144.293684 74.032056 
L 147.483605 74.032056 
L 147.483605 73.367779 
L 149.078566 73.367779 
L 149.078566 72.703503 
L 149.676676 72.703503 
L 149.676676 72.039226 
L 149.876046 72.039226 
L 149.876046 71.37495 
L 151.271637 71.37495 
L 151.271637 70.710673 
L 151.471007 70.710673 
L 151.471007 70.046396 
L 156.45526 70.046396 
L 156.45526 68.717843 
L 156.65463 68.717843 
L 156.65463 68.053567 
L 159.246441 68.053567 
L 159.246441 67.38929 
L 161.040772 67.38929 
L 161.040772 66.725014 
L 163.433213 66.725014 
L 163.433213 66.060737 
L 164.230693 66.060737 
L 164.230693 65.39646 
L 168.018725 65.39646 
L 168.018725 64.732184 
L 173.401718 64.732184 
L 173.401718 64.067907 
L 174.996678 64.067907 
L 174.996678 63.403631 
L 178.58534 63.403631 
L 178.58534 62.739354 
L 178.98408 62.739354 
L 178.98408 62.075078 
L 188.952585 62.075078 
L 188.952585 61.410801 
L 191.743766 61.410801 
L 191.743766 60.746524 
L 195.731168 60.746524 
L 195.731168 60.082248 
L 204.304082 60.082248 
L 204.304082 59.417971 
L 204.503453 59.417971 
L 204.503453 58.753695 
L 211.481406 58.753695 
L 211.481406 58.089418 
L 219.05747 58.089418 
L 219.05747 57.425142 
L 219.45621 57.425142 
L 219.45621 56.760865 
L 225.437313 56.760865 
L 225.437313 56.096589 
L 231.817156 56.096589 
L 231.817156 55.432312 
L 235.007077 55.432312 
L 235.007077 54.768035 
L 237.997629 54.768035 
L 237.997629 54.103759 
L 240.98818 54.103759 
L 240.98818 53.439482 
L 244.975582 53.439482 
L 244.975582 52.775206 
L 246.371173 52.775206 
L 246.371173 51.446653 
L 249.561094 51.446653 
L 249.561094 50.782376 
L 249.760464 50.782376 
L 249.760464 50.118099 
L 249.959834 50.118099 
L 249.959834 48.789546 
L 268.501253 48.789546 
L 268.501253 48.12527 
L 274.282986 48.12527 
L 274.282986 47.460993 
L 276.077317 47.460993 
L 276.077317 46.796717 
L 277.672278 46.796717 
L 277.672278 45.468163 
L 277.871648 45.468163 
L 277.871648 44.803887 
L 311.365824 44.803887 
L 311.365824 44.13961 
L 321.334329 44.13961 
L 321.334329 43.475334 
L 325.919841 43.475334 
L 325.919841 42.811057 
L 337.882046 42.811057 
L 337.882046 42.146781 
L 350.242992 42.146781 
L 350.242992 41.482504 
L 355.426615 41.482504 
L 355.426615 40.818227 
L 379.550396 40.818227 
L 379.550396 40.153951 
L 390.515752 40.153951 
L 390.515752 39.489674 
L 391.113862 39.489674 
L 391.113862 38.825398 
L 400.284886 38.825398 
L 400.284886 38.825398 
" clip-path="url(#pd590dee99a)" style="fill: none; stroke: #d62728; stroke-width: 1.6; stroke-linecap: square"/>
   </g>
   <g id="line2d_29">
    <path d="M 60.757614 368.970852 
L 60.757614 348.244232 
L 60.929352 348.244232 
L 60.929352 334.919976 
L 61.101091 334.919976 
L 61.101091 328.998084 
L 61.616307 328.998084 
L 61.616307 326.037138 
L 61.788045 326.037138 
L 61.788045 321.59572 
L 61.959784 321.59572 
L 61.959784 320.115247 
L 62.131523 320.115247 
L 62.131523 317.154301 
L 62.303261 317.154301 
L 62.303261 311.23241 
L 62.646739 311.23241 
L 62.646739 299.388626 
L 62.818477 299.388626 
L 62.818477 290.505789 
L 62.990216 290.505789 
L 62.990216 286.06437 
L 63.161954 286.06437 
L 63.161954 284.583898 
L 63.333693 284.583898 
L 63.333693 275.70106 
L 63.505432 275.70106 
L 63.505432 274.220587 
L 63.67717 274.220587 
L 63.67717 268.298696 
L 63.848909 268.298696 
L 63.848909 262.376804 
L 64.020648 262.376804 
L 64.020648 257.935385 
L 64.192386 257.935385 
L 64.192386 253.493967 
L 65.222818 253.493967 
L 65.222818 250.533021 
L 65.394557 250.533021 
L 65.394557 246.091602 
L 65.566295 246.091602 
L 65.566295 244.611129 
L 66.25325 244.611129 
L 66.25325 243.130657 
L 66.596727 243.130657 
L 66.596727 232.767346 
L 66.768466 232.767346 
L 66.768466 231.286873 
L 67.111943 231.286873 
L 67.111943 226.845455 
L 67.283682 226.845455 
L 67.283682 222.404036 
L 67.627159 222.404036 
L 67.627159 220.923563 
L 68.657591 220.923563 
L 68.657591 217.962617 
L 68.829329 217.962617 
L 68.829329 216.482145 
L 69.001068 216.482145 
L 69.001068 215.001672 
L 69.516284 215.001672 
L 69.516284 213.521199 
L 70.0315 213.521199 
L 70.0315 209.07978 
L 70.890193 209.07978 
L 70.890193 207.599307 
L 71.405409 207.599307 
L 71.405409 201.677416 
L 71.577147 201.677416 
L 71.577147 200.196943 
L 73.122795 200.196943 
L 73.122795 195.755524 
L 73.466272 195.755524 
L 73.466272 191.314105 
L 73.80975 191.314105 
L 73.80975 189.833633 
L 74.496704 189.833633 
L 74.496704 185.392214 
L 74.668443 185.392214 
L 74.668443 182.431268 
L 74.840181 182.431268 
L 74.840181 180.950795 
L 75.01192 180.950795 
L 75.01192 179.470322 
L 75.527136 179.470322 
L 75.527136 177.989849 
L 76.385829 177.989849 
L 76.385829 172.067958 
L 77.759738 172.067958 
L 77.759738 169.107012 
L 77.931477 169.107012 
L 77.931477 166.146066 
L 78.446693 166.146066 
L 78.446693 163.185121 
L 78.961908 163.185121 
L 78.961908 161.704648 
L 79.133647 161.704648 
L 79.133647 160.224175 
L 79.477124 160.224175 
L 79.477124 158.743702 
L 79.648863 158.743702 
L 79.648863 157.263229 
L 80.164079 157.263229 
L 80.164079 155.782756 
L 81.709727 155.782756 
L 81.709727 152.82181 
L 81.881465 152.82181 
L 81.881465 151.341337 
L 82.56842 151.341337 
L 82.56842 148.380392 
L 82.740158 148.380392 
L 82.740158 146.899919 
L 83.427113 146.899919 
L 83.427113 143.938973 
L 84.629283 143.938973 
L 84.629283 142.4585 
L 85.487976 142.4585 
L 85.487976 140.978027 
L 86.34667 140.978027 
L 86.34667 139.497554 
L 86.518408 139.497554 
L 86.518408 138.017081 
L 88.064056 138.017081 
L 88.064056 136.536608 
L 88.235795 136.536608 
L 88.235795 135.056136 
L 88.407533 135.056136 
L 88.407533 133.575663 
L 89.094488 133.575663 
L 89.094488 130.614717 
L 89.266226 130.614717 
L 89.266226 129.134244 
L 89.437965 129.134244 
L 89.437965 127.653771 
L 90.640135 127.653771 
L 90.640135 126.173298 
L 91.842306 126.173298 
L 91.842306 124.692825 
L 92.014044 124.692825 
L 92.014044 123.212352 
L 93.559692 123.212352 
L 93.559692 121.73188 
L 94.761862 121.73188 
L 94.761862 120.251407 
L 96.135772 120.251407 
L 96.135772 118.770934 
L 97.337942 118.770934 
L 97.337942 117.290461 
L 99.398806 117.290461 
L 99.398806 115.809988 
L 101.116192 115.809988 
L 101.116192 114.329515 
L 101.459669 114.329515 
L 101.459669 112.849042 
L 103.348794 112.849042 
L 103.348794 111.368569 
L 105.237919 111.368569 
L 105.237919 108.407624 
L 106.440089 108.407624 
L 106.440089 106.927151 
L 107.813998 106.927151 
L 107.813998 105.446678 
L 108.672692 105.446678 
L 108.672692 103.966205 
L 110.390078 103.966205 
L 110.390078 102.485732 
L 110.561817 102.485732 
L 110.561817 101.005259 
L 112.62268 101.005259 
L 112.62268 99.524786 
L 114.168328 99.524786 
L 114.168328 98.044313 
L 116.229191 98.044313 
L 116.229191 96.56384 
L 116.572669 96.56384 
L 116.572669 95.083368 
L 117.087884 95.083368 
L 117.087884 93.602895 
L 119.492225 93.602895 
L 119.492225 92.122422 
L 120.866134 92.122422 
L 120.866134 90.641949 
L 124.987861 90.641949 
L 124.987861 89.161476 
L 126.533509 89.161476 
L 126.533509 87.681003 
L 130.826975 87.681003 
L 130.826975 86.20053 
L 130.998714 86.20053 
L 130.998714 84.720057 
L 132.029145 84.720057 
L 132.029145 83.239584 
L 137.524782 83.239584 
L 137.524782 81.759112 
L 137.868259 81.759112 
L 137.868259 80.278639 
L 138.726952 80.278639 
L 138.726952 78.798166 
L 154.870383 78.798166 
L 154.870383 75.83722 
L 163.457315 75.83722 
L 163.457315 74.356747 
L 164.831224 74.356747 
L 164.831224 72.876274 
L 166.720349 72.876274 
L 166.720349 71.395801 
L 187.328984 71.395801 
L 187.328984 69.915328 
L 188.531155 69.915328 
L 188.531155 68.434856 
L 192.481143 68.434856 
L 192.481143 66.954383 
L 196.60287 66.954383 
L 196.60287 65.47391 
L 200.552859 65.47391 
L 200.552859 63.993437 
L 202.785461 63.993437 
L 202.785461 62.512964 
L 204.331109 62.512964 
L 204.331109 61.032491 
L 206.73545 61.032491 
L 206.73545 59.552018 
L 211.028915 59.552018 
L 211.028915 58.071545 
L 211.71587 58.071545 
L 211.71587 56.591072 
L 213.089779 56.591072 
L 213.089779 55.1106 
L 221.504972 55.1106 
L 221.504972 53.630127 
L 225.45496 53.630127 
L 225.45496 52.149654 
L 228.546256 52.149654 
L 228.546256 50.669181 
L 228.717994 50.669181 
L 228.717994 49.188708 
L 256.367914 49.188708 
L 256.367914 47.708235 
L 263.237459 47.708235 
L 263.237459 46.227762 
L 283.846095 46.227762 
L 283.846095 44.747289 
L 304.111253 44.747289 
L 304.111253 43.266816 
L 305.82864 43.266816 
L 305.82864 40.305871 
L 313.213401 40.305871 
L 313.213401 38.825398 
L 400.284886 38.825398 
L 400.284886 38.825398 
" clip-path="url(#pd590dee99a)" style="fill: none; stroke: #9467bd; stroke-width: 1.6; stroke-linecap: square"/>
   </g>
   <g id="line2d_30">
    <path d="M 60.757614 368.970852 
L 400.284886 38.825398 
" clip-path="url(#pd590dee99a)" style="fill: none; stroke-dasharray: 3.7,1.6; stroke-dashoffset: 0; stroke: #808080"/>
   </g>
   <g id="patch_3">
    <path d="M 43.78125 385.478125 
L 43.78125 22.318125 
" style="fill: none; stroke: #000000; stroke-width: 0.8; stroke-linejoin: miter; stroke-linecap: square"/>
   </g>
   <g id="patch_4">
    <path d="M 417.26125 385.478125 
L 417.26125 22.318125 
" style="fill: none; stroke: #000000; stroke-width: 0.8; stroke-linejoin: miter; stroke-linecap: square"/>
   </g>
   <g id="patch_5">
    <path d="M 43.78125 385.478125 
L 417.26125 385.478125 
" style="fill: none; stroke: #000000; stroke-width: 0.8; stroke-linejoin: miter; stroke-linecap: square"/>
   </g>
   <g id="patch_6">
    <path d="M 43.78125 22.318125 
L 417.26125 22.318125 
" style="fill: none; stroke: #000000; stroke-width: 0.8; stroke-linejoin: miter; stroke-linecap: square"/>
   </g>
   <g id="text_15">
    <!-- ROC — final -->
    <g transform="translate(194.700312 16.318125) scale(0.12 -0.12)">
     <defs>
      <path id="DejaVuSans-4f" d="M 2522 4238 
Q 1834 4238 1429 3725 
Q 1025 3213 1025 2328 
Q 1025 1447 1429 934 
Q 1834 422 2522 422 
Q 3209 422 3611 934 
Q 4013 1447 4013 2328 
Q 4013 3213 3611 3725 
Q 3209 4238 2522 4238 
z
M 2522 4750 
Q 3503 4750 4090 4092 
Q 4678 3434 4678 2328 
Q 4678 1225 4090 567 
Q 3503 -91 2522 -91 
Q 1538 -91 948 565 
Q 359 1222 359 2328 
Q 359 3434 948 4092 
Q 1538 4750 2522 4750 
z
" transform="scale(0.015625)"/>
      <path id="DejaVuSans-43" d="M 4122 4306 
L 4122 3641 
Q 3803 3938 3442 4084 
Q 3081 4231 2675 4231 
Q 1875 4231 1450 3742 
Q 1025 3253 1025 2328 
Q 1025 1406 1450 917 
Q 1875 428 2675 428 
Q 3081 428 3442 575 
Q 3803 722 4122 1019 
L 4122 359 
Q 3791 134 3420 21 
Q 3050 -91 2638 -91 
Q 1578 -91 968 557 
Q 359 1206 359 2328 
Q 359 3453 968 4101 
Q 1578 4750 2638 4750 
Q 3056 4750 3426 4639 
Q 3797 4528 4122 4306 
z
" transform="scale(0.015625)"/>
      <path id="DejaVuSans-2014" d="M 313 1978 
L 6088 1978 
L 6088 1528 
L 313 1528 
L 313 1978 
z
" transform="scale(0.015625)"/>
      <path id="DejaVuSans-61" d="M 2194 1759 
Q 1497 1759 1228 1600 
Q 959 1441 959 1056 
Q 959 750 1161 570 
Q 1363 391 1709 391 
Q 2188 391 2477 730 
Q 2766 1069 2766 1631 
L 2766 1759 
L 2194 1759 
z
M 3341 1997 
L 3341 0 
L 2766 0 
L 2766 531 
Q 2569 213 2275 61 
Q 1981 -91 1556 -91 
Q 1019 -91 701 211 
Q 384 513 384 1019 
Q 384 1609 779 1909 
Q 1175 2209 1959 2209 
L 2766 2209 
L 2766 2266 
Q 2766 2663 2505 2880 
Q 2244 3097 1772 3097 
Q 1472 3097 1187 3025 
Q 903 2953 641 2809 
L 641 3341 
Q 956 3463 1253 3523 
Q 1550 3584 1831 3584 
Q 2591 3584 2966 3190 
Q 3341 2797 3341 1997 
z
" transform="scale(0.015625)"/>
      <path id="DejaVuSans-6c" d="M 603 4863 
L 1178 4863 
L 1178 0 
L 603 0 
L 603 4863 
z
" transform="scale(0.015625)"/>
     </defs>
     <use xlink:href="#DejaVuSans-52"/>
     <use xlink:href="#DejaVuSans-4f" transform="translate(69.482422 0)"/>
     <use xlink:href="#DejaVuSans-43" transform="translate(148.193359 0)"/>
     <use xlink:href="#DejaVuSans-20" transform="translate(218.017578 0)"/>
     <use xlink:href="#DejaVuSans-2014" transform="translate(249.804688 0)"/>
     <use xlink:href="#DejaVuSans-20" transform="translate(349.804688 0)"/>
     <use xlink:href="#DejaVuSans-66" transform="translate(381.591797 0)"/>
     <use xlink:href="#DejaVuSans-69" transform="translate(416.796875 0)"/>
     <use xlink:href="#DejaVuSans-6e" transform="translate(444.580078 0)"/>
     <use xlink:href="#DejaVuSans-61" transform="translate(507.958984 0)"/>
     <use xlink:href="#DejaVuSans-6c" transform="translate(569.238281 0)"/>
    </g>
   </g>
   <g id="legend_1">
    <g id="patch_7">
     <path d="M 310.17375 381.478125 
L 411.66125 381.478125 
Q 413.26125 381.478125 413.26125 379.878125 
L 413.26125 321.965625 
Q 413.26125 320.365625 411.66125 320.365625 
L 310.17375 320.365625 
Q 308.57375 320.365625 308.57375 321.965625 
L 308.57375 379.878125 
Q 308.57375 381.478125 310.17375 381.478125 
z
" style="fill: #ffffff; opacity: 0.8; stroke: #cccccc; stroke-linejoin: miter"/>
    </g>
    <g id="line2d_31">
     <path d="M 311.77375 326.844375 
L 319.77375 326.844375 
L 327.77375 326.844375 
" style="fill: none; stroke: #1f77b4; stroke-width: 1.6; stroke-linecap: square"/>
    </g>
    <g id="text_16">
     <!-- NORM (AUC 0.938) -->
     <g transform="translate(334.17375 329.644375) scale(0.08 -0.08)">
      <defs>
       <path id="DejaVuSans-4e" d="M 628 4666 
L 1478 4666 
L 3547 763 
L 3547 4666 
L 4159 4666 
L 4159 0 
L 3309 0 
L 1241 3903 
L 1241 0 
L 628 0 
L 628 4666 
z
" transform="scale(0.015625)"/>
       <path id="DejaVuSans-4d" d="M 628 4666 
L 1569 4666 
L 2759 1491 
L 3956 4666 
L 4897 4666 
L 4897 0 
L 4281 0 
L 4281 4097 
L 3078 897 
L 2444 897 
L 1241 4097 
L 1241 0 
L 628 0 
L 628 4666 
z
" transform="scale(0.015625)"/>
       <path id="DejaVuSans-41" d="M 2188 4044 
L 1331 1722 
L 3047 1722 
L 2188 4044 
z
M 1831 4666 
L 2547 4666 
L 4325 0 
L 3669 0 
L 3244 1197 
L 1141 1197 
L 716 0 
L 50 0 
L 1831 4666 
z
" transform="scale(0.015625)"/>
       <path id="DejaVuSans-55" d="M 556 4666 
L 1191 4666 
L 1191 1831 
Q 1191 1081 1462 751 
Q 1734 422 2344 422 
Q 2950 422 3222 751 
Q 3494 1081 3494 1831 
L 3494 4666 
L 4128 4666 
L 4128 1753 
Q 4128 841 3676 375 
Q 3225 -91 2344 -91 
Q 1459 -91 1007 375 
Q 556 841 556 1753 
L 556 4666 
z
" transform="scale(0.015625)"/>
       <path id="DejaVuSans-39" d="M 703 97 
L 703 672 
Q 941 559 1184 500 
Q 1428 441 1663 441 
Q 2288 441 2617 861 
Q 2947 1281 2994 2138 
Q 2813 1869 2534 1725 
Q 2256 1581 1919 1581 
Q 1219 1581 811 2004 
Q 403 2428 403 3163 
Q 403 3881 828 4315 
Q 1253 4750 1959 4750 
Q 2769 4750 3195 4129 
Q 3622 3509 3622 2328 
Q 3622 1225 3098 567 
Q 2575 -91 1691 -91 
Q 1453 -91 1209 -44 
Q 966 3 703 97 
z
M 1959 2075 
Q 2384 2075 2632 2365 
Q 2881 2656 2881 3163 
Q 2881 3666 2632 3958 
Q 2384 4250 1959 4250 
Q 1534 4250 1286 3958 
Q 1038 3666 1038 3163 
Q 1038 2656 1286 2365 
Q 1534 2075 1959 2075 
z
" transform="scale(0.015625)"/>
       <path id="DejaVuSans-33" d="M 2597 2516 
Q 3050 2419 3304 2112 
Q 3559 1806 3559 1356 
Q 3559 666 3084 287 
Q 2609 -91 1734 -91 
Q 1441 -91 1130 -33 
Q 819 25 488 141 
L 488 750 
Q 750 597 1062 519 
Q 1375 441 1716 441 
Q 2309 441 2620 675 
Q 2931 909 2931 1356 
Q 2931 1769 2642 2001 
Q 2353 2234 1838 2234 
L 1294 2234 
L 1294 2753 
L 1863 2753 
Q 2328 2753 2575 2939 
Q 2822 3125 2822 3475 
Q 2822 3834 2567 4026 
Q 2313 4219 1838 4219 
Q 1578 4219 1281 4162 
Q 984 4106 628 3988 
L 628 4550 
Q 988 4650 1302 4700 
Q 1616 4750 1894 4750 
Q 2613 4750 3031 4423 
Q 3450 4097 3450 3541 
Q 3450 3153 3228 2886 
Q 3006 2619 2597 2516 
z
" transform="scale(0.015625)"/>
      </defs>
      <use xlink:href="#DejaVuSans-4e"/>
      <use xlink:href="#DejaVuSans-4f" transform="translate(74.804688 0)"/>
      <use xlink:href="#DejaVuSans-52" transform="translate(153.515625 0)"/>
      <use xlink:href="#DejaVuSans-4d" transform="translate(222.998047 0)"/>
      <use xlink:href="#DejaVuSans-20" transform="translate(309.277344 0)"/>
      <use xlink:href="#DejaVuSans-28" transform="translate(341.064453 0)"/>
      <use xlink:href="#DejaVuSans-41" transform="translate(380.078125 0)"/>
      <use xlink:href="#DejaVuSans-55" transform="translate(448.486328 0)"/>
      <use xlink:href="#DejaVuSans-43" transform="translate(521.679688 0)"/>
      <use xlink:href="#DejaVuSans-20" transform="translate(591.503906 0)"/>
      <use xlink:href="#DejaVuSans-30" transform="translate(623.291016 0)"/>
      <use xlink:href="#DejaVuSans-2e" transform="translate(686.914062 0)"/>
      <use xlink:href="#DejaVuSans-39" transform="translate(718.701172 0)"/>
      <use xlink:href="#DejaVuSans-33" transform="translate(782.324219 0)"/>
      <use xlink:href="#DejaVuSans-38" transform="translate(845.947266 0)"/>
      <use xlink:href="#DejaVuSans-29" transform="translate(909.570312 0)"/>
     </g>
    </g>
    <g id="line2d_32">
     <path d="M 311.77375 338.586875 
L 319.77375 338.586875 
L 327.77375 338.586875 
" style="fill: none; stroke: #ff7f0e; stroke-width: 1.6; stroke-linecap: square"/>
    </g>
    <g id="text_17">
     <!-- MI (AUC 0.924) -->
     <g transform="translate(334.17375 341.386875) scale(0.08 -0.08)">
      <defs>
       <path id="DejaVuSans-49" d="M 628 4666 
L 1259 4666 
L 1259 0 
L 628 0 
L 628 4666 
z
" transform="scale(0.015625)"/>
      </defs>
      <use xlink:href="#DejaVuSans-4d"/>
      <use xlink:href="#DejaVuSans-49" transform="translate(86.279297 0)"/>
      <use xlink:href="#DejaVuSans-20" transform="translate(115.771484 0)"/>
      <use xlink:href="#DejaVuSans-28" transform="translate(147.558594 0)"/>
      <use xlink:href="#DejaVuSans-41" transform="translate(186.572266 0)"/>
      <use xlink:href="#DejaVuSans-55" transform="translate(254.980469 0)"/>
      <use xlink:href="#DejaVuSans-43" transform="translate(328.173828 0)"/>
      <use xlink:href="#DejaVuSans-20" transform="translate(397.998047 0)"/>
      <use xlink:href="#DejaVuSans-30" transform="translate(429.785156 0)"/>
      <use xlink:href="#DejaVuSans-2e" transform="translate(493.408203 0)"/>
      <use xlink:href="#DejaVuSans-39" transform="translate(525.195312 0)"/>
      <use xlink:href="#DejaVuSans-32" transform="translate(588.818359 0)"/>
      <use xlink:href="#DejaVuSans-34" transform="translate(652.441406 0)"/>
      <use xlink:href="#DejaVuSans-29" transform="translate(716.064453 0)"/>
     </g>
    </g>
    <g id="line2d_33">
     <path d="M 311.77375 350.329375 
L 319.77375 350.329375 
L 327.77375 350.329375 
" style="fill: none; stroke: #2ca02c; stroke-width: 1.6; stroke-linecap: square"/>
    </g>
    <g id="text_18">
     <!-- STTC (AUC 0.933) -->
     <g transform="translate(334.17375 353.129375) scale(0.08 -0.08)">
      <use xlink:href="#DejaVuSans-53"/>
      <use xlink:href="#DejaVuSans-54" transform="translate(63.476562 0)"/>
      <use xlink:href="#DejaVuSans-54" transform="translate(122.810547 0)"/>
      <use xlink:href="#DejaVuSans-43" transform="translate(178.019531 0)"/>
      <use xlink:href="#DejaVuSans-20" transform="translate(247.84375 0)"/>
      <use xlink:href="#DejaVuSans-28" transform="translate(279.630859 0)"/>
      <use xlink:href="#DejaVuSans-41" transform="translate(318.644531 0)"/>
      <use xlink:href="#DejaVuSans-55" transform="translate(387.052734 0)"/>
      <use xlink:href="#DejaVuSans-43" transform="translate(460.246094 0)"/>
      <use xlink:href="#DejaVuSans-20" transform="translate(530.070312 0)"/>
      <use xlink:href="#DejaVuSans-30" transform="translate(561.857422 0)"/>
      <use xlink:href="#DejaVuSans-2e" transform="translate(625.480469 0)"/>
      <use xlink:href="#DejaVuSans-39" transform="translate(657.267578 0)"/>
      <use xlink:href="#DejaVuSans-33" transform="translate(720.890625 0)"/>
      <use xlink:href="#DejaVuSans-33" transform="translate(784.513672 0)"/>
      <use xlink:href="#DejaVuSans-29" transform="translate(848.136719 0)"/>
     </g>
    </g>
    <g id="line2d_34">
     <path d="M 311.77375 362.071875 
L 319.77375 362.071875 
L 327.77375 362.071875 
" style="fill: none; stroke: #d62728; stroke-width: 1.6; stroke-linecap: square"/>
    </g>
    <g id="text_19">
     <!-- CD (AUC 0.915) -->
     <g transform="translate(334.17375 364.871875) scale(0.08 -0.08)">
      <defs>
       <path id="DejaVuSans-44" d="M 1259 4147 
L 1259 519 
L 2022 519 
Q 2988 519 3436 956 
Q 3884 1394 3884 2338 
Q 3884 3275 3436 3711 
Q 2988 4147 2022 4147 
L 1259 4147 
z
M 628 4666 
L 1925 4666 
Q 3281 4666 3915 4102 
Q 4550 3538 4550 2338 
Q 4550 1131 3912 565 
Q 3275 0 1925 0 
L 628 0 
L 628 4666 
z
" transform="scale(0.015625)"/>
       <path id="DejaVuSans-35" d="M 691 4666 
L 3169 4666 
L 3169 4134 
L 1269 4134 
L 1269 2991 
Q 1406 3038 1543 3061 
Q 1681 3084 1819 3084 
Q 2600 3084 3056 2656 
Q 3513 2228 3513 1497 
Q 3513 744 3044 326 
Q 2575 -91 1722 -91 
Q 1428 -91 1123 -41 
Q 819 9 494 109 
L 494 744 
Q 775 591 1075 516 
Q 1375 441 1709 441 
Q 2250 441 2565 725 
Q 2881 1009 2881 1497 
Q 2881 1984 2565 2268 
Q 2250 2553 1709 2553 
Q 1456 2553 1204 2497 
Q 953 2441 691 2322 
L 691 4666 
z
" transform="scale(0.015625)"/>
      </defs>
      <use xlink:href="#DejaVuSans-43"/>
      <use xlink:href="#DejaVuSans-44" transform="translate(69.824219 0)"/>
      <use xlink:href="#DejaVuSans-20" transform="translate(146.826172 0)"/>
      <use xlink:href="#DejaVuSans-28" transform="translate(178.613281 0)"/>
      <use xlink:href="#DejaVuSans-41" transform="translate(217.626953 0)"/>
      <use xlink:href="#DejaVuSans-55" transform="translate(286.035156 0)"/>
      <use xlink:href="#DejaVuSans-43" transform="translate(359.228516 0)"/>
      <use xlink:href="#DejaVuSans-20" transform="translate(429.052734 0)"/>
      <use xlink:href="#DejaVuSans-30" transform="translate(460.839844 0)"/>
      <use xlink:href="#DejaVuSans-2e" transform="translate(524.462891 0)"/>
      <use xlink:href="#DejaVuSans-39" transform="translate(556.25 0)"/>
      <use xlink:href="#DejaVuSans-31" transform="translate(619.873047 0)"/>
      <use xlink:href="#DejaVuSans-35" transform="translate(683.496094 0)"/>
      <use xlink:href="#DejaVuSans-29" transform="translate(747.119141 0)"/>
     </g>
    </g>
    <g id="line2d_35">
     <path d="M 311.77375 373.814375 
L 319.77375 373.814375 
L 327.77375 373.814375 
" style="fill: none; stroke: #9467bd; stroke-width: 1.6; stroke-linecap: square"/>
    </g>
    <g id="text_20">
     <!-- HYP (AUC 0.903) -->
     <g transform="translate(334.17375 376.614375) scale(0.08 -0.08)">
      <defs>
       <path id="DejaVuSans-48" d="M 628 4666 
L 1259 4666 
L 1259 2753 
L 3553 2753 
L 3553 4666 
L 4184 4666 
L 4184 0 
L 3553 0 
L 3553 2222 
L 1259 2222 
L 1259 0 
L 628 0 
L 628 4666 
z
" transform="scale(0.015625)"/>
       <path id="DejaVuSans-59" d="M -13 4666 
L 666 4666 
L 1959 2747 
L 3244 4666 
L 3922 4666 
L 2272 2222 
L 2272 0 
L 1638 0 
L 1638 2222 
L -13 4666 
z
" transform="scale(0.015625)"/>
      </defs>
      <use xlink:href="#DejaVuSans-48"/>
      <use xlink:href="#DejaVuSans-59" transform="translate(75.195312 0)"/>
      <use xlink:href="#DejaVuSans-50" transform="translate(136.279297 0)"/>
      <use xlink:href="#DejaVuSans-20" transform="translate(196.582031 0)"/>
      <use xlink:href="#DejaVuSans-28" transform="translate(228.369141 0)"/>
      <use xlink:href="#DejaVuSans-41" transform="translate(267.382812 0)"/>
      <use xlink:href="#DejaVuSans-55" transform="translate(335.791016 0)"/>
      <use xlink:href="#DejaVuSans-43" transform="translate(408.984375 0)"/>
      <use xlink:href="#DejaVuSans-20" transform="translate(478.808594 0)"/>
      <use xlink:href="#DejaVuSans-30" transform="translate(510.595703 0)"/>
      <use xlink:href="#DejaVuSans-2e" transform="translate(574.21875 0)"/>
      <use xlink:href="#DejaVuSans-39" transform="translate(606.005859 0)"/>
      <use xlink:href="#DejaVuSans-30" transform="translate(669.628906 0)"/>
      <use xlink:href="#DejaVuSans-33" transform="translate(733.251953 0)"/>
      <use xlink:href="#DejaVuSans-29" transform="translate(796.875 0)"/>
     </g>
    </g>
   </g>
  </g>
 </g>
 <defs>
  <clipPath id="pd590dee99a">
   <rect x="43.78125" y="22.318125" width="373.48" height="363.16"/>
  </clipPath>
 </defs>
</svg>
